<?xml version="1.0" encoding="UTF-8" standalone="no"?>
<svg xmlns:rdf="http://www.w3.org/1999/02/22-rdf-syntax-ns#" xmlns="http://www.w3.org/2000/svg" sodipodi:docname="simple_c_10.svg" height="190" sodipodi:version="0.32" width="140" version="1.0" xmlns:xlink="http://www.w3.org/1999/xlink" y="0" x="0" xmlns:cc="http://web.resource.org/cc/" xmlns:dc="http://purl.org/dc/elements/1.1/" sodipodi:docbase="/home/nicu/Desktop/card_nicu_buculei_01.zip_FILES/cards/simple" xmlns:sodipodi="http://inkscape.sourceforge.net/DTD/sodipodi-0.dtd">
 <sodipodi:namedview bordercolor="#666666" pagecolor="#ffffff" borderopacity="1.0"/>
 <defs>
  <linearGradient id="a" y2="128.7" gradientUnits="userSpaceOnUse" y1="63.1" gradientTransform="translate(0 -1)" x2="109" x1="2">
   <stop stop-color="#ebf0d0" offset="0"/>
   <stop stop-color="#ffffeb" offset="1"/>
  </linearGradient>
 </defs>
 <path fill-opacity=".49804" d="m21 5h103c8.86 0 16 7.136 16 16v153c0 8.86-7.14 16-16 16h-103c-8.864 0-16-7.14-16-16v-153c0-8.864 7.136-16 16-16z"/>
 <g>
  <path fill="#fff" d="m17 1h103c8.86 0 16 7.136 16 16v153c0 8.86-7.14 16-16 16h-103c-8.864 0-16-7.14-16-16v-153c0-8.864 7.136-16 16-16z"/>
  <path fill="#c7891f" d="m19 3h103c8.86 0 16 7.136 16 16v153c0 8.86-7.14 16-16 16h-103c-8.864 0-16-7.14-16-16v-153c0-8.864 7.136-16 16-16z"/>
  <path fill="url(#a)" d="m18 2h103c8.86 0 16 7.136 16 16v153c0 8.86-7.14 16-16 16h-103c-8.864 0-16-7.14-16-16v-153c0-8.864 7.136-16 16-16z"/>
 </g>
 <g>
  <path d="m20.527 48.67c-2.666 0-4.83 3.264-4.83 7.286 0 3.426 4.392 9.191 4.222 11.929-1.41.783-5.767-6.437-8.019-6.437-2.6665 0-4.83 3.263-4.83 7.285 0 4.023 2.1635 7.286 4.83 7.286 2.312 0 6.276-7.214 8.019-6.563l-2.929 12.874 7.024-.042s-3.077-12.481-3.081-12.776h.055v.014c1.707-.640 5.806 6.632 8.102 6.632 2.667 0 4.83-3.263 4.83-7.286 0-4.022-2.163-7.285-4.83-7.285-2.242 0-6.308 7.1-8.093 6.368.025-2.806 4.36-8.577 4.36-11.999 0-4.022-2.163-7.286-4.83-7.286z" sodipodi:nodetypes="cscsssccccccssscsc" fill-rule="evenodd"/>
  <path d="m11.677 42.368v-23.59l-5.237-.069.2526-3.622 4.9544-3.089h5.492v30.37m13.434-15.222c0-3.75-.265-6.389-.796-7.916-.520-1.541-1.4-2.311-2.641-2.311-1.24 0-2.125.770-2.656 2.311-.530 1.527-.795 4.166-.795 7.916 0 3.791.265 6.464.795 8.018.531 1.554 1.416 2.331 2.656 2.331 1.231 0 2.111-.777 2.641-2.331.531-1.554.796-4.227.796-8.018m5.777.061c0 4.97-0.8 8.807-2.401 11.513-1.601 2.693-3.872 4.039-6.813 4.039-2.951 0-5.227-1.346-6.827-4.039-1.601-2.706-2.401-6.543-2.401-11.513 0-4.983 0.8-8.821 2.401-11.514 1.6-2.706 3.876-4.059 6.827-4.059 2.941 0 5.212 1.353 6.813 4.059 1.601 2.693 2.401 6.531 2.401 11.514"/>
  <path d="m117.42 139.96c2.66 0 4.83-3.26 4.83-7.29 0-3.42-4.39-9.19-4.22-11.93 1.41-.78 5.76 6.44 8.02 6.44 2.66 0 4.83-3.26 4.83-7.28 0-4.03-2.17-7.29-4.83-7.29-2.32 0-6.28 7.21-8.02 6.56l2.93-12.87-7.03.04s3.08 12.48 3.08 12.78h-.05v-.02c-1.71.64-5.81-6.63-8.1-6.63-2.67 0-4.83 3.27-4.83 7.29s2.16 7.28 4.83 7.28c2.24 0 6.3-7.1 8.09-6.36-.03 2.8-4.36 8.57-4.36 11.99 0 4.03 2.16 7.29 4.83 7.29z" sodipodi:nodetypes="cscsssccccccssscsc" fill-rule="evenodd"/>
  <path d="m126.27 146.27v23.59l5.24.06-.26 3.63-4.95 3.09h-5.49v-30.37m-13.44 15.22c0 3.75.27 6.39.80 7.91.52 1.55 1.4 2.32 2.64 2.32s2.12-.77 2.66-2.32c.53-1.52.79-4.16.79-7.91 0-3.79-.26-6.47-.79-8.02-.54-1.55-1.42-2.33-2.66-2.33-1.23 0-2.11.78-2.64 2.33s-.80 4.23-.80 8.02m-5.77-.06c0-4.97.80-8.81 2.4-11.52 1.6-2.69 3.87-4.03 6.81-4.03 2.95 0 5.23 1.34 6.83 4.03 1.6 2.71 2.4 6.55 2.4 11.52 0 4.98-.80 8.82-2.4 11.51-1.6 2.71-3.88 4.06-6.83 4.06-2.94 0-5.21-1.35-6.81-4.06-1.6-2.69-2.4-6.53-2.4-11.51"/>
  <g fill-rule="evenodd">
   <path d="m49.199 36c-1.553 0-2.814 1.918-2.814 4.281 0 2.014 2.559 5.402 2.459 7.011-.821.459-3.359-3.783-4.671-3.783-1.553 0-2.813 1.917-2.813 4.281s1.26 4.281 2.813 4.281c1.347 0 3.656-4.239 4.671-3.856l-1.706 7.565 4.092-.025s-1.793-7.334-1.795-7.507h.032v.008c.995-.376 3.382 3.897 4.72 3.897 1.553 0 2.813-1.918 2.813-4.281 0-2.364-1.26-4.282-2.813-4.282-1.307 0-3.675 4.173-4.714 3.743.014-1.649 2.539-5.04 2.539-7.052 0-2.363-1.26-4.281-2.813-4.281z" sodipodi:nodetypes="cscsssccccccssscsc"/>
   <path d="m68.839 50.22c-1.553 0-2.814 1.918-2.814 4.281 0 2.014 2.559 5.402 2.459 7.011-.821.459-3.359-3.783-4.671-3.783-1.553 0-2.813 1.917-2.813 4.281s1.26 4.281 2.813 4.281c1.347 0 3.656-4.239 4.671-3.856l-1.706 7.565 4.092-.025s-1.793-7.334-1.795-7.507h.032v.008c.995-.376 3.382 3.897 4.72 3.897 1.553 0 2.813-1.918 2.813-4.281 0-2.364-1.26-4.282-2.813-4.282-1.307 0-3.675 4.173-4.714 3.743.014-1.649 2.539-5.04 2.539-7.052 0-2.363-1.26-4.281-2.813-4.281z" sodipodi:nodetypes="cscsssccccccssscsc"/>
   <path d="m90.199 36.22c-1.553 0-2.814 1.918-2.814 4.281 0 2.014 2.559 5.402 2.459 7.011-.821.459-3.359-3.783-4.671-3.783-1.553 0-2.813 1.917-2.813 4.281s1.26 4.281 2.813 4.281c1.347 0 3.656-4.239 4.671-3.856l-1.706 7.565 4.092-.025s-1.793-7.334-1.795-7.507h.032v.008c.995-.376 3.382 3.897 4.72 3.897 1.553 0 2.813-1.918 2.813-4.281 0-2.364-1.26-4.282-2.813-4.282-1.307 0-3.675 4.173-4.714 3.743.014-1.649 2.539-5.04 2.539-7.052 0-2.363-1.26-4.281-2.813-4.281z" sodipodi:nodetypes="cscsssccccccssscsc"/>
   <path d="m48.839 71.22c-1.553 0-2.814 1.918-2.814 4.281 0 2.014 2.559 5.402 2.459 7.011-.821.459-3.359-3.783-4.671-3.783-1.553 0-2.813 1.917-2.813 4.281s1.26 4.281 2.813 4.281c1.347 0 3.656-4.239 4.671-3.856l-1.706 7.565 4.092-.025s-1.793-7.334-1.795-7.507h.032v.008c.995-.376 3.382 3.897 4.72 3.897 1.553 0 2.813-1.918 2.813-4.281 0-2.364-1.26-4.282-2.813-4.282-1.307 0-3.675 4.173-4.714 3.743.014-1.649 2.539-5.04 2.539-7.052 0-2.363-1.26-4.281-2.813-4.281z" sodipodi:nodetypes="cscsssccccccssscsc"/>
   <path d="m88.199 70c-1.553 0-2.814 1.918-2.814 4.281 0 2.014 2.559 5.402 2.459 7.011-.821.459-3.359-3.783-4.671-3.783-1.553 0-2.813 1.917-2.813 4.281s1.26 4.281 2.813 4.281c1.347 0 3.656-4.239 4.671-3.856l-1.706 7.565 4.092-.025s-1.793-7.334-1.795-7.507h.032v.008c.995-.376 3.382 3.897 4.72 3.897 1.553 0 2.813-1.918 2.813-4.281 0-2.364-1.26-4.282-2.813-4.282-1.307 0-3.675 4.173-4.714 3.743.014-1.649 2.539-5.04 2.539-7.052 0-2.363-1.26-4.281-2.813-4.281z" sodipodi:nodetypes="cscsssccccccssscsc"/>
   <path d="m48.161 119c1.553 0 2.814-1.92 2.814-4.28 0-2.01-2.559-5.4-2.459-7.01.821-.46 3.359 3.78 4.671 3.78 1.553 0 2.813-1.92 2.813-4.28s-1.26-4.28-2.813-4.28c-1.347 0-3.656 4.24-4.671 3.86l1.706-7.57-4.092.025s1.793 7.335 1.795 7.505h-.032v-.01c-.995.38-3.382-3.89-4.72-3.89-1.553 0-2.813 1.91-2.813 4.28 0 2.36 1.26 4.28 2.813 4.28 1.307 0 3.675-4.17 4.714-3.74-.014 1.65-2.539 5.04-2.539 7.05 0 2.36 1.26 4.28 2.813 4.28z" sodipodi:nodetypes="cscsssccccccssscsc"/>
   <path d="m89.801 119.78c1.553 0 2.814-1.92 2.814-4.28 0-2.01-2.559-5.4-2.459-7.01.821-.46 3.359 3.78 4.671 3.78 1.553 0 2.813-1.92 2.813-4.28s-1.26-4.28-2.813-4.28c-1.347 0-3.656 4.24-4.671 3.86l1.706-7.57-4.092.02s1.793 7.34 1.795 7.51h-.032v-.01c-.995.38-3.382-3.89-4.72-3.89-1.553 0-2.813 1.91-2.813 4.28 0 2.36 1.26 4.28 2.813 4.28 1.307 0 3.675-4.17 4.714-3.74-.014 1.65-2.539 5.04-2.539 7.05 0 2.36 1.26 4.28 2.813 4.28z" sodipodi:nodetypes="cscsssccccccssscsc"/>
   <path d="m68.801 137c1.553 0 2.814-1.92 2.814-4.28 0-2.01-2.559-5.4-2.459-7.01.821-.46 3.359 3.78 4.671 3.78 1.553 0 2.813-1.92 2.813-4.28s-1.26-4.28-2.813-4.28c-1.347 0-3.656 4.24-4.671 3.86l1.706-7.57-4.092.02s1.793 7.34 1.795 7.51h-.032v-.01c-.995.38-3.382-3.89-4.72-3.89-1.553 0-2.813 1.91-2.813 4.28 0 2.36 1.26 4.28 2.813 4.28 1.307 0 3.675-4.17 4.714-3.74-.014 1.65-2.539 5.04-2.539 7.05 0 2.36 1.26 4.28 2.813 4.28z" sodipodi:nodetypes="cscsssccccccssscsc"/>
   <path d="m90.161 149.78c1.553 0 2.814-1.92 2.814-4.28 0-2.01-2.559-5.4-2.459-7.01.821-.46 3.359 3.78 4.671 3.78 1.553 0 2.813-1.92 2.813-4.28s-1.26-4.28-2.813-4.28c-1.347 0-3.656 4.24-4.671 3.86l1.706-7.57-4.092.02s1.793 7.34 1.795 7.51h-.032v-.01c-.995.38-3.382-3.89-4.72-3.89-1.553 0-2.813 1.91-2.813 4.28 0 2.36 1.26 4.28 2.813 4.28 1.307 0 3.675-4.17 4.714-3.74-.014 1.65-2.539 5.04-2.539 7.05 0 2.36 1.26 4.28 2.813 4.28z" sodipodi:nodetypes="cscsssccccccssscsc"/>
   <path d="m49.161 149.78c1.553 0 2.814-1.92 2.814-4.28 0-2.01-2.559-5.4-2.459-7.01.821-.46 3.359 3.78 4.671 3.78 1.553 0 2.813-1.92 2.813-4.28s-1.26-4.28-2.813-4.28c-1.347 0-3.656 4.24-4.671 3.86l1.706-7.57-4.092.02s1.793 7.34 1.795 7.51h-.032v-.01c-.995.38-3.382-3.89-4.72-3.89-1.553 0-2.813 1.91-2.813 4.28 0 2.36 1.26 4.28 2.813 4.28 1.307 0 3.675-4.17 4.714-3.74-.014 1.65-2.539 5.04-2.539 7.05 0 2.36 1.26 4.28 2.813 4.28z" sodipodi:nodetypes="cscsssccccccssscsc"/>
  </g>
 </g>
</svg>
