<?xml version="1.0" encoding="UTF-8" standalone="no"?>
<svg xmlns:rdf="http://www.w3.org/1999/02/22-rdf-syntax-ns#" xmlns="http://www.w3.org/2000/svg" sodipodi:docname="h_10.svg" height="190" sodipodi:version="0.32" width="140" version="1.0" xmlns:xlink="http://www.w3.org/1999/xlink" y="0" x="0" xmlns:cc="http://web.resource.org/cc/" xmlns:dc="http://purl.org/dc/elements/1.1/" sodipodi:docbase="/home/nicu/Desktop/simple" xmlns:sodipodi="http://inkscape.sourceforge.net/DTD/sodipodi-0.dtd">
 <sodipodi:namedview bordercolor="#666666" pagecolor="#ffffff" borderopacity="1.0"/>
 <defs>
  <linearGradient id="a" y2="128.7" gradientUnits="userSpaceOnUse" y1="63.1" gradientTransform="translate(0 -1)" x2="109" x1="2">
   <stop stop-color="#ebf0d0" offset="0"/>
   <stop stop-color="#ffffeb" offset="1"/>
  </linearGradient>
 </defs>
 <path fill-opacity=".49804" d="m21 5h103c8.86 0 16 7.136 16 16v153c0 8.86-7.14 16-16 16h-103c-8.864 0-16-7.14-16-16v-153c0-8.864 7.136-16 16-16z"/>
 <g>
  <path fill="#fff" d="m17 1h103c8.86 0 16 7.136 16 16v153c0 8.86-7.14 16-16 16h-103c-8.864 0-16-7.14-16-16v-153c0-8.864 7.136-16 16-16z"/>
  <path fill="#c7891f" d="m19 3h103c8.86 0 16 7.136 16 16v153c0 8.86-7.14 16-16 16h-103c-8.864 0-16-7.14-16-16v-153c0-8.864 7.136-16 16-16z"/>
  <path fill="url(#a)" d="m18 2h103c8.86 0 16 7.136 16 16v153c0 8.86-7.14 16-16 16h-103c-8.864 0-16-7.14-16-16v-153c0-8.864 7.136-16 16-16z"/>
 </g>
 <g fill="#f00">
  <path d="m11.677 42.368v-23.59l-5.237-.069.2526-3.622 4.9544-3.089h5.492v30.37m13.434-15.222c0-3.75-.265-6.389-.796-7.916-.520-1.541-1.4-2.311-2.641-2.311-1.24 0-2.125.770-2.656 2.311-.530 1.527-.795 4.166-.795 7.916 0 3.791.265 6.464.795 8.018.531 1.554 1.416 2.331 2.656 2.331 1.231 0 2.111-.777 2.641-2.331.531-1.554.796-4.227.796-8.018m5.777.061c0 4.97-0.8 8.807-2.401 11.513-1.601 2.693-3.872 4.039-6.813 4.039-2.951 0-5.227-1.346-6.827-4.039-1.601-2.706-2.401-6.543-2.401-11.513 0-4.983 0.8-8.821 2.401-11.514 1.6-2.706 3.876-4.059 6.827-4.059 2.941 0 5.212 1.353 6.813 4.059 1.601 2.693 2.401 6.531 2.401 11.514"/>
  <g transform="matrix(.28639 0 0 .38877 -29.608 -9.4724)">
   <path fill-rule="evenodd" transform="matrix(1.1054 0 0 1.0796 -12.014 -18.867)" d="m147.21 156.42c-2.54.01-5.33.48-8.41 1.53-33.62 19.53 11.7 51.04 30.84 78.09l.56.14c21.03-29.57 61.07-62.11 30.47-78.23-24.23-8.25-30.71 19.2-30.93 20.19-.20-.87-5.15-21.81-22.53-21.72z"/>
  </g>
  <path d="m127.19 146.63v23.59l5.24.07-.26 3.62-4.95 3.09h-5.49v-30.37m-13.44 15.22c0 3.75.27 6.39.80 7.92.52 1.54 1.4 2.31 2.64 2.31s2.12-.77 2.66-2.31c.53-1.53.79-4.17.79-7.92 0-3.79-.26-6.46-.79-8.01-.54-1.56-1.42-2.33-2.66-2.33-1.23 0-2.11.77-2.64 2.33-.53 1.55-.80 4.22-.80 8.01m-5.77-.06c0-4.97.80-8.8 2.4-11.51 1.6-2.69 3.87-4.04 6.81-4.04 2.95 0 5.23 1.35 6.83 4.04 1.6 2.71 2.4 6.54 2.4 11.51 0 4.99-.80 8.82-2.4 11.52s-3.88 4.06-6.83 4.06c-2.94 0-5.21-1.36-6.81-4.06s-2.4-6.53-2.4-11.52"/>
  <path d="m125.31 140c.80-.01 1.69-.21 2.66-.65 10.65-8.2-3.7-21.42-9.76-32.78l-.18-.05c-6.66 12.41-19.331 26.06-9.65 32.83 7.68 3.46 9.73-8.06 9.8-8.47.06.36 1.63 9.15 7.13 9.12z" fill-rule="evenodd"/>
  <g transform="matrix(.16636 0 0 .22966 40.054 16.552)">
   <path fill-rule="evenodd" transform="matrix(1.1054 0 0 1.0796 -12.014 -18.867)" d="m147.21 156.42c-2.54.01-5.33.48-8.41 1.53-33.62 19.53 11.7 51.04 30.84 78.09l.56.14c21.03-29.57 61.07-62.11 30.47-78.23-24.23-8.25-30.71 19.2-30.93 20.19-.20-.87-5.15-21.81-22.53-21.72z"/>
  </g>
  <g transform="matrix(-.16636 0 0 -.22966 97.946 170.45)">
   <path fill-rule="evenodd" transform="matrix(1.1054 0 0 1.0796 -12.014 -18.867)" d="m147.21 156.42c-2.54.01-5.33.48-8.41 1.53-33.62 19.53 11.7 51.04 30.84 78.09l.56.14c21.03-29.57 61.07-62.11 30.47-78.23-24.23-8.25-30.71 19.2-30.93 20.19-.20-.87-5.15-21.81-22.53-21.72z"/>
  </g>
 </g>
 <g transform="translate(152.04 99.567)"></g>
 <g fill="#f00">
  <g transform="matrix(.16636 0 0 .22966 19.054 5.7723)">
   <path fill-rule="evenodd" transform="matrix(1.1054 0 0 1.0796 -12.014 -18.867)" d="m147.21 156.42c-2.54.01-5.33.48-8.41 1.53-33.62 19.53 11.7 51.04 30.84 78.09l.56.14c21.03-29.57 61.07-62.11 30.47-78.23-24.23-8.25-30.71 19.2-30.93 20.19-.20-.87-5.15-21.81-22.53-21.72z"/>
  </g>
  <g transform="matrix(.16636 0 0 .22966 58.054 5.5524)">
   <path fill-rule="evenodd" transform="matrix(1.1054 0 0 1.0796 -12.014 -18.867)" d="m147.21 156.42c-2.54.01-5.33.48-8.41 1.53-33.62 19.53 11.7 51.04 30.84 78.09l.56.14c21.03-29.57 61.07-62.11 30.47-78.23-24.23-8.25-30.71 19.2-30.93 20.19-.20-.87-5.15-21.81-22.53-21.72z"/>
  </g>
  <g transform="matrix(.16636 0 0 .22966 19.694 36.772)">
   <path fill-rule="evenodd" transform="matrix(1.1054 0 0 1.0796 -12.014 -18.867)" d="m147.21 156.42c-2.54.01-5.33.48-8.41 1.53-33.62 19.53 11.7 51.04 30.84 78.09l.56.14c21.03-29.57 61.07-62.11 30.47-78.23-24.23-8.25-30.71 19.2-30.93 20.19-.20-.87-5.15-21.81-22.53-21.72z"/>
  </g>
  <g transform="matrix(.16636 0 0 .22966 59.054 35.772)">
   <path fill-rule="evenodd" transform="matrix(1.1054 0 0 1.0796 -12.014 -18.867)" d="m147.21 156.42c-2.54.01-5.33.48-8.41 1.53-33.62 19.53 11.7 51.04 30.84 78.09l.56.14c21.03-29.57 61.07-62.11 30.47-78.23-24.23-8.25-30.71 19.2-30.93 20.19-.20-.87-5.15-21.81-22.53-21.72z"/>
  </g>
  <g transform="matrix(-.16636 0 0 -.22966 78.306 154.23)">
   <path fill-rule="evenodd" transform="matrix(1.1054 0 0 1.0796 -12.014 -18.867)" d="m147.21 156.42c-2.54.01-5.33.48-8.41 1.53-33.62 19.53 11.7 51.04 30.84 78.09l.56.14c21.03-29.57 61.07-62.11 30.47-78.23-24.23-8.25-30.71 19.2-30.93 20.19-.20-.87-5.15-21.81-22.53-21.72z"/>
  </g>
  <g transform="matrix(-.16636 0 0 -.22966 78.946 181.23)">
   <path fill-rule="evenodd" transform="matrix(1.1054 0 0 1.0796 -12.014 -18.867)" d="m147.21 156.42c-2.54.01-5.33.48-8.41 1.53-33.62 19.53 11.7 51.04 30.84 78.09l.56.14c21.03-29.57 61.07-62.11 30.47-78.23-24.23-8.25-30.71 19.2-30.93 20.19-.20-.87-5.15-21.81-22.53-21.72z"/>
  </g>
  <g transform="matrix(-.16636 0 0 -.22966 116.31 181.23)">
   <path fill-rule="evenodd" transform="matrix(1.1054 0 0 1.0796 -12.014 -18.867)" d="m147.21 156.42c-2.54.01-5.33.48-8.41 1.53-33.62 19.53 11.7 51.04 30.84 78.09l.56.14c21.03-29.57 61.07-62.11 30.47-78.23-24.23-8.25-30.71 19.2-30.93 20.19-.20-.87-5.15-21.81-22.53-21.72z"/>
  </g>
  <g transform="matrix(-.16636 0 0 -.22966 117.95 153.45)">
   <path fill-rule="evenodd" transform="matrix(1.1054 0 0 1.0796 -12.014 -18.867)" d="m147.21 156.42c-2.54.01-5.33.48-8.41 1.53-33.62 19.53 11.7 51.04 30.84 78.09l.56.14c21.03-29.57 61.07-62.11 30.47-78.23-24.23-8.25-30.71 19.2-30.93 20.19-.20-.87-5.15-21.81-22.53-21.72z"/>
  </g>
 </g>
</svg>
