<?xml version="1.0" encoding="UTF-8" standalone="no"?>
<svg xmlns:rdf="http://www.w3.org/1999/02/22-rdf-syntax-ns#" xmlns="http://www.w3.org/2000/svg" sodipodi:docname="simple_s_k.svg" height="190" sodipodi:version="0.32" width="140" version="1.0" xmlns:xlink="http://www.w3.org/1999/xlink" y="0" x="0" xmlns:cc="http://web.resource.org/cc/" xmlns:dc="http://purl.org/dc/elements/1.1/" sodipodi:docbase="/home/nicu/Desktop/card_nicu_buculei_01.zip_FILES/cards/simple" xmlns:sodipodi="http://inkscape.sourceforge.net/DTD/sodipodi-0.dtd">
 <sodipodi:namedview bordercolor="#666666" pagecolor="#ffffff" borderopacity="1.0"/>
 <defs>
  <linearGradient id="c" y2="128.7" gradientUnits="userSpaceOnUse" y1="63.1" gradientTransform="translate(0 -1)" x2="109" x1="2">
   <stop stop-color="#ebf0d0" offset="0"/>
   <stop stop-color="#ffffeb" offset="1"/>
  </linearGradient>
  <linearGradient id="b">
   <stop stop-color="#c10000" offset="0"/>
   <stop stop-color="#ff433e" offset="1"/>
  </linearGradient>
  <linearGradient id="a">
   <stop stop-color="#f0eb00" offset="0"/>
   <stop stop-color="#ff0" offset="1"/>
  </linearGradient>
  <linearGradient id="l" y2="256.18" gradientUnits="userSpaceOnUse" y1="437.5" gradientTransform="matrix(.18682 0 0 .14486 -40.32 3.0493)" x2="484.8" x1="356.44">
   <stop stop-color="#ffd8c1" offset="0"/>
   <stop stop-color="#ffeded" offset="1"/>
  </linearGradient>
  <linearGradient id="k" y2="101.98" xlink:href="#a" gradientUnits="userSpaceOnUse" y1="103.13" gradientTransform="translate(-10.627 -29.706)" x2="32.217" x1="25.75"/>
  <linearGradient id="j" y2="415.54" xlink:href="#b" gradientUnits="userSpaceOnUse" y1="540.54" gradientTransform="matrix(.14486 0 0 .14486 -17.925 13.69)" x2="449.32" x1="298.99"/>
  <linearGradient id="i" y2="322.14" xlink:href="#b" gradientUnits="userSpaceOnUse" y1="346.33" gradientTransform="matrix(.14486 0 0 .14486 -17.527 16.383)" x2="312.09" x1="294.25"/>
  <linearGradient id="h" y2="51.181" gradientUnits="userSpaceOnUse" y1="58.34" gradientTransform="translate(-10.627 -29.706)" x2="60" x1="32.464">
   <stop stop-color="#f0a700" offset="0"/>
   <stop stop-color="#ffed00" offset="1"/>
  </linearGradient>
  <linearGradient id="g" y2="56.605" xlink:href="#a" gradientUnits="userSpaceOnUse" y1="63.942" gradientTransform="translate(-10.627 -29.706)" x2="60.723" x1="32.969"/>
  <linearGradient id="f" y2="103.15" xlink:href="#a" gradientUnits="userSpaceOnUse" y1="104.92" gradientTransform="translate(-10.627 -29.706)" x2="61.035" x1="58.248"/>
  <linearGradient id="e" y2="110.93" xlink:href="#a" gradientUnits="userSpaceOnUse" y1="116.76" gradientTransform="translate(-7.3067 -26.587)" x2="43.598" x1="36.313"/>
  <linearGradient id="d" y2="346.67" gradientUnits="userSpaceOnUse" y1="-31.93" gradientTransform="matrix(.18682 0 0 .14486 -40.318 3.0477)" x2="361.5" x1="688.3">
   <stop stop-color="#fff" offset="0"/>
   <stop stop-color="#fff" stop-opacity="0" offset="1"/>
  </linearGradient>
 </defs>
 <path fill-opacity=".49804" d="m21 5h103c8.86 0 16 7.136 16 16v153c0 8.86-7.14 16-16 16h-103c-8.864 0-16-7.14-16-16v-153c0-8.864 7.136-16 16-16z"/>
 <g>
  <path fill="#fff" d="m17 1h103c8.86 0 16 7.136 16 16v153c0 8.86-7.14 16-16 16h-103c-8.864 0-16-7.14-16-16v-153c0-8.864 7.136-16 16-16z"/>
  <path fill="#c7891f" d="m19 3h103c8.86 0 16 7.136 16 16v153c0 8.86-7.14 16-16 16h-103c-8.864 0-16-7.14-16-16v-153c0-8.864 7.136-16 16-16z"/>
  <path fill="url(#c)" d="m18 2h103c8.86 0 16 7.136 16 16v153c0 8.86-7.14 16-16 16h-103c-8.864 0-16-7.14-16-16v-153c0-8.864 7.136-16 16-16z"/>
 </g>
 <g>
  <path d="m10.027 12.24h6.396v10.951l9.221-10.951h7.426l-11.945 14.206 13.174 15.794h-8.007l-9.869-11.815v11.815h-6.396v-30"/>
  <path d="m128.66 176.63h-6.39v-10.95l-9.22 10.95h-7.43l11.95-14.21-13.18-15.79h8.01l9.87 11.82v-11.82h6.39v30"/>
  <path d="m20.775 48.665c-4.925 7.825-20.035 21.149-10.463 25.263 5.811 1.894 8.576-1.983 9.747-4.549h.235l-3.859 12.946 8.937-.038s-3.85-12.445-3.859-12.921h.094c.946 2.097 4.536 6.439 8.484 4.785 11.546-4.635-5.455-17.824-9.316-25.486z" sodipodi:nodetypes="cccccccccc" fill-rule="evenodd"/>
  <path d="m118.67 140c4.92-7.82 20.03-21.15 10.46-25.26-5.81-1.9-8.58 1.98-9.75 4.55h-.23l3.86-12.95-8.94.04s3.85 12.44 3.86 12.92h-.10c-.94-2.1-4.53-6.44-8.48-4.79-11.547 4.64 5.45 17.83 9.32 25.49z" sodipodi:nodetypes="cccccccccc" fill-rule="evenodd"/>
 </g>
 <g transform="matrix(1.0001 0 0 1 36.249 36.75)">
  <path d="m31.869 16.589c-1.984-1.622-3.418-2.631-5.778-5.119-1.766 7.185-4.003 6.155-7.028 3.611-3.019-3.035-2.781 11.104-8.603-1.836-1.6778.231 1.738 10.88 2.201 15.019 3.47 4.895-2.011 11.097-.275 14.598 5.737-.376.640 6.226 2.358 9.76.373 4.68 2.021 8.457 2.661 12.734 9.695 4.432-8.42 7.463-4.222 11.013.795 3.266-1.558 9.17-.560 13.581-.712 5.999-.627 11.41 6.75 11.69 12.781 2.48 25.817 2.39 37.875-2.346.135-6.988-.095-14.907-.218-21.344 3.164-3.864-7.896-6.498-10.38-9.982 3.527-4.321 2.31-12.724 9.464-13.327.760-6.259-1.413-13.959-4.741-19.847 1.071-7.661 2.343-15.295 3.063-23-7.17 14.794-4.284-3.0142-7.451 4.013-2.051 2.307-3.298-.731-4.604-.611-1.296-5.8173-3.648 7.245-5.383-3.652-2.244 9.141-2.866-6.3019-4.453 3.072l-.676 1.973z" sodipodi:nodetypes="cccccccccccccccccccccc"/>
  <path fill="url(#l)" d="m50.252 50.397c0 11.413-7.564 20.676-16.883 20.676-9.32 0-16.884-9.263-16.884-20.676s7.564-20.676 16.884-20.676c9.319 0 16.883 9.263 16.883 20.676z"/>
  <path d="m16.873 76.544l-2.045-1.427 6.78-5.53 1.515 3.207s-5.919 4.019-6.25 3.75z" sodipodi:nodetypes="ccccc" fill-rule="evenodd" fill="url(#k)"/>
  <path d="m27.343 70.211c-7.049 0-12.725 5.676-12.725 12.725v14.929c9.38 4.645 29.527 4.895 40.619 0v-14.929c0-7.049-5.675-12.725-12.724-12.725h-15.17z" sodipodi:nodetypes="ccccccc" fill="url(#j)"/>
  <path d="m13.83 41.095s1.698-14.374 20.612-14.41c19.976.820 19.997 26.496 19.997 26.496-4.853 1.577-3.505 3.258-10.747.760.791-5.699-0.5-9.879-3.925-12.815-4.269 2.238-21.564 1.504-25.937-.031z" sodipodi:nodetypes="cccccc" fill-rule="evenodd"/>
  <g transform="matrix(.14486 0 0 .097903 -17.725 27.113)">
   <path d="m353 245.86c0 11.87-9.41 21.5-21 21.5s-21-9.63-21-21.5 9.41-21.5 21-21.5 21 9.63 21 21.5z" transform="translate(-4 -6)" fill="#fff"/>
   <path d="m353 245.86c0 11.87-9.41 21.5-21 21.5s-21-9.63-21-21.5 9.41-21.5 21-21.5 21 9.63 21 21.5z" transform="matrix(.57143 0 0 .83721 129.29 34.524)" fill="#0f1fcc"/>
   <path d="m353 245.86c0 11.87-9.41 21.5-21 21.5s-21-9.63-21-21.5 9.41-21.5 21-21.5 21 9.63 21 21.5z" transform="matrix(.35714 0 0 .67442 195.93 76.048)"/>
  </g>
  <g transform="matrix(.14486 0 0 .097903 -27.814 26.772)">
   <path d="m353 245.86c0 11.87-9.41 21.5-21 21.5s-21-9.63-21-21.5 9.41-21.5 21-21.5 21 9.63 21 21.5z" transform="translate(-4 -6)" fill="#fff"/>
   <path d="m353 245.86c0 11.87-9.41 21.5-21 21.5s-21-9.63-21-21.5 9.41-21.5 21-21.5 21 9.63 21 21.5z" transform="matrix(.57143 0 0 .83721 129.29 34.524)" fill="#0f1fcc"/>
   <path d="m353 245.86c0 11.87-9.41 21.5-21 21.5s-21-9.63-21-21.5 9.41-21.5 21-21.5 21 9.63 21 21.5z" transform="matrix(.35714 0 0 .67442 195.93 76.048)"/>
  </g>
  <path d="m21.818 63.779c2.92.139 7.302.336 11.728 0-4.654-1.718-7.921-2.246-11.728 0z" sodipodi:nodetypes="ccc" fill-rule="evenodd" fill="url(#i)"/>
  <path d="m41.441 86.09l1.263.124 1.372 14.516-3.465.25.830-14.89z" sodipodi:nodetypes="ccccc" fill="#700000"/>
  <g fill-rule="evenodd">
   <path d="m23.48 51.989c-.792 1.287-1.945 3.402-1.781 4.375.164.972 1.652.762 2.442 1.323l.331-.478c-.695-.493-1.783-.008-1.918-.808-.135-.799.681-2.915 1.422-4.118l-.496-.294z" sodipodi:nodetypes="ccccccc"/>
   <path d="m25.215 64.573c1.104 2.336-.668 2.358-1.458 2.73-.614-.461-1.929-1.829-2.337-2.785-.129 5.307 1.724 8.204 3.068 9.669 1.343 1.466 9.282 2.565 13.557 0 4.275-2.564 13.239-11.336 8.362-18.517-.668.464-1.884.363-2.744.197.122 1.588-2.019 6.19-5.927 7.9s-6.723 2.123-7.752 3.656c-2.011.059-3.134-.749-2.222-2.832-.491.161-2.006-.021-2.547-.018z" sodipodi:nodetypes="ccccccccccc"/>
   <path d="m26.134 59.209s-7.085 1.824-7.505 3.087c-.421 1.262 1.052 2.735 1.052 2.735s4.63-3.858 6.594-3.788c-.141-.491.070-1.122-.141-2.034z" sodipodi:nodetypes="ccccc"/>
   <path d="m26.673 59.23s7.408.115 8.188 1.194c.779 1.079-.186 2.925-.186 2.925s-5.742-2.878-7.595-2.223c-.013-.511-.335-.963-.407-1.896z" sodipodi:nodetypes="ccccc"/>
  </g>
  <g fill-rule="evenodd">
   <path d="m15.447 23.678l2.588-6.604 5.088 6.97 3.574-8.738 4.457 8.548s3.131-8.84 3.131-8.164c0 .677 3.295 9.225 3.295 9.225l3.75-8.194 2.491 8.106 4.302-7.033 1.25 6.25v5s-27.5 1.25-30 0-4.013-5.222-3.926-5.366z" sodipodi:nodetypes="cccccccccccccc" fill="url(#h)"/>
   <path d="m16.155 35.224c10.076 2.387 22.627 2.475 33.146 0l2.386-16.528-4.596 6.54-2.828-7.424-3.536 7.248-3.624-8.309-3.27 8.22-3.713-8.043-3.27 8.75-4.861-7.601-3.624 7.867-5.569-6.895s3.094 15.822 3.359 16.175z" sodipodi:nodetypes="cccccccccccccc" fill="url(#g)"/>
   <path d="m46.649 69.784c-.672.510-2.917 2.387-2.917 2.387l9.391 6.873 2.5-2.5-8.974-6.76z" sodipodi:nodetypes="ccccc" fill="url(#f)"/>
   <path d="m32.533 86.852l-6.942-7.947h17.405l-10.463 7.947z" fill="#ff8900"/>
   <path d="m30.258 81.013l-2.754 3.397 3.939 2.753-4.278 3.064 2.852 2.832 2.893-4.924 2.99 4.823 3.043-3.295-5-2.5 4.723-3.22-3.119-2.753-2.549 4.988-2.74-5.165z" sodipodi:nodetypes="ccccccccccccc" fill="url(#e)"/>
  </g>
  <path fill="url(#d)" d="m26.688 15.292l-2.532 6.188-2.156-3.407-1.25 2.719-2.719-3.719-2.219 5.688-3-3.719s3.079 15.834 3.344 16.188c.010.002.022-.003.032 0-1.946 3.095-2.344 5.875-2.344 5.875.867.304 2.506.557 4.187.781-.966 2.603-1.531 5.456-1.531 8.5 0 4.217 1.04 8.135 2.812 11.406-.239.174-.634.340-.687 0.5-.421 1.263 1.063 2.75 1.063 2.75s.787-.562 1.187-.875c.199.270.353.587.563.844.003 2.651.517 4.604 1.187 6.125-.079.031-.172.030-.250.062l-.750-1.625-6.781 5.532 1.844 1.312c-1.185 1.934-2.063 4.088-2.063 6.531v14.907c6.012 2.975 16.36 3.925 26 3.095v.03l3.437-.25v-.03c4.135-.58 8.053-1.462 11.188-2.845v-14.907c0-1.777-.378-3.465-1.031-5l1.406-1.406-8.969-6.75c-.237.180-.570.466-1.031.844-.939-.235-1.927-.392-2.937-.406 2.438-2.535 4.709-5.75 5.062-9.125.922-1.851 1.62-3.859 2.031-6.032 1.255-.272 2.128-1.084 4.657-1.906 0 0-.041-10.27-5.126-18.031.027-.182 2.376-16.438 2.376-16.438l-2.626 3.75-.937-4.656-2.375 3.906-1.5-3.875-1.594 3.25-1.312-4.343-2.188 4.781-2.062-4.75-1.282 3.219c-.760-2.064-1.531-3.968-1.531-4.282 0-.464-1.231 3.027-2.156 5.594l-2-4.375-1.094 2.875-2.343-4.5z"/>
 </g>
</svg>
