<?xml version="1.0" encoding="UTF-8" standalone="no"?>
<svg xmlns:rdf="http://www.w3.org/1999/02/22-rdf-syntax-ns#" xmlns="http://www.w3.org/2000/svg" sodipodi:docname="d_j.svg" height="190" sodipodi:version="0.32" width="140" version="1.0" xmlns:xlink="http://www.w3.org/1999/xlink" y="0" x="0" xmlns:cc="http://web.resource.org/cc/" xmlns:dc="http://purl.org/dc/elements/1.1/" sodipodi:docbase="/home/nicu/Desktop/simple" xmlns:sodipodi="http://inkscape.sourceforge.net/DTD/sodipodi-0.dtd">
 <sodipodi:namedview bordercolor="#666666" pagecolor="#ffffff" borderopacity="1.0"/>
 <defs>
  <linearGradient id="d" y2="128.7" gradientUnits="userSpaceOnUse" y1="63.1" gradientTransform="translate(0 -1)" x2="109" x1="2">
   <stop stop-color="#ebf0d0" offset="0"/>
   <stop stop-color="#ffffeb" offset="1"/>
  </linearGradient>
  <linearGradient id="a">
   <stop stop-color="#f0a700" offset="0"/>
   <stop stop-color="#ffed00" offset="1"/>
  </linearGradient>
  <linearGradient id="b">
   <stop stop-color="#f0eb00" offset="0"/>
   <stop stop-color="#ff0" offset="1"/>
  </linearGradient>
  <linearGradient id="c">
   <stop stop-color="#0083cc" offset="0"/>
   <stop stop-color="#24a4cc" offset="1"/>
  </linearGradient>
  <linearGradient id="p" y2="256.18" gradientUnits="userSpaceOnUse" y1="437.5" gradientTransform="matrix(.18682 0 0 .14486 74.301 109.48)" x2="484.8" x1="356.44">
   <stop stop-color="#ffd8c1" offset="0"/>
   <stop stop-color="#ffeded" offset="1"/>
  </linearGradient>
  <linearGradient id="o" y2="415.54" xlink:href="#c" gradientUnits="userSpaceOnUse" y1="540.54" gradientTransform="matrix(.14486 0 0 .14486 99.215 121.46)" x2="449.32" x1="298.99"/>
  <linearGradient id="n" y2="177.03" xlink:href="#a" gradientUnits="userSpaceOnUse" y1="198.46" gradientTransform="scale(1.2554 .79653)" x2="136.65" x1="111.39"/>
  <linearGradient id="m" y2="322.14" gradientUnits="userSpaceOnUse" y1="346.33" gradientTransform="matrix(.14486 0 0 .14486 97.094 122.81)" x2="312.09" x1="294.25">
   <stop stop-color="#c10000" offset="0"/>
   <stop stop-color="#ff433e" offset="1"/>
  </linearGradient>
  <linearGradient id="l" y2="205.04" xlink:href="#a" gradientUnits="userSpaceOnUse" y1="209.42" gradientTransform="scale(1.2301 .81296)" x2="112.7" x1="108.99"/>
  <linearGradient id="k" y2="228.15" xlink:href="#a" gradientUnits="userSpaceOnUse" y1="231.76" gradientTransform="scale(1.3632 .73355)" x2="109.26" x1="106.41"/>
  <linearGradient id="j" y2="120.97" xlink:href="#b" gradientUnits="userSpaceOnUse" y1="124.16" gradientTransform="translate(43.646 73.72)" x2="105.55" x1="101.39"/>
  <linearGradient id="i" y2="103.33" gradientUnits="userSpaceOnUse" y1="108.76" gradientTransform="translate(39.501 74.756)" x2="112.89" x1="98.818">
   <stop stop-color="#008200" offset="0"/>
   <stop stop-color="#00d000" offset="1"/>
  </linearGradient>
  <linearGradient id="h" y2="62.671" xlink:href="#b" gradientUnits="userSpaceOnUse" y1="65.109" gradientTransform="translate(40.119 73.845)" x2="111.88" x1="103.56"/>
  <linearGradient id="g" y2="57.702" xlink:href="#c" gradientUnits="userSpaceOnUse" y1="62.938" gradientTransform="translate(43.646 73.72)" x2="117.14" x1="93.5"/>
  <linearGradient id="f" y2="55.781" xlink:href="#b" gradientUnits="userSpaceOnUse" y1="57.469" x2="109.5" x1="104.75"/>
  <linearGradient id="e" y2="344.42" gradientUnits="userSpaceOnUse" y1="77.395" gradientTransform="matrix(.18685 0 0 .14486 74.296 109.49)" x2="410.91" x1="652.3">
   <stop stop-color="#fff" offset="0"/>
   <stop stop-color="#fff" stop-opacity="0" offset="1"/>
  </linearGradient>
 </defs>
 <path fill-opacity=".49804" d="m21 5h103c8.86 0 16 7.136 16 16v153c0 8.86-7.14 16-16 16h-103c-8.864 0-16-7.14-16-16v-153c0-8.864 7.136-16 16-16z"/>
 <g>
  <path fill="#fff" d="m17 1h103c8.86 0 16 7.136 16 16v153c0 8.86-7.14 16-16 16h-103c-8.864 0-16-7.14-16-16v-153c0-8.864 7.136-16 16-16z"/>
  <path fill="#c7891f" d="m19 3h103c8.86 0 16 7.136 16 16v153c0 8.86-7.14 16-16 16h-103c-8.864 0-16-7.14-16-16v-153c0-8.864 7.136-16 16-16z"/>
  <path fill="url(#d)" d="m18 2h103c8.86 0 16 7.136 16 16v153c0 8.86-7.14 16-16 16h-103c-8.864 0-16-7.14-16-16v-153c0-8.864 7.136-16 16-16z"/>
 </g>
 <g fill="#f00">
  <path d="m18.683 12.234h6.396v21.359c0 2.947-.841 5.149-2.525 6.607-1.672 1.458-4.208 2.186-7.608 2.186h-1.296v-4.61h.996c1.33 0 2.332-.354 3.007-1.062.687-.708 1.03-1.748 1.03-3.121v-21.359"/>
  <path d="m120 177h-6.4v-21.36c0-2.95.84-5.15 2.53-6.61 1.67-1.45 4.2-2.18 7.6-2.18h1.3v4.61h-1c-1.33 0-2.33.35-3 1.06-.69.71-1.03 1.75-1.03 3.12v21.36"/>
  <path d="m20.41 48.665c-4.126 8.245-7.135 12.498-13.34 17.04 5.872 4.487 10.013 9.124 13.46 16.62 3.079-7.121 6.847-12.43 13.39-16.843-6.582-3.349-10.393-8.654-13.51-16.817z" fill-rule="evenodd"/>
  <path d="m118.34 106.34c-4.13 8.25-7.13 12.5-13.34 17.04 5.87 4.49 10.01 9.12 13.46 16.62 3.08-7.12 6.85-12.43 13.39-16.84-6.58-3.35-10.39-8.66-13.51-16.82z" fill-rule="evenodd"/>
 </g>
 <g transform="translate(-79.637 -71.25)">
  <path d="m147.53 125.56c-5.97 3.78-13.47-3.16-17.45 4.88-3.5 4.78 7.53 6.18.57 10.43-4.76 5.12-4.48 7.38-.37 8-1.19 5.67-.32 15.18 2.27 20.36-3.21 3.9-.80 2.56 3.55 3.38-1.35 2.15-.57 10.05-5.2 12.48-2.33 7.03-.59 14.65-1.13 21.91 11.28 4.75 24.63 5.29 35.4 2.76 4.74-.99 10.15-1.37 9.2-8.13.28-8.43 1.28-19.52-7.91-23.83-5.38-.76-7.17-4.39-3.05-9.55 3.07-8.36 6.44-4.87 11.15-6.98 4.9-1.31-7-4.54-5.43-9.98-1.52-4.25-3.38-9.25-6.43-12.71 7.68-.69 8.5-8.69 2.26-10.33-6.19-4.12-9.84 2.91-14.55-2.37-.78-.02-2.1-.51-2.88-.32z" sodipodi:nodetypes="cccccccccccccccccc"/>
  <path fill="url(#p)" d="m164.87 156.82c0 11.42-7.56 20.68-16.88 20.68s-16.88-9.26-16.88-20.68c0-11.41 7.56-20.67 16.88-20.67s16.88 9.26 16.88 20.67z"/>
  <path d="m144.48 177.98c-7.05 0-12.72 5.67-12.72 12.72v14.93c9.38 4.65 29.52 4.89 40.62 0v-14.93c0-7.05-5.68-12.72-12.73-12.72h-15.17z" sodipodi:nodetypes="ccccccc" fill="url(#o)"/>
  <path d="m129.28 147.19c2.52-4.53 5.05-13.18 19.12-13.09 21.84.64 16.63 23.38 24.45 25.84-4.85 1.57-7.3 2.92-14.54.43.79-5.7-.50-9.88-3.92-12.82-4.27 2.24-20.74 1.18-25.11-.36z" sodipodi:nodetypes="cccccc" fill-rule="evenodd" fill="url(#n)"/>
  <g transform="matrix(.14486 0 0 .097903 96.895 133.54)">
   <path d="m353 245.86c0 11.87-9.41 21.5-21 21.5s-21-9.63-21-21.5 9.41-21.5 21-21.5 21 9.63 21 21.5z" transform="translate(-4 -6)" fill="#fff"/>
   <path d="m353 245.86c0 11.87-9.41 21.5-21 21.5s-21-9.63-21-21.5 9.41-21.5 21-21.5 21 9.63 21 21.5z" transform="matrix(.57143 0 0 .83721 129.29 34.524)" fill="#0f90cc"/>
   <path d="m353 245.86c0 11.87-9.41 21.5-21 21.5s-21-9.63-21-21.5 9.41-21.5 21-21.5 21 9.63 21 21.5z" transform="matrix(.35714 0 0 .67442 195.93 76.048)"/>
  </g>
  <g transform="matrix(.14486 0 0 .097903 86.807 133.2)">
   <path d="m353 245.86c0 11.87-9.41 21.5-21 21.5s-21-9.63-21-21.5 9.41-21.5 21-21.5 21 9.63 21 21.5z" transform="translate(-4 -6)" fill="#fff"/>
   <path d="m353 245.86c0 11.87-9.41 21.5-21 21.5s-21-9.63-21-21.5 9.41-21.5 21-21.5 21 9.63 21 21.5z" transform="matrix(.57143 0 0 .83721 129.29 34.524)" fill="#0f90cc"/>
   <path d="m353 245.86c0 11.87-9.41 21.5-21 21.5s-21-9.63-21-21.5 9.41-21.5 21-21.5 21 9.63 21 21.5z" transform="matrix(.35714 0 0 .67442 195.93 76.048)"/>
  </g>
  <path d="m136.44 170.2c1.85 3.63 6.9 1.95 11.73 0-5.33.56-9 .97-11.73 0z" sodipodi:nodetypes="ccc" fill-rule="evenodd" fill="url(#m)"/>
  <path d="m158.58 193.86l1.26.12 1.37 14.51-3.46.47.83-15.1z" sodipodi:nodetypes="ccccc" fill="#004cb0"/>
  <g fill-rule="evenodd">
   <path d="m138.64 158.15c-.80 1.28-1.95 3.4-1.78 4.37.16.97 1.65.76 2.44 1.32l.33-.47c-.70-.50-1.78-.01-1.92-.81-.13-.80.68-2.92 1.42-4.12l-.49-.29z" sodipodi:nodetypes="ccccccc"/>
   <path d="m139.93 165.8c-3.8.38-6.13 3.3-8.06 5.42 0 0 6.24-3.46 8.2-3.39-.14-.49.07-1.12-.14-2.03z" sodipodi:nodetypes="cccc" fill="url(#l)"/>
   <path d="m140.8 165.66c3.38.34 9.84 2.97 10.14 5.45 0 0-7.88-4.21-9.73-3.56-.02-.51-.34-.96-.41-1.89z" sodipodi:nodetypes="cccc" fill="url(#k)"/>
   <path d="m138.27 179.65c3.63 11.22 8.7 20.95 14.46 29.54l3.69-.11c-5.74-9.21-11.73-19.6-15.15-30.81 0 0-2.04.62-3 1.38z" sodipodi:nodetypes="ccccc" fill="url(#j)"/>
   <path d="m135.69 176.13l-.25 10.25 9.31-5.69v1.44l3.69.31-.06-1.93 12.12 5.43-1.25-12.06-10.69 5.44-.25-1.81-3.75-.25v1.93l-8.87-3.06z" sodipodi:nodetypes="ccccccccccccc" fill="url(#i)"/>
   <path d="m135.49 136.03l-.53 2.6c7.66 2.23 17.9 1.88 26.76.92-.02-.36-.35-2.52-.35-2.52-8.52.88-19.42.81-25.88-1z" sodipodi:nodetypes="ccccc" fill="url(#h)"/>
   <path d="m147.74 137.59c28.52 3.84 23.48-13.39 1.57-7.62-21.15-7.46-26.23 9.83-1.57 7.62z" sodipodi:nodetypes="ccc" fill="url(#g)"/>
  </g>
  <path sodipodi:rx="3.7187500" sodipodi:ry="1.6562500" sodipodi:type="arc" d="m110.81 56.406a3.7188 1.6562 0 1 1 -7.43 0 3.7188 1.6562 0 1 1 7.43 0z" transform="translate(41.306 72.782)" sodipodi:cy="56.406250" sodipodi:cx="107.09375" fill="url(#f)"/>
  <path fill="url(#e)" d="m148.4 127.54c-1.81 0-3.14.62-3.47 1.38-12.88-2.72-17.58 4.48-9.53 7.56l-.41 2.06c-2.99 2.79-4.39 6.28-5.71 8.66.75.26 2.22.50 3.56.72-1.07 2.71-1.72 5.7-1.72 8.9 0 4.48 1.18 8.59 3.16 11.97-.85.82-1.72 1.68-2.41 2.44 0 0 1.46-.78 3-1.53 3.03 4.62 7.6 7.65 12.78 7.78l-3.09-.22v.72h-.06c-.92 0-1.83.10-2.69.28l-6.13-2.12-.12 5.53c-2.33 2.3-3.78 5.48-3.78 9.03v14.94c4.95 2.45 12.89 3.61 20.94 3.5.01.02.01.04.03.06l3.69-.09c-.05-.08-.11-.17-.16-.25.49-.04.98-.09 1.47-.13v.25l3.47-.47v-.03c4.13-.58 8.02-1.46 11.15-2.84v-14.94c0-7.04-5.65-12.7-12.68-12.72l-.44-4.09-8.03 4.09h-2.85l-.06-.47h-.22c7.93-.05 14.52-6.81 16.28-15.87 3.11.16 5.35-.66 8.51-1.69-5.49-1.72-4.74-13.32-11.23-20.37.02-.01.05 0 .07 0-.02-.30-.21-1.58-.28-2.1 10.99-2.38 5.53-10.84-9.69-7.9.08-.15.37-.23.37-.38 0-.91-1.66-1.66-3.72-1.66z"/>
 </g>
</svg>
