<?xml version="1.0" encoding="UTF-8" standalone="no"?>
<svg xmlns:rdf="http://www.w3.org/1999/02/22-rdf-syntax-ns#" xmlns="http://www.w3.org/2000/svg" sodipodi:docname="simple_c_k.svg" height="190" sodipodi:version="0.32" width="140" version="1.0" xmlns:xlink="http://www.w3.org/1999/xlink" y="0" x="0" xmlns:cc="http://web.resource.org/cc/" xmlns:dc="http://purl.org/dc/elements/1.1/" sodipodi:docbase="/home/nicu/Desktop/card_nicu_buculei_01.zip_FILES/cards/simple" xmlns:sodipodi="http://inkscape.sourceforge.net/DTD/sodipodi-0.dtd">
 <sodipodi:namedview bordercolor="#666666" pagecolor="#ffffff" showgrid="false" borderopacity="1.0"/>
 <defs>
  <linearGradient id="k" y2="128.7" gradientUnits="userSpaceOnUse" y1="63.1" gradientTransform="translate(0 -1)" x2="109" x1="2">
   <stop stop-color="#ebf0d0" offset="0"/>
   <stop stop-color="#ffffeb" offset="1"/>
  </linearGradient>
  <linearGradient id="a">
   <stop stop-color="#f0eb00" offset="0"/>
   <stop stop-color="#ff0" offset="1"/>
  </linearGradient>
  <linearGradient id="j" y2="256.18" gradientUnits="userSpaceOnUse" y1="437.5" gradientTransform="matrix(.18682 0 0 .14486 -49.32 316.05)" x2="484.8" x1="356.44">
   <stop stop-color="#ffd8c1" offset="0"/>
   <stop stop-color="#ffeded" offset="1"/>
  </linearGradient>
  <linearGradient id="i" y2="101.98" xlink:href="#a" gradientUnits="userSpaceOnUse" y1="103.13" gradientTransform="translate(-19.627 283.29)" x2="32.217" x1="25.75"/>
  <linearGradient id="h" y2="415.54" gradientUnits="userSpaceOnUse" y1="540.54" gradientTransform="matrix(.14486 0 0 .14486 -26.925 326.69)" x2="449.32" x1="298.99">
   <stop stop-color="#ff44ab" offset="0"/>
   <stop stop-color="#f6c" offset="1"/>
  </linearGradient>
  <linearGradient id="g" y2="322.14" gradientUnits="userSpaceOnUse" y1="346.33" gradientTransform="matrix(.14486 0 0 .14486 -26.527 329.38)" x2="312.09" x1="294.25">
   <stop stop-color="#c10000" offset="0"/>
   <stop stop-color="#ff433e" offset="1"/>
  </linearGradient>
  <linearGradient id="f" y2="51.181" gradientUnits="userSpaceOnUse" y1="58.34" gradientTransform="translate(-19.627 283.29)" x2="60" x1="32.464">
   <stop stop-color="#f0a700" offset="0"/>
   <stop stop-color="#ffed00" offset="1"/>
  </linearGradient>
  <linearGradient id="e" y2="56.605" xlink:href="#a" gradientUnits="userSpaceOnUse" y1="63.942" gradientTransform="translate(-19.627 283.29)" x2="60.723" x1="32.969"/>
  <linearGradient id="d" y2="103.15" xlink:href="#a" gradientUnits="userSpaceOnUse" y1="104.92" gradientTransform="translate(-19.627 283.29)" x2="61.035" x1="58.248"/>
  <linearGradient id="c" y2="110.93" xlink:href="#a" gradientUnits="userSpaceOnUse" y1="116.76" gradientTransform="translate(-16.307 286.41)" x2="43.598" x1="36.313"/>
  <linearGradient id="b" y2="346.67" gradientUnits="userSpaceOnUse" y1="-31.93" gradientTransform="matrix(.18682 0 0 .14486 -49.62 316.67)" x2="361.5" x1="688.3">
   <stop stop-color="#fff" offset="0"/>
   <stop stop-color="#fff" stop-opacity="0" offset="1"/>
  </linearGradient>
 </defs>
 <path fill-opacity=".49804" d="m21 5h103c8.86 0 16 7.136 16 16v153c0 8.86-7.14 16-16 16h-103c-8.864 0-16-7.14-16-16v-153c0-8.864 7.136-16 16-16z"/>
 <g>
  <path fill="#fff" d="m17 1h103c8.86 0 16 7.136 16 16v153c0 8.86-7.14 16-16 16h-103c-8.864 0-16-7.14-16-16v-153c0-8.864 7.136-16 16-16z"/>
  <path fill="#c7891f" d="m19 3h103c8.86 0 16 7.136 16 16v153c0 8.86-7.14 16-16 16h-103c-8.864 0-16-7.14-16-16v-153c0-8.864 7.136-16 16-16z"/>
  <path fill="url(#k)" d="m18 2h103c8.86 0 16 7.136 16 16v153c0 8.86-7.14 16-16 16h-103c-8.864 0-16-7.14-16-16v-153c0-8.864 7.136-16 16-16z"/>
 </g>
 <g>
  <path d="m10.027 12.24h6.396v10.951l9.221-10.951h7.426l-11.945 14.206 13.174 15.794h-8.007l-9.869-11.815v11.815h-6.396v-30"/>
  <path d="m128.66 176.63h-6.39v-10.95l-9.22 10.95h-7.43l11.95-14.21-13.18-15.79h8.01l9.87 11.82v-11.82h6.39v30"/>
  <path d="m20.527 48.665c-2.666 0-4.83 3.264-4.83 7.286 0 3.426 4.392 9.191 4.222 11.929-1.41.783-5.767-6.437-8.019-6.437-2.6665 0-4.83 3.263-4.83 7.285 0 4.023 2.1635 7.286 4.83 7.286 2.312 0 6.276-7.214 8.019-6.563l-2.929 12.874 7.024-.042s-3.077-12.481-3.081-12.776h.055v.014c1.707-.640 5.806 6.632 8.102 6.632 2.667 0 4.83-3.263 4.83-7.286 0-4.022-2.163-7.285-4.83-7.285-2.242 0-6.308 7.1-8.093 6.368.025-2.806 4.36-8.577 4.36-11.999 0-4.022-2.163-7.286-4.83-7.286z" sodipodi:nodetypes="cscsssccccccssscsc" fill-rule="evenodd"/>
  <path d="m117.42 139.96c2.66 0 4.83-3.26 4.83-7.28 0-3.43-4.39-9.19-4.22-11.93 1.41-.79 5.76 6.43 8.02 6.43 2.66 0 4.83-3.26 4.83-7.28s-2.17-7.29-4.83-7.29c-2.32 0-6.28 7.22-8.02 6.57l2.93-12.88-7.03.04s3.08 12.49 3.08 12.78h-.05v-.01c-1.71.64-5.81-6.64-8.1-6.64-2.67 0-4.83 3.27-4.83 7.29s2.16 7.29 4.83 7.29c2.24 0 6.3-7.1 8.09-6.37-.03 2.8-4.36 8.57-4.36 12 0 4.02 2.16 7.28 4.83 7.28z" sodipodi:nodetypes="cscsssccccccssscsc" fill-rule="evenodd"/>
 </g>
 <g transform="matrix(1.0001 0 0 1 45.25 -276.25)">
  <path d="m22.869 329.59c-1.984-1.62-3.418-2.63-5.778-5.12-1.766 7.19-4.003 6.15-7.028 3.61-3.0187-3.03-2.7812 11.1-8.6028-1.83-1.678.23 1.7377 10.87 2.2013 15.01 3.4691 4.9-2.0115 11.1-.2758 14.6 5.7369-.37.6404 6.23 2.3582 9.76.3734 4.68 2.0213 8.46 2.6607 12.74 9.6954 4.43-8.4196 7.46-4.2211 11.01.7945 3.27-1.5587 9.17-.5602 13.58-.7124 6-.6270 11.41 6.7497 11.69 12.781 2.48 25.817 2.39 37.875-2.35.135-6.98-.095-14.9-.218-21.34 3.164-3.86-7.896-6.5-10.38-9.98 3.527-4.32 2.31-12.73 9.464-13.33.760-6.26-1.413-13.96-4.741-19.85 1.071-7.66 2.343-15.29 3.063-23-7.17 14.8-4.284-3.01-7.451 4.02-2.051 2.3-3.298-.73-4.604-.61-1.296-5.82-3.648 7.24-5.383-3.66-2.244 9.14-2.866-6.3-4.453 3.08l-.676 1.97z" sodipodi:nodetypes="cccccccccccccccccccccc"/>
  <path fill="url(#j)" d="m41.252 363.4c0 11.41-7.564 20.67-16.883 20.67-9.32 0-16.884-9.26-16.884-20.67 0-11.42 7.564-20.68 16.884-20.68 9.319 0 16.883 9.26 16.883 20.68z"/>
  <path d="m7.8733 389.54l-2.0455-1.42 6.7802-5.53 1.515 3.2s-5.9186 4.02-6.2497 3.75z" sodipodi:nodetypes="ccccc" fill-rule="evenodd" fill="url(#i)"/>
  <path d="m18.343 383.21c-7.049 0-12.724 5.68-12.724 12.73l-.0005 14.93c9.3795 4.64 29.526 4.89 40.618 0l.001-14.93c0-7.05-5.675-12.73-12.724-12.73h-15.17z" sodipodi:nodetypes="ccccccc" fill="url(#h)"/>
  <path d="m4.8299 354.1s1.698-14.38 20.612-14.41c19.976.81 19.997 26.49 19.997 26.49-4.853 1.58-3.505 3.26-10.747.76.791-5.7-0.5-9.88-3.925-12.81-4.269 2.23-21.564 1.5-25.937-.03z" sodipodi:nodetypes="cccccc" fill-rule="evenodd" fill="#6d2b00"/>
  <g transform="matrix(.14486 0 0 .097903 -26.725 340.11)">
   <path d="m353 245.86c0 11.87-9.41 21.5-21 21.5s-21-9.63-21-21.5 9.41-21.5 21-21.5 21 9.63 21 21.5z" transform="translate(-4 -6)" fill="#fff"/>
   <path d="m353 245.86c0 11.87-9.41 21.5-21 21.5s-21-9.63-21-21.5 9.41-21.5 21-21.5 21 9.63 21 21.5z" transform="matrix(.57143 0 0 .83721 129.29 34.524)" fill="#b67870"/>
   <path d="m353 245.86c0 11.87-9.41 21.5-21 21.5s-21-9.63-21-21.5 9.41-21.5 21-21.5 21 9.63 21 21.5z" transform="matrix(.35714 0 0 .67442 195.93 76.048)"/>
  </g>
  <g transform="matrix(.14486 0 0 .097903 -36.814 339.77)">
   <path d="m353 245.86c0 11.87-9.41 21.5-21 21.5s-21-9.63-21-21.5 9.41-21.5 21-21.5 21 9.63 21 21.5z" transform="translate(-4 -6)" fill="#fff"/>
   <path d="m353 245.86c0 11.87-9.41 21.5-21 21.5s-21-9.63-21-21.5 9.41-21.5 21-21.5 21 9.63 21 21.5z" transform="matrix(.57143 0 0 .83721 129.29 34.524)" fill="#b67870"/>
   <path d="m353 245.86c0 11.87-9.41 21.5-21 21.5s-21-9.63-21-21.5 9.41-21.5 21-21.5 21 9.63 21 21.5z" transform="matrix(.35714 0 0 .67442 195.93 76.048)"/>
  </g>
  <path d="m12.818 376.78c2.92.14 7.302.33 11.728 0-4.654-1.72-7.921-2.25-11.728 0z" sodipodi:nodetypes="ccc" fill-rule="evenodd" fill="url(#g)"/>
  <path d="m32.441 399.09l1.263.12 1.372 14.52-3.465.25.830-14.89z" sodipodi:nodetypes="ccccc" fill="#b30d95"/>
  <path d="m14.48 364.99c-.792 1.29-1.945 3.4-1.781 4.37.164.98 1.652.77 2.442 1.33l.331-.48c-.695-.49-1.783-.01-1.918-.81s.681-2.91 1.422-4.12l-.496-.29z" sodipodi:nodetypes="ccccccc" fill-rule="evenodd"/>
  <g fill="#6d2b00" fill-rule="evenodd">
   <path d="m16.215 377.57c1.104 2.34-.668 2.36-1.458 2.73-.614-.46-1.929-1.83-2.337-2.78-.129 5.31 1.724 8.2 3.068 9.67 1.343 1.46 9.282 2.56 13.557 0 4.275-2.57 13.239-11.34 8.362-18.52-.668.46-1.884.36-2.744.20.122 1.58-2.019 6.19-5.927 7.9s-6.723 2.12-7.752 3.65c-2.011.06-3.134-.75-2.222-2.83-.491.16-2.006-.02-2.547-.02z" sodipodi:nodetypes="ccccccccccc"/>
   <path d="m17.134 372.21s-7.085 1.82-7.5055 3.09c-.4209 1.26 1.0525 2.73 1.0525 2.73s4.63-3.86 6.594-3.79c-.141-.49.070-1.12-.141-2.03z" sodipodi:nodetypes="ccccc"/>
   <path d="m17.673 372.23s7.408.12 8.188 1.19c.779 1.08-.186 2.93-.186 2.93s-5.742-2.88-7.595-2.22c-.013-.51-.335-.97-.407-1.9z" sodipodi:nodetypes="ccccc"/>
  </g>
  <g fill-rule="evenodd">
   <path d="m6.4466 336.68l2.5884-6.61 5.088 6.97 3.574-8.73 4.457 8.54s3.131-8.84 3.131-8.16 3.295 9.23 3.295 9.23l3.75-8.2 2.491 8.11 4.302-7.04 1.25 6.25v5s-27.5 1.25-30 0c-2.4997-1.25-4.0135-5.22-3.9264-5.36z" sodipodi:nodetypes="cccccccccccccc" fill="url(#f)"/>
   <path d="m7.155 348.22c10.076 2.39 22.627 2.48 33.146 0l2.386-16.52-4.596 6.54-2.828-7.43-3.536 7.25-3.624-8.31-3.27 8.22-3.713-8.04-3.27 8.75-4.861-7.6-3.6243 7.86-5.5684-6.89s3.0935 15.82 3.3587 16.17z" sodipodi:nodetypes="cccccccccccccc" fill="url(#e)"/>
   <path d="m37.649 382.78c-.672.51-2.917 2.39-2.917 2.39l9.391 6.87 2.5-2.5-8.974-6.76z" sodipodi:nodetypes="ccccc" fill="url(#d)"/>
   <path d="m23.533 399.85l-6.942-7.95h17.405l-10.463 7.95z" fill="#ff8900"/>
   <path d="m21.258 394.01l-2.754 3.4 3.939 2.75-4.278 3.07 2.852 2.83 2.893-4.93 2.99 4.83 3.043-3.3-5-2.5 4.723-3.22-3.119-2.75-2.549 4.99-2.74-5.17z" sodipodi:nodetypes="ccccccccccccc" fill="url(#c)"/>
  </g>
  <path fill="url(#b)" d="m17.386 328.92l-2.532 6.19-2.156-3.41-1.25 2.72-2.7186-3.72-2.2188 5.69-3-3.72s3.0786 15.83 3.3438 16.19c.0096 0 .0216-.01.0312 0-1.9455 3.09-2.3437 5.87-2.3437 5.87.8673.30 2.506.56 4.1875.78-.9662 2.61-1.5313 5.46-1.5313 8.5 0 4.22 1.04 8.14 2.8129 11.41-.2402.17-.6345.34-.6879.50-.4209 1.26 1.0629 2.75 1.0629 2.75s.787-.56 1.187-.88c.199.27.353.59.563.85.003 2.65.517 4.6 1.187 6.12-.079.03-.172.03-.250.06l-.750-1.62-6.7811 5.53 1.8437 1.31c-1.1847 1.94-2.0625 4.09-2.0625 6.53v14.91c6.0119 2.98 16.36 3.93 26 3.09v.04l3.438-.25v-.04c4.134-.57 8.052-1.46 11.187-2.84v-14.91c0-1.77-.378-3.46-1.031-5l1.406-1.4-8.969-6.75c-.237.18-.570.46-1.031.84-.939-.23-1.927-.39-2.937-.40 2.438-2.54 4.709-5.75 5.062-9.13.922-1.85 1.62-3.86 2.031-6.03 1.255-.27 2.128-1.09 4.657-1.91 0 0-.041-10.27-5.125-18.03.026-.18 2.375-16.44 2.375-16.44l-2.625 3.75-.938-4.65-2.375 3.9-1.5-3.87-1.594 3.25-1.312-4.34-2.188 4.78-2.062-4.75-1.281 3.22c-.761-2.07-1.532-3.97-1.532-4.29 0-.46-1.231 3.03-2.156 5.6l-2-4.38-1.094 2.88-2.343-4.5z"/>
 </g>
</svg>
