<?xml version="1.0" encoding="UTF-8" standalone="no"?>
<svg xmlns:rdf="http://www.w3.org/1999/02/22-rdf-syntax-ns#" xmlns="http://www.w3.org/2000/svg" sodipodi:docname="simple_s_q.svg" height="190" sodipodi:version="0.32" width="140" version="1.0" xmlns:xlink="http://www.w3.org/1999/xlink" y="0" x="0" xmlns:cc="http://web.resource.org/cc/" xmlns:dc="http://purl.org/dc/elements/1.1/" sodipodi:docbase="/home/nicu/Desktop/card_nicu_buculei_01.zip_FILES/cards/simple" xmlns:sodipodi="http://inkscape.sourceforge.net/DTD/sodipodi-0.dtd">
 <sodipodi:namedview bordercolor="#666666" pagecolor="#ffffff" borderopacity="1.0"/>
 <defs>
  <linearGradient id="c" y2="128.7" gradientUnits="userSpaceOnUse" y1="63.1" gradientTransform="translate(0 -1)" x2="109" x1="2">
   <stop stop-color="#ebf0d0" offset="0"/>
   <stop stop-color="#ffffeb" offset="1"/>
  </linearGradient>
  <linearGradient id="a">
   <stop stop-color="#c10000" offset="0"/>
   <stop stop-color="#ff433e" offset="1"/>
  </linearGradient>
  <linearGradient id="b">
   <stop stop-color="#ffd8c1" offset="0"/>
   <stop stop-color="#ffeded" offset="1"/>
  </linearGradient>
  <linearGradient id="j" y2="256.18" xlink:href="#b" gradientUnits="userSpaceOnUse" y1="437.5" gradientTransform="matrix(.18682 0 0 .14486 -10.161 37.837)" x2="484.8" x1="356.44"/>
  <linearGradient id="i" y2="415.54" xlink:href="#a" gradientUnits="userSpaceOnUse" y1="540.54" gradientTransform="matrix(.14486 0 0 .14486 15.234 50.477)" x2="449.32" x1="298.99"/>
  <linearGradient id="h" y2="85.362" gradientUnits="userSpaceOnUse" y1="146.36" x2="698" x1="632">
   <stop stop-color="#f0a700" offset="0"/>
   <stop stop-color="#ffed00" offset="1"/>
  </linearGradient>
  <linearGradient id="g" y2="160.36" gradientUnits="userSpaceOnUse" y1="210.36" x2="708" x1="653">
   <stop stop-color="#f0eb00" offset="0"/>
   <stop stop-color="#ff0" offset="1"/>
  </linearGradient>
  <linearGradient id="f" y2="322.14" xlink:href="#a" gradientUnits="userSpaceOnUse" y1="346.33" gradientTransform="matrix(.14486 0 0 .14486 12.632 49.826)" x2="312.09" x1="294.25"/>
  <linearGradient id="e" y2="113.29" xlink:href="#b" gradientUnits="userSpaceOnUse" y1="122.48" gradientTransform="translate(2.1875 -5.4887)" x2="65.8" x1="53.127"/>
  <linearGradient id="d" y2="98.109" gradientUnits="userSpaceOnUse" y1="46.291" gradientTransform="translate(159.19 -14.489)" x2="-101.91" x1="-21.764">
   <stop stop-color="#fff" offset="0"/>
   <stop stop-color="#fff" stop-opacity="0" offset="1"/>
  </linearGradient>
 </defs>
 <path fill-opacity=".49804" d="m21 5h103c8.86 0 16 7.136 16 16v153c0 8.86-7.14 16-16 16h-103c-8.864 0-16-7.14-16-16v-153c0-8.864 7.136-16 16-16z"/>
 <g>
  <path fill="#fff" d="m17 1h103c8.86 0 16 7.136 16 16v153c0 8.86-7.14 16-16 16h-103c-8.864 0-16-7.14-16-16v-153c0-8.864 7.136-16 16-16z"/>
  <path fill="#c7891f" d="m19 3h103c8.86 0 16 7.136 16 16v153c0 8.86-7.14 16-16 16h-103c-8.864 0-16-7.14-16-16v-153c0-8.864 7.136-16 16-16z"/>
  <path fill="url(#c)" d="m18 2h103c8.86 0 16 7.136 16 16v153c0 8.86-7.14 16-16 16h-103c-8.864 0-16-7.14-16-16v-153c0-8.864 7.136-16 16-16z"/>
 </g>
 <g>
  <path d="m22.039 42.783h-.499c-4.087 0-7.265-1.367-9.536-4.1-2.2703-2.732-3.4056-6.537-3.4056-11.413 0-4.862 1.1297-8.674 3.3896-11.433 2.27-2.76 5.393-4.139 9.37-4.139 4.02 0 7.149 1.366 9.386 4.099 2.248 2.732 3.373 6.557 3.373 11.473 0 3.376-.599 6.283-1.795 8.721-1.185 2.438-2.896 4.273-5.133 5.506l5 6.751h-6.097l-4.053-5.465m-.681-25.479c-1.95 0-3.462.870-4.536 2.612-1.074 1.741-1.611 4.193-1.611 7.354 0 3.215.526 5.68 1.578 7.395 1.052 1.701 2.575 2.552 4.569 2.552 1.96 0 3.477-.871 4.552-2.613 1.074-1.741 1.611-4.186 1.611-7.334 0-3.161-.537-5.613-1.611-7.354-1.075-1.742-2.592-2.612-4.552-2.612"/>
  <path d="m116.65 146.09h.50c4.09 0 7.27 1.36 9.54 4.1 2.27 2.73 3.4 6.53 3.4 11.41 0 4.86-1.13 8.67-3.39 11.43-2.27 2.76-5.39 4.14-9.37 4.14-4.02 0-7.15-1.36-9.38-4.1-2.25-2.73-3.38-6.55-3.38-11.47 0-3.38.60-6.28 1.8-8.72 1.18-2.44 2.89-4.27 5.13-5.51l-5-6.75h6.1l4.05 5.47m.68 25.48c1.95 0 3.46-.87 4.54-2.62 1.07-1.74 1.61-4.19 1.61-7.35 0-3.22-.53-5.68-1.58-7.39s-2.57-2.56-4.57-2.56c-1.96 0-3.48.87-4.55 2.62-1.07 1.74-1.61 4.18-1.61 7.33 0 3.16.54 5.61 1.61 7.35 1.07 1.75 2.59 2.62 4.55 2.62"/>
  <path d="m20.645 48.665c-4.925 7.825-20.035 21.149-10.463 25.263 5.811 1.894 8.576-1.983 9.747-4.549h.235l-3.859 12.946 8.937-.038s-3.85-12.445-3.859-12.921h.094c.946 2.097 4.536 6.439 8.484 4.785 11.546-4.635-5.455-17.824-9.316-25.486z" sodipodi:nodetypes="cccccccccc" fill-rule="evenodd"/>
  <path d="m118.04 140c4.92-7.82 20.03-21.15 10.46-25.26-5.81-1.9-8.58 1.98-9.75 4.55h-.23l3.86-12.95-8.94.04s3.85 12.44 3.86 12.92h-.10c-.94-2.1-4.53-6.44-8.48-4.79-11.547 4.64 5.45 17.83 9.32 25.49z" sodipodi:nodetypes="cccccccccc" fill-rule="evenodd"/>
 </g>
 <g transform="translate(0 -.0000072061)">
  <path d="m55.838 46.057c.248 8.389-8.775-11.842-4.95 1.018-.178 4.945 5.745 12.646 1.643 15.655-5.489 3.201-9.415 8.682-11.281 14.719 6.724-.955 2.783 4.807 3.489 8.903.205 7.749 5.801 16.128 12.775 19.898-8.466 1.63-11.54 8.88-10.669 15.89-5.694 3.83-.009 8.99-.851 12.53 1.62 3.99 8.94 3.76 13.068 4.94 10.522.87 21.441.54 31.344-3.5-.824-9.43 4.237-22.27-8.289-28.65 6.224-.11 14.099-1.57 20.133-2.89-6.864-2.7-18.925-5.574-16.759-15.304 1.534-11.465-2.273-26.823-15.429-28.973 1.029-6.323 2.549-12.59 2.5-19.032-5.677 14.512-4.546-8.82-7.218 1.218-2.054 7.803-3.523-10.376-5.182 2.978-1.973-2.184-3.701-14.039-3.852-2.276l-.472 2.876z" sodipodi:nodetypes="ccccccccccccccccccc"/>
  <path fill="url(#j)" d="m80.411 85.184c0 11.414-7.564 20.676-16.884 20.676s-16.884-9.262-16.884-20.676c0-11.413 7.564-20.676 16.884-20.676s16.884 9.263 16.884 20.676z"/>
  <path fill="url(#i)" d="m60.487 107.01c-7.049 0-12.719 5.67-12.719 12.72v3.19c-1.177 1.83-2.333 3.55-2.094 4.97.177 1.04 1.093 1.89 2.094 2.62v4.13c9.38 4.65 29.532 4.89 40.625 0v-14.91c0-7.05-5.669-12.72-12.719-12.72h-15.187z"/>
  <path d="m43.988 75.883s3.897-14.131 20.612-14.411c16.434-.279 20.82 13.883 18.967 29.833-1.713 8.501 11.901 12.785 11.901 12.785-4.853 1.58-16.452 3.01-23.694.52 6.288-4.726 1.046-27.352-2.379-30.288-4.269 3.388-21.034 3.095-25.407 1.561z" sodipodi:nodetypes="ccccccc" fill-rule="evenodd"/>
  <g transform="matrix(.14486 0 0 .14486 12.632 49.826)">
   <path d="m353 245.86c0 11.87-9.41 21.5-21 21.5s-21-9.63-21-21.5 9.41-21.5 21-21.5 21 9.63 21 21.5z" transform="translate(-4 -6)" fill="#fff"/>
   <path d="m353 245.86c0 11.87-9.41 21.5-21 21.5s-21-9.63-21-21.5 9.41-21.5 21-21.5 21 9.63 21 21.5z" transform="matrix(.57143 0 0 .83721 129.29 34.524)" fill="#1828ce"/>
   <path d="m353 245.86c0 11.87-9.41 21.5-21 21.5s-21-9.63-21-21.5 9.41-21.5 21-21.5 21 9.63 21 21.5z" transform="matrix(.35714 0 0 .67442 195.93 76.048)"/>
  </g>
  <g fill-rule="evenodd" transform="matrix(.11980 0 0 .097053 -17.653 42.178)">
   <path d="m618 99.362l10-85 38 115s34-123 34-119c0 4.002 23 91 23 91l-18 70h-77l-10-71.998z" sodipodi:nodetypes="cccccccc" fill="url(#h)"/>
   <path d="m589 51.362l36 179c27 10.67 60 9.34 84 1l25-178-44 89-23-119-23 118-55-89.998z" sodipodi:nodetypes="cccccccc" fill="url(#g)"/>
  </g>
  <g transform="matrix(.14486 0 0 .14486 2.543 49.322)">
   <path d="m353 245.86c0 11.87-9.41 21.5-21 21.5s-21-9.63-21-21.5 9.41-21.5 21-21.5 21 9.63 21 21.5z" transform="translate(-4 -6)" fill="#fff"/>
   <path d="m353 245.86c0 11.87-9.41 21.5-21 21.5s-21-9.63-21-21.5 9.41-21.5 21-21.5 21 9.63 21 21.5z" transform="matrix(.57143 0 0 .83721 129.29 34.524)" fill="#1828ce"/>
   <path d="m353 245.86c0 11.87-9.41 21.5-21 21.5s-21-9.63-21-21.5 9.41-21.5 21-21.5 21 9.63 21 21.5z" transform="matrix(.35714 0 0 .67442 195.93 76.048)"/>
  </g>
  <path d="m51.977 97.223c3.53 4.417 6.935 2.897 11.727 0-4.287-.252-7.188-1.513-11.727 0z" sodipodi:nodetypes="ccc" fill-rule="evenodd" fill="url(#f)"/>
  <path d="m74.599 122.88l1.264.12 1.371 14.51-3.465.25.830-14.88z" sodipodi:nodetypes="ccccc" fill="#700000"/>
  <g fill-rule="evenodd">
   <path d="m57.969 128.32l-.813.57c2.044 2.96 3.742 5.67 5.887 6.05 2.146.39 4.673-1.55 6.707-2.46l-.406-.91c-1.956.88-3.844 1.43-5.688 1.1s-3.741-1.53-5.687-4.35z" sodipodi:nodetypes="ccccccc" fill="#700000"/>
   <path d="m53.638 86.776c-.792 1.287-1.734 2.491-1.57 3.463.164.973 1.442 1.675 2.232 2.235l.331-.478c-.695-.493-1.152-1.13-1.287-1.93-.135-.799.050-1.792.790-2.996l-.496-.294z" sodipodi:nodetypes="ccccccc"/>
   <path d="m58.474 107.55s-6.318 11.77-4.882 20.39c5.456-9.77 12.635-19.24 16.656-20.97-1.436-.57-10.338-.28-11.774.58z" sodipodi:nodetypes="cccc" fill="url(#e)"/>
   <path d="m45.586 127.81c.279 1.65 2.451 2.85 3.794 3.8l.327-.27c-1.181-.84-1.764-.95-1.994-2.31-.229-1.36-2.407-2.87-2.127-1.22z" sodipodi:nodetypes="ccccc" fill="#700000"/>
  </g>
  <path fill="url(#d)" d="m66.219 43.199c0-.243-1.37 3.727-2.563 7.187l-1.406-5.937-1.594 6.656-3.062-7.531-1.219 8.187-3.469-4.594 3.906 15.782c-10.095 3.595-12.812 12.937-12.812 12.937.889.312 2.514.530 4.219.719-.983 2.621-1.563 5.522-1.563 8.594 0 11.413 7.555 20.651 16.875 20.651 3.864 0 7.373-1.66 10.219-4.34-.467 1.31-1.066 2.42-1.969 3.09 7.242 2.5 18.835 1.08 23.688-.50 0 0-13.619-4.306-11.907-12.808 1.723-14.819-2.07-27.917-15.781-29.5l2.5-14.437-1.843 3c-.684-2.107-2.219-6.841-2.219-7.156zm-5.719 63.811c-7.049 0-12.719 5.67-12.719 12.72v3.19c-1.177 1.83-2.333 3.55-2.093 4.97.176 1.04 1.092 1.89 2.093 2.62v4.16c6.012 2.98 16.361 3.92 26 3.09 1.149-.10 2.321-.09 3.438-.25 4.134-.58 8.052-1.46 11.187-2.84v-14.94c0-7.05-5.701-12.72-12.75-12.72h-15.156z"/>
 </g>
</svg>
