<?xml version="1.0" encoding="UTF-8" standalone="no"?>
<svg xmlns:rdf="http://www.w3.org/1999/02/22-rdf-syntax-ns#" xmlns="http://www.w3.org/2000/svg" sodipodi:docname="h_9.svg" height="190" sodipodi:version="0.32" width="140" version="1.0" xmlns:xlink="http://www.w3.org/1999/xlink" y="0" x="0" xmlns:cc="http://web.resource.org/cc/" xmlns:dc="http://purl.org/dc/elements/1.1/" sodipodi:docbase="/home/nicu/Desktop/simple" xmlns:sodipodi="http://inkscape.sourceforge.net/DTD/sodipodi-0.dtd">
 <sodipodi:namedview bordercolor="#666666" pagecolor="#ffffff" borderopacity="1.0"/>
 <defs>
  <linearGradient id="a" y2="128.7" gradientUnits="userSpaceOnUse" y1="63.1" gradientTransform="translate(0 -1)" x2="109" x1="2">
   <stop stop-color="#ebf0d0" offset="0"/>
   <stop stop-color="#ffffeb" offset="1"/>
  </linearGradient>
 </defs>
 <path fill-opacity=".49804" d="m21 5h103c8.86 0 16 7.136 16 16v153c0 8.86-7.14 16-16 16h-103c-8.864 0-16-7.14-16-16v-153c0-8.864 7.136-16 16-16z"/>
 <g>
  <path fill="#fff" d="m17 1h103c8.86 0 16 7.136 16 16v153c0 8.86-7.14 16-16 16h-103c-8.864 0-16-7.14-16-16v-153c0-8.864 7.136-16 16-16z"/>
  <path fill="#c7891f" d="m19 3h103c8.86 0 16 7.136 16 16v153c0 8.86-7.14 16-16 16h-103c-8.864 0-16-7.14-16-16v-153c0-8.864 7.136-16 16-16z"/>
  <path fill="url(#a)" d="m18 2h103c8.86 0 16 7.136 16 16v153c0 8.86-7.14 16-16 16h-103c-8.864 0-16-7.14-16-16v-153c0-8.864 7.136-16 16-16z"/>
 </g>
 <g fill="#f00">
  <path d="m12.404 41.335v-5.546c1.019.576 1.994 1.011 2.924 1.306.931.281 1.85.422 2.758.422 1.905 0 3.389-.636 4.452-1.909 1.064-1.286 1.689-3.188 1.878-5.707-.754.670-1.556 1.173-2.409 1.507-.853.335-1.778.503-2.775.503-2.536 0-4.585-.891-6.147-2.673-1.55-1.795-2.325-4.152-2.325-7.073 0-3.228.863-5.813 2.591-7.756 1.739-1.942 4.065-2.913 6.978-2.913 3.234 0 5.737 1.319 7.509 3.958s2.658 6.37 2.658 11.192c0 4.957-1.035 8.855-3.107 11.695-2.071 2.826-4.912 4.24-8.522 4.24-1.163 0-2.276-.108-3.339-.322-1.064-.201-2.105-.509-3.124-.924m7.892-14.448c1.118 0 1.96-.435 2.525-1.306.565-.884.847-2.203.847-3.958 0-1.741-.282-3.054-.847-3.938-.565-.885-1.407-1.327-2.525-1.327-1.119 0-1.961.442-2.526 1.327-.565.884-.847 2.197-.847 3.938 0 1.755.282 3.074.847 3.958.565.871 1.407 1.306 2.526 1.306"/>
  <g transform="matrix(.28639 0 0 .38877 -29.608 -9.4724)">
   <path fill-rule="evenodd" transform="matrix(1.1054 0 0 1.0796 -12.014 -18.867)" d="m147.21 156.42c-2.54.01-5.33.48-8.41 1.53-33.62 19.53 11.7 51.04 30.84 78.09l.56.14c21.03-29.57 61.07-62.11 30.47-78.23-24.23-8.25-30.71 19.2-30.93 20.19-.20-.87-5.15-21.81-22.53-21.72z"/>
  </g>
  <path d="m126.46 147.67v5.54c-1.02-.57-1.99-1.01-2.92-1.31-.93-.28-1.85-.42-2.76-.42-1.91 0-3.39.64-4.45 1.91-1.07 1.29-1.69 3.19-1.88 5.71.75-.67 1.56-1.17 2.41-1.51.85-.33 1.78-.50 2.77-.50 2.54 0 4.59.89 6.15 2.67 1.55 1.8 2.33 4.15 2.33 7.07 0 3.23-.87 5.82-2.6 7.76s-4.06 2.91-6.97 2.91c-3.24 0-5.74-1.32-7.51-3.95-1.77-2.64-2.66-6.37-2.66-11.2 0-4.95 1.03-8.85 3.11-11.69 2.07-2.83 4.91-4.24 8.52-4.24 1.16 0 2.27.11 3.34.32 1.06.20 2.1.51 3.12.93m-7.89 14.44c-1.12 0-1.96.44-2.53 1.31-.56.88-.84 2.2-.84 3.96 0 1.74.28 3.05.84 3.94.57.88 1.41 1.32 2.53 1.32s1.96-.44 2.53-1.32c.56-.89.84-2.2.84-3.94 0-1.76-.28-3.08-.84-3.96-.57-.87-1.41-1.31-2.53-1.31"/>
  <g transform="matrix(-.28639 0 0 -.38877 168.47 198.31)">
   <path fill-rule="evenodd" transform="matrix(1.1054 0 0 1.0796 -12.014 -18.867)" d="m147.21 156.42c-2.54.01-5.33.48-8.41 1.53-33.62 19.53 11.7 51.04 30.84 78.09l.56.14c21.03-29.57 61.07-62.11 30.47-78.23-24.23-8.25-30.71 19.2-30.93 20.19-.20-.87-5.15-21.81-22.53-21.72z"/>
  </g>
 </g>
 <g transform="translate(352.5 189.5)">
  <g fill="#f00" transform="matrix(.16636 0 0 .22966 -313.45 -138.73)">
   <path fill-rule="evenodd" transform="matrix(1.1054 0 0 1.0796 -12.014 -18.867)" d="m147.21 156.42c-2.54.01-5.33.48-8.41 1.53-33.62 19.53 11.7 51.04 30.84 78.09l.56.14c21.03-29.57 61.07-62.11 30.47-78.23-24.23-8.25-30.71 19.2-30.93 20.19-.20-.87-5.15-21.81-22.53-21.72z"/>
  </g>
  <g fill="#f00">
   <g transform="matrix(.16636 0 0 .22966 -333.45 -183.73)">
    <path fill-rule="evenodd" transform="matrix(1.1054 0 0 1.0796 -12.014 -18.867)" d="m147.21 156.42c-2.54.01-5.33.48-8.41 1.53-33.62 19.53 11.7 51.04 30.84 78.09l.56.14c21.03-29.57 61.07-62.11 30.47-78.23-24.23-8.25-30.71 19.2-30.93 20.19-.20-.87-5.15-21.81-22.53-21.72z"/>
   </g>
   <g transform="matrix(.16636 0 0 .22966 -294.45 -183.95)">
    <path fill-rule="evenodd" transform="matrix(1.1054 0 0 1.0796 -12.014 -18.867)" d="m147.21 156.42c-2.54.01-5.33.48-8.41 1.53-33.62 19.53 11.7 51.04 30.84 78.09l.56.14c21.03-29.57 61.07-62.11 30.47-78.23-24.23-8.25-30.71 19.2-30.93 20.19-.20-.87-5.15-21.81-22.53-21.72z"/>
   </g>
   <g transform="matrix(.16636 0 0 .22966 -332.81 -152.73)">
    <path fill-rule="evenodd" transform="matrix(1.1054 0 0 1.0796 -12.014 -18.867)" d="m147.21 156.42c-2.54.01-5.33.48-8.41 1.53-33.62 19.53 11.7 51.04 30.84 78.09l.56.14c21.03-29.57 61.07-62.11 30.47-78.23-24.23-8.25-30.71 19.2-30.93 20.19-.20-.87-5.15-21.81-22.53-21.72z"/>
   </g>
   <g transform="matrix(.16636 0 0 .22966 -293.45 -153.73)">
    <path fill-rule="evenodd" transform="matrix(1.1054 0 0 1.0796 -12.014 -18.867)" d="m147.21 156.42c-2.54.01-5.33.48-8.41 1.53-33.62 19.53 11.7 51.04 30.84 78.09l.56.14c21.03-29.57 61.07-62.11 30.47-78.23-24.23-8.25-30.71 19.2-30.93 20.19-.20-.87-5.15-21.81-22.53-21.72z"/>
   </g>
   <g transform="matrix(-.16636 0 0 -.22966 -274.19 -35.272)">
    <path fill-rule="evenodd" transform="matrix(1.1054 0 0 1.0796 -12.014 -18.867)" d="m147.21 156.42c-2.54.01-5.33.48-8.41 1.53-33.62 19.53 11.7 51.04 30.84 78.09l.56.14c21.03-29.57 61.07-62.11 30.47-78.23-24.23-8.25-30.71 19.2-30.93 20.19-.20-.87-5.15-21.81-22.53-21.72z"/>
   </g>
   <g transform="matrix(-.16636 0 0 -.22966 -273.55 -8.2723)">
    <path fill-rule="evenodd" transform="matrix(1.1054 0 0 1.0796 -12.014 -18.867)" d="m147.21 156.42c-2.54.01-5.33.48-8.41 1.53-33.62 19.53 11.7 51.04 30.84 78.09l.56.14c21.03-29.57 61.07-62.11 30.47-78.23-24.23-8.25-30.71 19.2-30.93 20.19-.20-.87-5.15-21.81-22.53-21.72z"/>
   </g>
   <g transform="matrix(-.16636 0 0 -.22966 -236.19 -8.2723)">
    <path fill-rule="evenodd" transform="matrix(1.1054 0 0 1.0796 -12.014 -18.867)" d="m147.21 156.42c-2.54.01-5.33.48-8.41 1.53-33.62 19.53 11.7 51.04 30.84 78.09l.56.14c21.03-29.57 61.07-62.11 30.47-78.23-24.23-8.25-30.71 19.2-30.93 20.19-.20-.87-5.15-21.81-22.53-21.72z"/>
   </g>
   <g transform="matrix(-.16636 0 0 -.22966 -234.55 -36.052)">
    <path fill-rule="evenodd" transform="matrix(1.1054 0 0 1.0796 -12.014 -18.867)" d="m147.21 156.42c-2.54.01-5.33.48-8.41 1.53-33.62 19.53 11.7 51.04 30.84 78.09l.56.14c21.03-29.57 61.07-62.11 30.47-78.23-24.23-8.25-30.71 19.2-30.93 20.19-.20-.87-5.15-21.81-22.53-21.72z"/>
   </g>
  </g>
 </g>
</svg>
