<?xml version="1.0" encoding="UTF-8" standalone="no"?>
<svg xmlns:rdf="http://www.w3.org/1999/02/22-rdf-syntax-ns#" xmlns="http://www.w3.org/2000/svg" sodipodi:docname="d_8.svg" height="190" sodipodi:version="0.32" width="140" version="1.0" xmlns:xlink="http://www.w3.org/1999/xlink" y="0" x="0" xmlns:cc="http://web.resource.org/cc/" xmlns:dc="http://purl.org/dc/elements/1.1/" sodipodi:docbase="/home/nicu/Desktop/simple" xmlns:sodipodi="http://inkscape.sourceforge.net/DTD/sodipodi-0.dtd">
 <sodipodi:namedview bordercolor="#666666" pagecolor="#ffffff" borderopacity="1.0"/>
 <defs>
  <linearGradient id="a" y2="128.7" gradientUnits="userSpaceOnUse" y1="63.1" gradientTransform="translate(0 -1)" x2="109" x1="2">
   <stop stop-color="#ebf0d0" offset="0"/>
   <stop stop-color="#ffffeb" offset="1"/>
  </linearGradient>
 </defs>
 <path fill-opacity=".49804" d="m21 5h103c8.86 0 16 7.136 16 16v153c0 8.86-7.14 16-16 16h-103c-8.864 0-16-7.14-16-16v-153c0-8.864 7.136-16 16-16z"/>
 <g>
  <path fill="#fff" d="m17 1h103c8.86 0 16 7.136 16 16v153c0 8.86-7.14 16-16 16h-103c-8.864 0-16-7.14-16-16v-153c0-8.864 7.136-16 16-16z"/>
  <path fill="#c7891f" d="m19 3h103c8.86 0 16 7.136 16 16v153c0 8.86-7.14 16-16 16h-103c-8.864 0-16-7.14-16-16v-153c0-8.864 7.136-16 16-16z"/>
  <path fill="url(#a)" d="m18 2h103c8.86 0 16 7.136 16 16v153c0 8.86-7.14 16-16 16h-103c-8.864 0-16-7.14-16-16v-153c0-8.864 7.136-16 16-16z"/>
 </g>
 <g fill="#f00" transform="translate(351.5 184.5)">
  <path d="m-363.91-141.56c-1.31 0-2.33.36-3.03 1.08-.71.72-1.06 1.74-1.06 3.08s.35 2.37 1.06 3.09c.70.71 1.72 1.06 3.03 1.06 1.3 0 2.3-.35 3-1.06.69-.72 1.04-1.75 1.04-3.09 0-1.35-.35-2.38-1.04-3.08-.70-.72-1.7-1.08-3-1.08m-5.13-2.32c-1.66-.50-2.91-1.27-3.75-2.3-.84-1.04-1.26-2.33-1.26-3.88 0-2.3.86-4.05 2.58-5.26 1.71-1.2 4.24-1.81 7.56-1.81 3.3 0 5.81.61 7.53 1.81 1.72 1.19 2.57 2.95 2.57 5.26 0 1.55-.42 2.84-1.27 3.88-.85 1.03-2.09 1.8-3.75 2.3 1.85.51 3.25 1.34 4.18 2.5.95 1.15 1.43 2.6 1.43 4.35 0 2.7-.90 4.75-2.71 6.14-1.79 1.38-4.45 2.06-7.98 2.06-3.54 0-6.22-.68-8.04-2.06-1.8-1.39-2.7-3.44-2.7-6.14 0-1.75.47-3.2 1.4-4.35.95-1.16 2.36-1.99 4.21-2.5m1.64-5.46c0 1.08.30 1.91.90 2.5.61.58 1.47.88 2.59.88 1.1 0 1.94-.30 2.54-.88.60-.59.90-1.42.90-2.5 0-1.09-.30-1.92-.90-2.49-.60-.58-1.44-.88-2.54-.88-1.12 0-1.98.30-2.59.88-.60.59-.90 1.41-.90 2.49" transform="scale(.90928 1.0998)"/>
  <path d="m256.77 21.959c-1.32 0-2.33.359-3.04 1.078-.70.719-1.06 1.748-1.06 3.088 0 1.339.36 2.369 1.06 3.087.71.707 1.72 1.06 3.04 1.06 1.3 0 2.3-.353 2.99-1.06.70-.718 1.04-1.748 1.04-3.087 0-1.352-.34-2.382-1.04-3.088-.69-.719-1.69-1.078-2.99-1.078m-5.14-2.32c-1.65-0.5-2.9-1.267-3.74-2.303-.84-1.035-1.26-2.326-1.26-3.873 0-2.302.86-4.0561 2.57-5.262 1.72-1.2058 4.24-1.8087 7.57-1.8088 3.3.0001 5.81.6030 7.52 1.8088 1.72 1.1937 2.58 2.948 2.58 5.262 0 1.547-.43 2.838-1.28 3.873-.84 1.036-2.09 1.803-3.74 2.303 1.85.511 3.24 1.345 4.18 2.503.95 1.145 1.43 2.594 1.43 4.348 0 2.704-.91 4.75-2.71 6.139-1.79 1.376-4.45 2.065-7.98 2.065-3.55 0-6.23-.689-8.04-2.065-1.8-1.389-2.71-3.435-2.71-6.139 0-1.754.47-3.203 1.41-4.348.95-1.158 2.35-1.992 4.2-2.503m1.65-5.463c0 1.084.30 1.918.89 2.503.61.584 1.48.877 2.6.877 1.09 0 1.94-.293 2.54-.877.59-.585.89-1.419.89-2.503s-.30-1.913-.89-2.485c-.60-.585-1.45-.877-2.54-.877-1.12 0-1.99.292-2.6.877-.59.584-.89 1.413-.89 2.485" transform="scale(-.90928 -1.0998)"/>
 </g>
 <g fill="#f00" fill-rule="evenodd">
  <path d="m20.41 48.665c-4.126 8.245-7.135 12.498-13.34 17.04 5.872 4.487 10.013 9.124 13.46 16.62 3.079-7.121 6.847-12.43 13.39-16.843-6.582-3.349-10.393-8.654-13.51-16.817z"/>
  <path d="m49.13 36.22c-2.403 4.845-4.155 7.344-7.77 10.013 3.421 2.637 5.832 5.362 7.84 9.767 1.794-4.185 3.988-7.304 7.8-9.898-3.834-1.968-6.054-5.085-7.87-9.882z"/>
  <path d="m90.13 36.22c-2.403 4.845-4.155 7.344-7.77 10.013 3.421 2.637 5.832 5.362 7.84 9.767 1.794-4.185 3.988-7.304 7.8-9.898-3.834-1.968-6.054-5.085-7.87-9.882z"/>
  <path d="m48.77 71.22c-2.403 4.845-4.155 7.344-7.77 10.013 3.421 2.637 5.832 5.362 7.84 9.767 1.794-4.185 3.988-7.304 7.8-9.898-3.834-1.968-6.054-5.085-7.87-9.882z"/>
  <path d="m88.13 70.22c-2.403 4.845-4.155 7.344-7.77 10.013 3.421 2.637 5.832 5.362 7.84 9.767 1.794-4.185 3.988-7.304 7.8-9.898-3.834-1.968-6.054-5.085-7.87-9.882z"/>
  <path d="m89.77 100c-2.403 4.85-4.155 7.34-7.77 10.01 3.421 2.64 5.832 5.37 7.84 9.77 1.794-4.18 3.988-7.3 7.8-9.9-3.834-1.97-6.054-5.08-7.87-9.88z"/>
  <path d="m48.13 100c-2.403 4.85-4.155 7.34-7.77 10.01 3.421 2.64 5.832 5.37 7.84 9.77 1.794-4.18 3.988-7.3 7.8-9.9-3.834-1.97-6.054-5.08-7.87-9.88z"/>
  <path d="m49.13 130c-2.403 4.85-4.155 7.34-7.77 10.01 3.421 2.64 5.832 5.37 7.84 9.77 1.794-4.18 3.988-7.3 7.8-9.9-3.834-1.97-6.054-5.08-7.87-9.88z"/>
  <path d="m90.13 130.22c-2.403 4.85-4.155 7.34-7.77 10.01 3.421 2.64 5.832 5.37 7.84 9.77 1.794-4.18 3.988-7.3 7.8-9.9-3.834-1.97-6.054-5.08-7.87-9.88z"/>
  <path d="m118.34 106.34c-4.13 8.25-7.13 12.5-13.34 17.04 5.87 4.49 10.01 9.12 13.46 16.62 3.08-7.12 6.85-12.43 13.39-16.84-6.58-3.35-10.39-8.66-13.51-16.82z"/>
 </g>
</svg>
