<?xml version="1.0" encoding="UTF-8" standalone="no"?>
<svg xmlns:rdf="http://www.w3.org/1999/02/22-rdf-syntax-ns#" xmlns="http://www.w3.org/2000/svg" sodipodi:docname="simple_h_j.svg" height="190" sodipodi:version="0.32" width="140" version="1.0" xmlns:xlink="http://www.w3.org/1999/xlink" y="0" x="0" xmlns:cc="http://web.resource.org/cc/" xmlns:dc="http://purl.org/dc/elements/1.1/" sodipodi:docbase="/home/nicu/Desktop/card_nicu_buculei_01.zip_FILES/cards/simple" xmlns:sodipodi="http://inkscape.sourceforge.net/DTD/sodipodi-0.dtd">
 <sodipodi:namedview bordercolor="#666666" pagecolor="#ffffff" borderopacity="1.0"/>
 <defs>
  <linearGradient id="c" y2="128.7" gradientUnits="userSpaceOnUse" y1="63.1" gradientTransform="translate(0 -1)" x2="109" x1="2">
   <stop stop-color="#ebf0d0" offset="0"/>
   <stop stop-color="#ffffeb" offset="1"/>
  </linearGradient>
  <linearGradient id="a">
   <stop stop-color="#f0eb00" offset="0"/>
   <stop stop-color="#ff0" offset="1"/>
  </linearGradient>
  <linearGradient id="b">
   <stop stop-color="#008200" offset="0"/>
   <stop stop-color="#00d000" offset="1"/>
  </linearGradient>
  <linearGradient id="d" y2="55.781" xlink:href="#a" gradientUnits="userSpaceOnUse" y1="57.469" x2="109.5" x1="104.75"/>
  <linearGradient id="l" y2="344.42" gradientUnits="userSpaceOnUse" y1="77.395" gradientTransform="matrix(.18685 0 0 .14486 -5.3384 38.237)" x2="410.91" x1="652.3">
   <stop stop-color="#fff" offset="0"/>
   <stop stop-color="#fff" stop-opacity="0" offset="1"/>
  </linearGradient>
  <linearGradient id="k" y2="57.702" xlink:href="#b" gradientUnits="userSpaceOnUse" y1="62.938" gradientTransform="translate(-35.991 2.4696)" x2="117.14" x1="93.5"/>
  <linearGradient id="j" y2="62.671" xlink:href="#a" gradientUnits="userSpaceOnUse" y1="65.109" gradientTransform="translate(-39.518 2.5946)" x2="111.88" x1="103.56"/>
  <linearGradient id="i" y2="281.23" gradientUnits="userSpaceOnUse" y1="284.84" gradientTransform="translate(-76.637 -172.25)" x2="144.19" x1="137.88">
   <stop stop-color="#0083cc" offset="0"/>
   <stop stop-color="#24a4cc" offset="1"/>
  </linearGradient>
  <linearGradient id="h" y2="120.97" xlink:href="#a" gradientUnits="userSpaceOnUse" y1="124.16" gradientTransform="translate(-35.991 2.4696)" x2="105.55" x1="101.39"/>
  <linearGradient id="g" y2="322.14" gradientUnits="userSpaceOnUse" y1="346.33" gradientTransform="matrix(.14486 0 0 .14486 17.456 51.558)" x2="312.09" x1="294.25">
   <stop stop-color="#c10000" offset="0"/>
   <stop stop-color="#ff433e" offset="1"/>
  </linearGradient>
  <linearGradient id="f" y2="415.54" xlink:href="#b" gradientUnits="userSpaceOnUse" y1="540.54" gradientTransform="matrix(.14486 0 0 .14486 19.577 50.205)" x2="449.32" x1="298.99"/>
  <linearGradient id="e" y2="256.18" gradientUnits="userSpaceOnUse" y1="437.5" gradientTransform="matrix(.18682 0 0 .14486 -5.3365 38.225)" x2="484.8" x1="356.44">
   <stop stop-color="#ffd8c1" offset="0"/>
   <stop stop-color="#ffeded" offset="1"/>
  </linearGradient>
 </defs>
 <path fill-opacity=".49804" d="m21 5h103c8.86 0 16 7.136 16 16v153c0 8.86-7.14 16-16 16h-103c-8.864 0-16-7.14-16-16v-153c0-8.864 7.136-16 16-16z"/>
 <g>
  <path fill="#fff" d="m17 1h103c8.86 0 16 7.136 16 16v153c0 8.86-7.14 16-16 16h-103c-8.864 0-16-7.14-16-16v-153c0-8.864 7.136-16 16-16z"/>
  <path fill="#c7891f" d="m19 3h103c8.86 0 16 7.136 16 16v153c0 8.86-7.14 16-16 16h-103c-8.864 0-16-7.14-16-16v-153c0-8.864 7.136-16 16-16z"/>
  <path fill="url(#c)" d="m18 2h103c8.86 0 16 7.136 16 16v153c0 8.86-7.14 16-16 16h-103c-8.864 0-16-7.14-16-16v-153c0-8.864 7.136-16 16-16z"/>
 </g>
 <g fill="#f00">
  <path d="m18.924 11.994h6.396v21.358c0 2.947-.842 5.15-2.525 6.608-1.673 1.457-4.209 2.186-7.609 2.186h-1.296v-4.611h.997c1.329 0 2.331-.354 3.007-1.061.686-.708 1.03-1.748 1.03-3.122v-21.358"/>
  <g transform="matrix(.28639 0 0 .38877 -29.608 -9.4724)">
   <path fill-rule="evenodd" transform="matrix(1.1054 0 0 1.0796 -12.014 -18.867)" d="m147.21 156.42c-2.54.01-5.33.48-8.41 1.53-33.62 19.53 11.7 51.04 30.84 78.09l.56.14c21.03-29.57 61.07-62.11 30.47-78.23-24.23-8.25-30.71 19.2-30.93 20.19-.20-.87-5.15-21.81-22.53-21.72z"/>
  </g>
  <path d="m119.94 177.01h-6.39v-21.36c0-2.95.84-5.15 2.52-6.61 1.67-1.46 4.21-2.19 7.61-2.19h1.3v4.61h-1c-1.33 0-2.33.36-3.01 1.07-.68.70-1.03 1.74-1.03 3.12v21.36"/>
  <g transform="matrix(-.28643 0 0 -.38877 168.48 198.31)">
   <path fill-rule="evenodd" transform="matrix(1.1054 0 0 1.0796 -12.014 -18.867)" d="m147.21 156.42c-2.54.01-5.33.48-8.41 1.53-33.62 19.53 11.7 51.04 30.84 78.09l.56.14c21.03-29.57 61.07-62.11 30.47-78.23-24.23-8.25-30.71 19.2-30.93 20.19-.20-.87-5.15-21.81-22.53-21.72z"/>
  </g>
 </g>
 <g>
  <path d="m67.892 54.313c-5.972 3.774-13.47-3.165-17.453 4.88-3.495 4.782 7.53 6.173.570 10.424-4.757 5.124-4.477 7.38-.370 8.007-1.182 5.664-.320 15.171 2.275 20.356-3.212 3.9-.805 2.56 3.552 3.38-1.354 2.15-.576 10.05-5.207 12.48-2.331 7.03-.583 14.65-1.125 21.91 11.275 4.75 24.625 5.29 35.403 2.76 4.738-.99 10.145-1.37 9.191-8.13.283-8.43 1.282-19.52-7.91-23.83-5.374-.76-7.165-4.39-3.041-9.554 3.063-8.358 6.44-4.861 11.144-6.975 4.901-1.311-7.002-4.539-5.43-9.977-1.522-4.254-3.383-9.258-6.43-12.711 7.679-.690 8.502-8.698 2.26-10.332-6.186-4.122-9.837 2.914-14.544-2.375-.780-.013-2.103-.504-2.885-.313z" sodipodi:nodetypes="cccccccccccccccccc"/>
  <path fill="url(#e)" d="m85.235 85.573c0 11.413-7.564 20.677-16.883 20.677-9.32 0-16.884-9.264-16.884-20.677 0-11.414 7.564-20.677 16.884-20.677 9.319 0 16.883 9.263 16.883 20.677z"/>
  <path d="m64.845 106.73c-7.049 0-12.725 5.67-12.725 12.72v14.93c9.38 4.65 29.526 4.89 40.619 0v-14.93c0-7.05-5.676-12.72-12.725-12.72h-15.169z" sodipodi:nodetypes="ccccccc" fill="url(#f)"/>
  <path d="m49.638 75.941c2.527-4.528 5.054-13.18 19.127-13.09 21.84.639 16.63 23.381 24.451 25.835-4.853 1.578-7.299 2.929-14.541.430.792-5.698-0.5-9.878-3.925-12.815-4.269 2.239-20.739 1.175-25.112-.360z" sodipodi:nodetypes="cccccc" fill-rule="evenodd" fill="#8d0000"/>
  <g transform="matrix(.14486 0 0 .097903 17.258 62.288)">
   <path d="m353 245.86c0 11.87-9.41 21.5-21 21.5s-21-9.63-21-21.5 9.41-21.5 21-21.5 21 9.63 21 21.5z" transform="translate(-4 -6)" fill="#fff"/>
   <path d="m353 245.86c0 11.87-9.41 21.5-21 21.5s-21-9.63-21-21.5 9.41-21.5 21-21.5 21 9.63 21 21.5z" transform="matrix(.57143 0 0 .83721 129.29 34.524)" fill="#04cd04"/>
   <path d="m353 245.86c0 11.87-9.41 21.5-21 21.5s-21-9.63-21-21.5 9.41-21.5 21-21.5 21 9.63 21 21.5z" transform="matrix(.35714 0 0 .67442 195.93 76.048)"/>
  </g>
  <g transform="matrix(.14486 0 0 .097903 7.1694 61.948)">
   <path d="m353 245.86c0 11.87-9.41 21.5-21 21.5s-21-9.63-21-21.5 9.41-21.5 21-21.5 21 9.63 21 21.5z" transform="translate(-4 -6)" fill="#fff"/>
   <path d="m353 245.86c0 11.87-9.41 21.5-21 21.5s-21-9.63-21-21.5 9.41-21.5 21-21.5 21 9.63 21 21.5z" transform="matrix(.57143 0 0 .83721 129.29 34.524)" fill="#0ecf0e"/>
   <path d="m353 245.86c0 11.87-9.41 21.5-21 21.5s-21-9.63-21-21.5 9.41-21.5 21-21.5 21 9.63 21 21.5z" transform="matrix(.35714 0 0 .67442 195.93 76.048)"/>
  </g>
  <path d="m56.801 98.955c1.849 3.625 6.901 1.945 11.728 0-5.324.559-8.993.969-11.728 0z" sodipodi:nodetypes="ccc" fill-rule="evenodd" fill="url(#g)"/>
  <path d="m78.942 122.61l1.264.12 1.371 14.51-3.465.47.830-15.1z" sodipodi:nodetypes="ccccc" fill="#005a00"/>
  <g fill-rule="evenodd">
   <path d="m58.999 86.897c-.792 1.287-1.945 3.402-1.781 4.375.164.972 1.652.762 2.442 1.323l.331-.478c-.695-.493-1.783-.008-1.918-.808-.135-.799.681-2.915 1.422-4.118l-.496-.294z" sodipodi:nodetypes="ccccccc"/>
   <path d="m60.293 94.55c-3.804.378-6.134 3.301-8.061 5.42 0 0 6.237-3.456 8.201-3.386-.140-.491.070-1.122-.140-2.034z" sodipodi:nodetypes="cccc" fill="#8d0000"/>
   <path d="m61.161 94.405c3.382.346 9.846 2.97 10.146 5.46 0 0-7.885-4.218-9.739-3.563-.013-.511-.335-.964-.407-1.897z" sodipodi:nodetypes="cccc" fill="#8d0000"/>
   <path d="m58.633 108.4c3.633 11.22 8.704 20.95 14.462 29.54l3.686-.11c-5.738-9.21-11.725-19.6-15.151-30.81 0 0-2.036.62-2.997 1.38z" sodipodi:nodetypes="ccccc" fill="url(#h)"/>
   <path d="m56.051 104.88l-.250 10.25 9.313-5.69v1.44l3.687.31-.062-1.93 12.124 5.43-1.25-12.06-10.687 5.44-.250-1.81-3.75-.25v1.93l-8.875-3.06z" sodipodi:nodetypes="ccccccccccccc" fill="url(#i)"/>
   <path d="m55.856 64.782l-.537 2.6c7.667 2.229 17.908 1.877 26.762.919-.018-.359-.350-2.519-.350-2.519-8.52.875-19.416.813-25.875-1z" sodipodi:nodetypes="ccccc" fill="url(#j)"/>
   <path d="m68.106 66.345c28.521 3.833 23.48-13.396 1.563-7.625-21.146-7.459-26.229 9.833-1.563 7.625z" sodipodi:nodetypes="ccc" fill="url(#k)"/>
  </g>
  <path sodipodi:rx="3.7187500" sodipodi:ry="1.6562500" sodipodi:type="arc" d="m110.81 56.406a3.7188 1.6562 0 1 1 -7.43 0 3.7188 1.6562 0 1 1 7.43 0z" transform="translate(-38.331 1.5321)" sodipodi:cy="56.406250" sodipodi:cx="107.09375" fill="url(#d)"/>
  <path fill="url(#l)" d="m68.768 56.294c-1.811 0-3.138.611-3.47 1.375-12.881-2.722-17.582 4.484-9.532 7.562l-.406 2.063c-2.999 2.789-4.393 6.278-5.72 8.656.751.264 2.221.497 3.563.719-1.067 2.711-1.719 5.696-1.719 8.906 0 4.471 1.184 8.585 3.157 11.969-.850.816-1.712 1.673-2.407 2.437 0 0 1.458-.778 3.001-1.531 3.027 4.62 7.597 7.65 12.783 7.78l-3.095-.22v.72h-.062c-.916 0-1.828.10-2.688.28l-6.126-2.12-.125 5.53c-2.329 2.3-3.782 5.48-3.782 9.03v14.94c4.958 2.45 12.894 3.61 20.941 3.5.013.02.018.04.031.06l3.688-.09c-.050-.08-.106-.17-.156-.25.495-.04.977-.09 1.469-.13v.25l3.469-.47v-.03c4.135-.58 8.022-1.46 11.158-2.84v-14.94c0-7.04-5.654-12.7-12.689-12.72l-.438-4.09-8.032 4.09h-2.845l-.062-.47h-.219c7.926-.05 14.518-6.814 16.284-15.872 3.102.162 5.344-.662 8.501-1.688-5.484-1.721-4.734-13.318-11.22-20.375.020-.002.042.002.062 0-.015-.297-.202-1.574-.281-2.094 10.991-2.385 5.538-10.841-9.689-7.906.086-.140.375-.223.375-.375 0-.914-1.666-1.656-3.719-1.656z"/>
 </g>
</svg>
