<?xml version="1.0" encoding="UTF-8" standalone="no"?>
<svg xmlns:rdf="http://www.w3.org/1999/02/22-rdf-syntax-ns#" xmlns="http://www.w3.org/2000/svg" sodipodi:docname="simple_s_7.svg" height="190" sodipodi:version="0.32" width="140" version="1.0" xmlns:xlink="http://www.w3.org/1999/xlink" y="0" x="0" xmlns:cc="http://web.resource.org/cc/" xmlns:dc="http://purl.org/dc/elements/1.1/" sodipodi:docbase="/home/nicu/Desktop/card_nicu_buculei_01.zip_FILES/cards/simple" xmlns:sodipodi="http://inkscape.sourceforge.net/DTD/sodipodi-0.dtd">
 <sodipodi:namedview bordercolor="#666666" pagecolor="#ffffff" borderopacity="1.0"/>
 <defs>
  <linearGradient id="a" y2="128.7" gradientUnits="userSpaceOnUse" y1="63.1" gradientTransform="translate(0 -1)" x2="109" x1="2">
   <stop stop-color="#ebf0d0" offset="0"/>
   <stop stop-color="#ffffeb" offset="1"/>
  </linearGradient>
 </defs>
 <path fill-opacity=".49804" d="m21 5h103c8.86 0 16 7.136 16 16v153c0 8.86-7.14 16-16 16h-103c-8.864 0-16-7.14-16-16v-153c0-8.864 7.136-16 16-16z"/>
 <g>
  <path fill="#fff" d="m17 1h103c8.86 0 16 7.136 16 16v153c0 8.86-7.14 16-16 16h-103c-8.864 0-16-7.14-16-16v-153c0-8.864 7.136-16 16-16z"/>
  <path fill="#c7891f" d="m19 3h103c8.86 0 16 7.136 16 16v153c0 8.86-7.14 16-16 16h-103c-8.864 0-16-7.14-16-16v-153c0-8.864 7.136-16 16-16z"/>
  <path fill="url(#a)" d="m18 2h103c8.86 0 16 7.136 16 16v153c0 8.86-7.14 16-16 16h-103c-8.864 0-16-7.14-16-16v-153c0-8.864 7.136-16 16-16z"/>
 </g>
 <g transform="matrix(.59314 0 0 .23894 -103.05 9.256)">
  <path stroke-linejoin="round" d="m260.18 149.6c-4.84 19.24-19.68 52-10.28 62.12 5.71 4.66 8.42-4.88 9.57-11.19h.23l-3.79 31.84 8.78-.10s-3.78-30.6-3.79-31.77h.09c.93 5.16 4.46 15.83 8.34 11.77 11.34-11.4-5.36-43.83-9.15-62.67z" fill-rule="evenodd" sodipodi:nodetypes="cccccccccc" stroke-width=".75890"/>
 </g>
 <g transform="matrix(-.59314 0 0 -.23894 207.41 177.52)">
  <path stroke-linejoin="round" d="m260.18 149.6c-4.84 19.24-19.68 52-10.28 62.12 5.71 4.66 8.42-4.88 9.57-11.19h.23l-3.79 31.84 8.78-.10s-3.78-30.6-3.79-31.77h.09c.93 5.16 4.46 15.83 8.34 11.77 11.34-11.4-5.36-43.83-9.15-62.67z" fill-rule="evenodd" sodipodi:nodetypes="cccccccccc" stroke-width=".75890"/>
 </g>
 <g transform="matrix(.59314 0 0 .23894 -67.053 9.256)">
  <path stroke-linejoin="round" d="m260.18 149.6c-4.84 19.24-19.68 52-10.28 62.12 5.71 4.66 8.42-4.88 9.57-11.19h.23l-3.79 31.84 8.78-.10s-3.78-30.6-3.79-31.77h.09c.93 5.16 4.46 15.83 8.34 11.77 11.34-11.4-5.36-43.83-9.15-62.67z" fill-rule="evenodd" sodipodi:nodetypes="cccccccccc" stroke-width=".75890"/>
 </g>
 <g transform="matrix(-.59314 0 0 -.23894 242.41 177.52)">
  <path stroke-linejoin="round" d="m260.18 149.6c-4.84 19.24-19.68 52-10.28 62.12 5.71 4.66 8.42-4.88 9.57-11.19h.23l-3.79 31.84 8.78-.10.04-3.25s-3.82-27.35-3.83-28.52h.09c.93 5.16 4.46 15.83 8.34 11.77 11.34-11.4-5.36-43.83-9.15-62.67z" fill-rule="evenodd" sodipodi:nodetypes="ccccccccccc" stroke-width=".75890"/>
 </g>
 <g>
  <path d="m20.645 48.665c-4.925 7.825-20.035 21.149-10.463 25.263 5.811 1.894 8.576-1.983 9.747-4.549h.235l-3.859 12.946 8.937-.038s-3.85-12.445-3.859-12.921h.094c.946 2.097 4.536 6.439 8.484 4.785 11.546-4.635-5.455-17.824-9.316-25.486z" sodipodi:nodetypes="cccccccccc" fill-rule="evenodd"/>
  <path d="m11.275 11.998h18.69v4.36l-9.669 25.64h-6.23l9.154-24.313h-11.945v-5.687"/>
  <path d="m118.13 140c4.92-7.82 20.03-21.15 10.46-25.26-5.81-1.9-8.58 1.98-9.75 4.55h-.23l3.86-12.95-8.94.04s3.85 12.44 3.86 12.92h-.10c-.94-2.1-4.53-6.44-8.48-4.79-11.547 4.64 5.45 17.83 9.32 25.49z" sodipodi:nodetypes="cccccccccc" fill-rule="evenodd"/>
  <path d="m127.5 177h-18.69v-4.36l9.66-25.64h6.23l-9.15 24.31h11.95v5.69"/>
 </g>
 <g transform="matrix(.59314 0 0 .23894 -84.412 24.256)">
  <path stroke-linejoin="round" d="m260.18 149.6c-4.84 19.24-19.68 52-10.28 62.12 5.71 4.66 8.42-4.88 9.57-11.19h.23l-3.79 31.84 8.78-.10s-3.78-30.6-3.79-31.77h.09c.93 5.16 4.46 15.83 8.34 11.77 11.34-11.4-5.36-43.83-9.15-62.67z" fill-rule="evenodd" sodipodi:nodetypes="cccccccccc" stroke-width=".75890"/>
 </g>
 <g transform="matrix(-.59314 0 0 -.23894 224.41 162.52)">
  <path stroke-linejoin="round" d="m260.18 149.6c-4.84 19.24-19.68 52-10.28 62.12 5.71 4.66 8.42-4.88 9.57-11.19h.23l-3.79 31.84 8.78-.10s-3.78-30.6-3.79-31.77h.09c.93 5.16 4.46 15.83 8.34 11.77 11.34-11.4-5.36-43.83-9.15-62.67z" fill-rule="evenodd" sodipodi:nodetypes="cccccccccc" stroke-width=".75890"/>
 </g>
 <g transform="matrix(.59314 0 0 .23894 -84.053 47.256)">
  <path stroke-linejoin="round" d="m260.18 149.6c-4.84 19.24-19.68 52-10.28 62.12 5.71 4.66 8.42-4.88 9.57-11.19h.23l-3.79 31.84 8.78-.10s-3.78-30.6-3.79-31.77h.09c.93 5.16 4.46 15.83 8.34 11.77 11.34-11.4-5.36-43.83-9.15-62.67z" fill-rule="evenodd" sodipodi:nodetypes="cccccccccc" stroke-width=".75890"/>
 </g>
</svg>
