<?xml version="1.0" encoding="UTF-8" standalone="no"?>
<svg xmlns:rdf="http://www.w3.org/1999/02/22-rdf-syntax-ns#" xmlns="http://www.w3.org/2000/svg" sodipodi:docname="simple_c_8.svg" height="190" sodipodi:version="0.32" width="140" version="1.0" xmlns:xlink="http://www.w3.org/1999/xlink" y="0" x="0" xmlns:cc="http://web.resource.org/cc/" xmlns:dc="http://purl.org/dc/elements/1.1/" sodipodi:docbase="/home/nicu/Desktop/card_nicu_buculei_01.zip_FILES/cards/simple" xmlns:sodipodi="http://inkscape.sourceforge.net/DTD/sodipodi-0.dtd">
 <sodipodi:namedview bordercolor="#666666" pagecolor="#ffffff" borderopacity="1.0"/>
 <defs>
  <linearGradient id="a" y2="128.7" gradientUnits="userSpaceOnUse" y1="63.1" gradientTransform="translate(0 -1)" x2="109" x1="2">
   <stop stop-color="#ebf0d0" offset="0"/>
   <stop stop-color="#ffffeb" offset="1"/>
  </linearGradient>
 </defs>
 <path fill-opacity=".49804" d="m21 5h103c8.86 0 16 7.136 16 16v153c0 8.86-7.14 16-16 16h-103c-8.864 0-16-7.14-16-16v-153c0-8.864 7.136-16 16-16z"/>
 <g>
  <path fill="#fff" d="m17 1h103c8.86 0 16 7.136 16 16v153c0 8.86-7.14 16-16 16h-103c-8.864 0-16-7.14-16-16v-153c0-8.864 7.136-16 16-16z"/>
  <path fill="#c7891f" d="m19 3h103c8.86 0 16 7.136 16 16v153c0 8.86-7.14 16-16 16h-103c-8.864 0-16-7.14-16-16v-153c0-8.864 7.136-16 16-16z"/>
  <path fill="url(#a)" d="m18 2h103c8.86 0 16 7.136 16 16v153c0 8.86-7.14 16-16 16h-103c-8.864 0-16-7.14-16-16v-153c0-8.864 7.136-16 16-16z"/>
 </g>
 <g transform="translate(351.5 184.5)">
  <path d="m-363.91-141.56c-1.31 0-2.33.36-3.03 1.08-.71.72-1.06 1.74-1.06 3.08s.35 2.37 1.06 3.09c.70.71 1.72 1.06 3.03 1.06 1.3 0 2.3-.35 3-1.06.69-.72 1.04-1.75 1.04-3.09 0-1.35-.35-2.38-1.04-3.08-.70-.72-1.7-1.08-3-1.08m-5.13-2.32c-1.66-.50-2.91-1.27-3.75-2.3-.84-1.04-1.26-2.33-1.26-3.88 0-2.3.86-4.05 2.58-5.26 1.71-1.2 4.24-1.81 7.56-1.81 3.3 0 5.81.61 7.53 1.81 1.72 1.19 2.57 2.95 2.57 5.26 0 1.55-.42 2.84-1.27 3.88-.85 1.03-2.09 1.8-3.75 2.3 1.85.51 3.25 1.34 4.18 2.5.95 1.15 1.43 2.6 1.43 4.35 0 2.7-.90 4.75-2.71 6.14-1.79 1.38-4.45 2.06-7.98 2.06-3.54 0-6.22-.68-8.04-2.06-1.8-1.39-2.7-3.44-2.7-6.14 0-1.75.47-3.2 1.4-4.35.95-1.16 2.36-1.99 4.21-2.5m1.64-5.46c0 1.08.30 1.91.90 2.5.61.58 1.47.88 2.59.88 1.1 0 1.94-.30 2.54-.88.60-.59.90-1.42.90-2.5 0-1.09-.30-1.92-.90-2.49-.60-.58-1.44-.88-2.54-.88-1.12 0-1.98.30-2.59.88-.60.59-.90 1.41-.90 2.49" transform="scale(.90928 1.0998)"/>
  <path d="m256.77 21.959c-1.32 0-2.33.359-3.04 1.078-.70.719-1.06 1.748-1.06 3.088 0 1.339.36 2.369 1.06 3.087.71.707 1.72 1.06 3.04 1.06 1.3 0 2.3-.353 2.99-1.06.70-.718 1.04-1.748 1.04-3.087 0-1.352-.34-2.382-1.04-3.088-.69-.719-1.69-1.078-2.99-1.078m-5.14-2.32c-1.65-0.5-2.9-1.267-3.74-2.303-.84-1.035-1.26-2.326-1.26-3.873 0-2.302.86-4.0561 2.57-5.262 1.72-1.2058 4.24-1.8087 7.57-1.8088 3.3.0001 5.81.6030 7.52 1.8088 1.72 1.1937 2.58 2.948 2.58 5.262 0 1.547-.43 2.838-1.28 3.873-.84 1.036-2.09 1.803-3.74 2.303 1.85.511 3.24 1.345 4.18 2.503.95 1.145 1.43 2.594 1.43 4.348 0 2.704-.91 4.75-2.71 6.139-1.79 1.376-4.45 2.065-7.98 2.065-3.55 0-6.23-.689-8.04-2.065-1.8-1.389-2.71-3.435-2.71-6.139 0-1.754.47-3.203 1.41-4.348.95-1.158 2.35-1.992 4.2-2.503m1.65-5.463c0 1.084.30 1.918.89 2.503.61.584 1.48.877 2.6.877 1.09 0 1.94-.293 2.54-.877.59-.585.89-1.419.89-2.503s-.30-1.913-.89-2.485c-.60-.585-1.45-.877-2.54-.877-1.12 0-1.99.292-2.6.877-.59.584-.89 1.413-.89 2.485" transform="scale(-.90928 -1.0998)"/>
 </g>
 <g fill-rule="evenodd">
  <path d="m20.527 48.665c-2.666 0-4.83 3.264-4.83 7.286 0 3.426 4.392 9.191 4.222 11.929-1.41.783-5.767-6.437-8.019-6.437-2.6665 0-4.83 3.263-4.83 7.285 0 4.023 2.1635 7.286 4.83 7.286 2.312 0 6.276-7.214 8.019-6.563l-2.929 12.874 7.024-.042s-3.077-12.481-3.081-12.776h.055v.014c1.707-.640 5.806 6.632 8.102 6.632 2.667 0 4.83-3.263 4.83-7.286 0-4.022-2.163-7.285-4.83-7.285-2.242 0-6.308 7.1-8.093 6.368.025-2.806 4.36-8.577 4.36-11.999 0-4.022-2.163-7.286-4.83-7.286z" sodipodi:nodetypes="cscsssccccccssscsc"/>
  <path d="m117.42 139.96c2.66 0 4.83-3.26 4.83-7.28 0-3.43-4.39-9.19-4.22-11.93 1.41-.79 5.76 6.43 8.02 6.43 2.66 0 4.83-3.26 4.83-7.28s-2.17-7.29-4.83-7.29c-2.32 0-6.28 7.22-8.02 6.57l2.93-12.88-7.03.04s3.08 12.49 3.08 12.78h-.05v-.01c-1.71.64-5.81-6.64-8.1-6.64-2.67 0-4.83 3.27-4.83 7.29s2.16 7.29 4.83 7.29c2.24 0 6.3-7.1 8.09-6.37-.03 2.8-4.36 8.57-4.36 12 0 4.02 2.16 7.28 4.83 7.28z" sodipodi:nodetypes="cscsssccccccssscsc"/>
  <path d="m49.199 36c-1.553 0-2.814 1.918-2.814 4.281 0 2.014 2.559 5.402 2.459 7.011-.821.459-3.359-3.783-4.671-3.783-1.553 0-2.813 1.917-2.813 4.281s1.26 4.281 2.813 4.281c1.347 0 3.656-4.239 4.671-3.856l-1.706 7.565 4.092-.025s-1.793-7.334-1.795-7.507h.032v.008c.995-.376 3.382 3.897 4.72 3.897 1.553 0 2.813-1.918 2.813-4.281 0-2.364-1.26-4.282-2.813-4.282-1.307 0-3.675 4.173-4.714 3.743.014-1.649 2.539-5.04 2.539-7.052 0-2.363-1.26-4.281-2.813-4.281z" sodipodi:nodetypes="cscsssccccccssscsc"/>
  <path d="m90.199 36.22c-1.553 0-2.814 1.918-2.814 4.281 0 2.014 2.559 5.402 2.459 7.011-.821.459-3.359-3.783-4.671-3.783-1.553 0-2.813 1.917-2.813 4.281s1.26 4.281 2.813 4.281c1.347 0 3.656-4.239 4.671-3.856l-1.706 7.565 4.092-.025s-1.793-7.334-1.795-7.507h.032v.008c.995-.376 3.382 3.897 4.72 3.897 1.553 0 2.813-1.918 2.813-4.281 0-2.364-1.26-4.282-2.813-4.282-1.307 0-3.675 4.173-4.714 3.743.014-1.649 2.539-5.04 2.539-7.052 0-2.363-1.26-4.281-2.813-4.281z" sodipodi:nodetypes="cscsssccccccssscsc"/>
  <path d="m48.839 71.22c-1.553 0-2.814 1.918-2.814 4.281 0 2.014 2.559 5.402 2.459 7.011-.821.459-3.359-3.783-4.671-3.783-1.553 0-2.813 1.917-2.813 4.281s1.26 4.281 2.813 4.281c1.347 0 3.656-4.239 4.671-3.856l-1.706 7.565 4.092-.025s-1.793-7.334-1.795-7.507h.032v.008c.995-.376 3.382 3.897 4.72 3.897 1.553 0 2.813-1.918 2.813-4.281 0-2.364-1.26-4.282-2.813-4.282-1.307 0-3.675 4.173-4.714 3.743.014-1.649 2.539-5.04 2.539-7.052 0-2.363-1.26-4.281-2.813-4.281z" sodipodi:nodetypes="cscsssccccccssscsc"/>
  <path d="m88.199 70c-1.553 0-2.814 1.918-2.814 4.281 0 2.014 2.559 5.402 2.459 7.011-.821.459-3.359-3.783-4.671-3.783-1.553 0-2.813 1.917-2.813 4.281s1.26 4.281 2.813 4.281c1.347 0 3.656-4.239 4.671-3.856l-1.706 7.565 4.092-.025s-1.793-7.334-1.795-7.507h.032v.008c.995-.376 3.382 3.897 4.72 3.897 1.553 0 2.813-1.918 2.813-4.281 0-2.364-1.26-4.282-2.813-4.282-1.307 0-3.675 4.173-4.714 3.743.014-1.649 2.539-5.04 2.539-7.052 0-2.363-1.26-4.281-2.813-4.281z" sodipodi:nodetypes="cscsssccccccssscsc"/>
  <path d="m48.161 119c1.553 0 2.814-1.92 2.814-4.28 0-2.01-2.559-5.4-2.459-7.01.821-.46 3.359 3.78 4.671 3.78 1.553 0 2.813-1.92 2.813-4.28s-1.26-4.28-2.813-4.28c-1.347 0-3.656 4.24-4.671 3.86l1.706-7.57-4.092.025s1.793 7.335 1.795 7.505h-.032v-.01c-.995.38-3.382-3.89-4.72-3.89-1.553 0-2.813 1.91-2.813 4.28 0 2.36 1.26 4.28 2.813 4.28 1.307 0 3.675-4.17 4.714-3.74-.014 1.65-2.539 5.04-2.539 7.05 0 2.36 1.26 4.28 2.813 4.28z" sodipodi:nodetypes="cscsssccccccssscsc"/>
  <path d="m89.801 119.78c1.553 0 2.814-1.92 2.814-4.28 0-2.01-2.559-5.4-2.459-7.01.821-.46 3.359 3.78 4.671 3.78 1.553 0 2.813-1.92 2.813-4.28s-1.26-4.28-2.813-4.28c-1.347 0-3.656 4.24-4.671 3.86l1.706-7.57-4.092.02s1.793 7.34 1.795 7.51h-.032v-.01c-.995.38-3.382-3.89-4.72-3.89-1.553 0-2.813 1.91-2.813 4.28 0 2.36 1.26 4.28 2.813 4.28 1.307 0 3.675-4.17 4.714-3.74-.014 1.65-2.539 5.04-2.539 7.05 0 2.36 1.26 4.28 2.813 4.28z" sodipodi:nodetypes="cscsssccccccssscsc"/>
  <path d="m90.161 149.78c1.553 0 2.814-1.92 2.814-4.28 0-2.01-2.559-5.4-2.459-7.01.821-.46 3.359 3.78 4.671 3.78 1.553 0 2.813-1.92 2.813-4.28s-1.26-4.28-2.813-4.28c-1.347 0-3.656 4.24-4.671 3.86l1.706-7.57-4.092.02s1.793 7.34 1.795 7.51h-.032v-.01c-.995.38-3.382-3.89-4.72-3.89-1.553 0-2.813 1.91-2.813 4.28 0 2.36 1.26 4.28 2.813 4.28 1.307 0 3.675-4.17 4.714-3.74-.014 1.65-2.539 5.04-2.539 7.05 0 2.36 1.26 4.28 2.813 4.28z" sodipodi:nodetypes="cscsssccccccssscsc"/>
  <path d="m49.161 149.78c1.553 0 2.814-1.92 2.814-4.28 0-2.01-2.559-5.4-2.459-7.01.821-.46 3.359 3.78 4.671 3.78 1.553 0 2.813-1.92 2.813-4.28s-1.26-4.28-2.813-4.28c-1.347 0-3.656 4.24-4.671 3.86l1.706-7.57-4.092.02s1.793 7.34 1.795 7.51h-.032v-.01c-.995.38-3.382-3.89-4.72-3.89-1.553 0-2.813 1.91-2.813 4.28 0 2.36 1.26 4.28 2.813 4.28 1.307 0 3.675-4.17 4.714-3.74-.014 1.65-2.539 5.04-2.539 7.05 0 2.36 1.26 4.28 2.813 4.28z" sodipodi:nodetypes="cscsssccccccssscsc"/>
 </g>
</svg>
