<?xml version="1.0" encoding="UTF-8" standalone="no"?>
<svg xmlns:rdf="http://www.w3.org/1999/02/22-rdf-syntax-ns#" xmlns="http://www.w3.org/2000/svg" sodipodi:docname="simple_s_j.svg" height="190" sodipodi:version="0.32" width="140" version="1.0" xmlns:xlink="http://www.w3.org/1999/xlink" y="0" x="0" xmlns:cc="http://web.resource.org/cc/" xmlns:dc="http://purl.org/dc/elements/1.1/" sodipodi:docbase="/home/nicu/Desktop/card_nicu_buculei_01.zip_FILES/cards/simple" xmlns:sodipodi="http://inkscape.sourceforge.net/DTD/sodipodi-0.dtd">
 <sodipodi:namedview bordercolor="#666666" pagecolor="#ffffff" borderopacity="1.0"/>
 <defs>
  <linearGradient id="c" y2="128.7" gradientUnits="userSpaceOnUse" y1="63.1" gradientTransform="translate(0 -1)" x2="109" x1="2">
   <stop stop-color="#ebf0d0" offset="0"/>
   <stop stop-color="#ffffeb" offset="1"/>
  </linearGradient>
  <linearGradient id="a">
   <stop stop-color="#c10000" offset="0"/>
   <stop stop-color="#ff433e" offset="1"/>
  </linearGradient>
  <linearGradient id="b">
   <stop stop-color="#f0eb00" offset="0"/>
   <stop stop-color="#ff0" offset="1"/>
  </linearGradient>
  <linearGradient id="l" y2="256.18" gradientUnits="userSpaceOnUse" y1="437.5" gradientTransform="matrix(.18682 0 0 .14486 77.301 1.4751)" x2="484.8" x1="356.44">
   <stop stop-color="#ffd8c1" offset="0"/>
   <stop stop-color="#ffeded" offset="1"/>
  </linearGradient>
  <linearGradient id="k" y2="415.54" xlink:href="#a" gradientUnits="userSpaceOnUse" y1="540.54" gradientTransform="matrix(.14486 0 0 .14486 102.21 13.455)" x2="449.32" x1="298.99"/>
  <linearGradient id="j" y2="322.14" xlink:href="#a" gradientUnits="userSpaceOnUse" y1="346.33" gradientTransform="matrix(.14486 0 0 .14486 100.09 14.808)" x2="312.09" x1="294.25"/>
  <linearGradient id="i" y2="120.97" xlink:href="#b" gradientUnits="userSpaceOnUse" y1="124.16" gradientTransform="translate(46.646 -34.28)" x2="105.55" x1="101.39"/>
  <linearGradient id="h" y2="103.33" gradientUnits="userSpaceOnUse" y1="108.76" gradientTransform="translate(42.501 -33.244)" x2="112.89" x1="98.818">
   <stop stop-color="#008200" offset="0"/>
   <stop stop-color="#00d000" offset="1"/>
  </linearGradient>
  <linearGradient id="g" y2="62.671" xlink:href="#b" gradientUnits="userSpaceOnUse" y1="65.109" gradientTransform="translate(43.119 -34.155)" x2="111.88" x1="103.56"/>
  <linearGradient id="f" y2="57.702" xlink:href="#a" gradientUnits="userSpaceOnUse" y1="62.938" gradientTransform="translate(46.646 -34.28)" x2="117.14" x1="93.5"/>
  <linearGradient id="e" y2="55.781" xlink:href="#b" gradientUnits="userSpaceOnUse" y1="57.469" x2="109.5" x1="104.75"/>
  <linearGradient id="d" y2="344.42" gradientUnits="userSpaceOnUse" y1="77.395" gradientTransform="matrix(.18685 0 0 .14486 77.296 1.4867)" x2="410.91" x1="652.3">
   <stop stop-color="#fff" offset="0"/>
   <stop stop-color="#fff" stop-opacity="0" offset="1"/>
  </linearGradient>
 </defs>
 <path fill-opacity=".49804" d="m21 5h103c8.86 0 16 7.136 16 16v153c0 8.86-7.14 16-16 16h-103c-8.864 0-16-7.14-16-16v-153c0-8.864 7.136-16 16-16z"/>
 <g>
  <path fill="#fff" d="m17 1h103c8.86 0 16 7.136 16 16v153c0 8.86-7.14 16-16 16h-103c-8.864 0-16-7.14-16-16v-153c0-8.864 7.136-16 16-16z"/>
  <path fill="#c7891f" d="m19 3h103c8.86 0 16 7.136 16 16v153c0 8.86-7.14 16-16 16h-103c-8.864 0-16-7.14-16-16v-153c0-8.864 7.136-16 16-16z"/>
  <path fill="url(#c)" d="m18 2h103c8.86 0 16 7.136 16 16v153c0 8.86-7.14 16-16 16h-103c-8.864 0-16-7.14-16-16v-153c0-8.864 7.136-16 16-16z"/>
 </g>
 <g>
  <path d="m20.645 48.665c-4.925 7.825-20.035 21.149-10.463 25.263 5.811 1.894 8.576-1.983 9.747-4.549h.235l-3.859 12.946 8.937-.038s-3.85-12.445-3.859-12.921h.094c.946 2.097 4.536 6.439 8.484 4.785 11.546-4.635-5.455-17.824-9.316-25.486z" sodipodi:nodetypes="cccccccccc" fill-rule="evenodd"/>
  <path d="m18.683 12.234h6.396v21.359c0 2.947-.841 5.149-2.525 6.607-1.672 1.458-4.208 2.186-7.608 2.186h-1.296v-4.61h.996c1.33 0 2.332-.354 3.007-1.062.687-.708 1.03-1.748 1.03-3.121v-21.359"/>
  <path d="m118.04 140c4.92-7.82 20.03-21.15 10.46-25.26-5.81-1.9-8.58 1.98-9.75 4.55h-.23l3.86-12.95-8.94.04s3.85 12.44 3.86 12.92h-.10c-.94-2.1-4.53-6.44-8.48-4.79-11.547 4.64 5.45 17.83 9.32 25.49z" sodipodi:nodetypes="cccccccccc" fill-rule="evenodd"/>
  <path d="m120 177h-6.4v-21.36c0-2.95.84-5.15 2.53-6.61 1.67-1.45 4.2-2.18 7.6-2.18h1.3v4.61h-1c-1.33 0-2.33.35-3 1.06-.69.71-1.03 1.75-1.03 3.12v21.36"/>
 </g>
 <g transform="translate(-82.637 36.75)">
  <path d="m150.53 17.563c-5.97 3.774-13.47-3.165-17.45 4.88-3.5 4.782 7.53 6.173.57 10.424-4.76 5.124-4.48 7.38-.37 8.007-1.19 5.664-.32 15.171 2.27 20.356-3.21 3.903-.80 2.562 3.55 3.376-1.35 2.154-.57 10.049-5.2 12.489-2.33 7.021-.59 14.642-1.13 21.906 11.28 4.749 24.63 5.289 35.4 2.759 4.74-.99 10.15-1.37 9.2-8.134.28-8.426 1.28-19.518-7.91-23.83-5.38-.753-7.17-4.388-3.05-9.55 3.07-8.358 6.44-4.861 11.15-6.975 4.9-1.311-7-4.539-5.43-9.977-1.52-4.254-3.38-9.258-6.43-12.711 7.68-.690 8.5-8.698 2.26-10.332-6.19-4.122-9.84 2.914-14.55-2.375-.78-.013-2.1-.504-2.88-.313z" sodipodi:nodetypes="cccccccccccccccccc"/>
  <path fill="url(#l)" d="m167.87 48.823c0 11.413-7.56 20.676-16.88 20.676s-16.88-9.263-16.88-20.676c0-11.414 7.56-20.677 16.88-20.677s16.88 9.263 16.88 20.677z"/>
  <path d="m147.48 69.977c-7.05 0-12.72 5.675-12.72 12.725v14.929c9.38 4.649 29.52 4.889 40.62 0v-14.929c0-7.05-5.68-12.725-12.73-12.725h-15.17z" sodipodi:nodetypes="ccccccc" fill="url(#k)"/>
  <path d="m132.28 39.191c2.52-4.528 5.05-13.18 19.12-13.09 21.84.639 16.63 23.381 24.45 25.835-4.85 1.578-7.3 2.929-14.54.430.79-5.699-.50-9.878-3.92-12.815-4.27 2.239-20.74 1.175-25.11-.360z" sodipodi:nodetypes="cccccc" fill-rule="evenodd"/>
  <g transform="matrix(.14486 0 0 .097903 99.895 25.539)">
   <path d="m353 245.86c0 11.87-9.41 21.5-21 21.5s-21-9.63-21-21.5 9.41-21.5 21-21.5 21 9.63 21 21.5z" transform="translate(-4 -6)" fill="#fff"/>
   <path d="m353 245.86c0 11.87-9.41 21.5-21 21.5s-21-9.63-21-21.5 9.41-21.5 21-21.5 21 9.63 21 21.5z" transform="matrix(.57143 0 0 .83721 129.29 34.524)" fill="#1e2ecf"/>
   <path d="m353 245.86c0 11.87-9.41 21.5-21 21.5s-21-9.63-21-21.5 9.41-21.5 21-21.5 21 9.63 21 21.5z" transform="matrix(.35714 0 0 .67442 195.93 76.048)"/>
  </g>
  <g transform="matrix(.14486 0 0 .097903 89.807 25.198)">
   <path d="m353 245.86c0 11.87-9.41 21.5-21 21.5s-21-9.63-21-21.5 9.41-21.5 21-21.5 21 9.63 21 21.5z" transform="translate(-4 -6)" fill="#fff"/>
   <path d="m353 245.86c0 11.87-9.41 21.5-21 21.5s-21-9.63-21-21.5 9.41-21.5 21-21.5 21 9.63 21 21.5z" transform="matrix(.57143 0 0 .83721 129.29 34.524)" fill="#1828ce"/>
   <path d="m353 245.86c0 11.87-9.41 21.5-21 21.5s-21-9.63-21-21.5 9.41-21.5 21-21.5 21 9.63 21 21.5z" transform="matrix(.35714 0 0 .67442 195.93 76.048)"/>
  </g>
  <path d="m139.44 62.205c1.85 3.622 6.9 1.943 11.73 0-5.33.559-9 .969-11.73 0z" sodipodi:nodetypes="ccc" fill-rule="evenodd" fill="url(#j)"/>
  <path d="m161.58 85.856l1.26.123 1.37 14.511-3.46.47.83-15.104z" sodipodi:nodetypes="ccccc" fill="#700000"/>
  <g fill-rule="evenodd">
   <path d="m141.64 50.147c-.80 1.287-1.95 3.402-1.78 4.375.16.972 1.65.762 2.44 1.323l.33-.478c-.70-.493-1.78-.008-1.92-.808-.13-.799.68-2.915 1.42-4.118l-.49-.294z" sodipodi:nodetypes="ccccccc"/>
   <path d="m142.93 57.8c-3.8.378-6.13 3.301-8.06 5.42 0 0 6.24-3.456 8.2-3.386-.14-.491.07-1.122-.14-2.034z" sodipodi:nodetypes="cccc"/>
   <path d="m143.8 57.655c3.38.346 9.84 2.97 10.14 5.46 0 0-7.88-4.218-9.73-3.564-.02-.510-.34-.963-.41-1.896z" sodipodi:nodetypes="cccc"/>
  </g>
  <g fill-rule="evenodd">
   <path d="m141.27 71.649c3.63 11.223 8.7 20.946 14.46 29.541l3.69-.11c-5.74-9.207-11.73-19.602-15.15-30.81 0 0-2.04.624-3 1.379z" sodipodi:nodetypes="ccccc" fill="url(#i)"/>
   <path d="m138.69 68.131l-.25 10.25 9.31-5.688v1.438l3.69.312-.06-1.937 12.12 5.437-1.25-12.062-10.69 5.437-.25-1.812-3.75-.250v1.937l-8.87-3.062z" sodipodi:nodetypes="ccccccccccccc" fill="url(#h)"/>
   <path d="m138.49 28.032l-.53 2.6c7.66 2.229 17.9 1.877 26.76.919-.02-.359-.35-2.519-.35-2.519-8.52.875-19.42.813-25.88-1z" sodipodi:nodetypes="ccccc" fill="url(#g)"/>
   <path d="m150.74 29.595c28.52 3.833 23.48-13.396 1.57-7.625-21.15-7.459-26.23 9.833-1.57 7.625z" sodipodi:nodetypes="ccc" fill="url(#f)"/>
  </g>
  <path sodipodi:rx="3.7187500" sodipodi:ry="1.6562500" sodipodi:type="arc" d="m110.81 56.406a3.7188 1.6562 0 1 1 -7.43 0 3.7188 1.6562 0 1 1 7.43 0z" transform="translate(44.306 -35.218)" sodipodi:cy="56.406250" sodipodi:cx="107.09375" fill="url(#e)"/>
  <path fill="url(#d)" d="m151.4 19.544c-1.81 0-3.14.611-3.47 1.375-12.88-2.722-17.58 4.484-9.53 7.562l-.41 2.063c-2.99 2.789-4.39 6.278-5.71 8.656.75.264 2.22.497 3.56.719-1.07 2.711-1.72 5.696-1.72 8.906 0 4.471 1.18 8.585 3.16 11.969-.85.816-1.72 1.673-2.41 2.437 0 0 1.46-.778 3-1.531 3.03 4.621 7.6 7.652 12.78 7.781l-3.09-.219v.719h-.06c-.92 0-1.83.099-2.69.281l-6.13-2.124-.12 5.531c-2.33 2.304-3.78 5.481-3.78 9.031v14.938c4.95 2.452 12.89 3.612 20.94 3.502.01.02.01.04.03.06l3.69-.09c-.05-.08-.11-.17-.16-.25.49-.04.98-.09 1.47-.13v.25l3.47-.47v-.03c4.13-.578 8.02-1.459 11.15-2.842v-14.938c0-7.038-5.65-12.702-12.68-12.719l-.44-4.093-8.03 4.093h-2.85l-.06-.469h-.22c7.93-.053 14.52-6.816 16.28-15.874 3.11.162 5.35-.662 8.51-1.688-5.49-1.721-4.74-13.318-11.23-20.375.02-.002.05.002.07 0-.02-.297-.21-1.574-.28-2.094 10.99-2.385 5.53-10.841-9.69-7.906.08-.140.37-.223.37-.375 0-.914-1.66-1.656-3.72-1.656z"/>
 </g>
</svg>
