<?xml version="1.0" encoding="UTF-8" standalone="no"?>
<svg xmlns:rdf="http://www.w3.org/1999/02/22-rdf-syntax-ns#" xmlns="http://www.w3.org/2000/svg" sodipodi:docname="h_8.svg" height="190" sodipodi:version="0.32" width="140" version="1.0" xmlns:xlink="http://www.w3.org/1999/xlink" y="0" x="0" xmlns:cc="http://web.resource.org/cc/" xmlns:dc="http://purl.org/dc/elements/1.1/" sodipodi:docbase="/home/nicu/Desktop/simple" xmlns:sodipodi="http://inkscape.sourceforge.net/DTD/sodipodi-0.dtd">
 <sodipodi:namedview bordercolor="#666666" pagecolor="#ffffff" borderopacity="1.0"/>
 <defs>
  <linearGradient id="a" y2="128.7" gradientUnits="userSpaceOnUse" y1="63.1" gradientTransform="translate(0 -1)" x2="109" x1="2">
   <stop stop-color="#ebf0d0" offset="0"/>
   <stop stop-color="#ffffeb" offset="1"/>
  </linearGradient>
 </defs>
 <path fill-opacity=".49804" d="m21 5h103c8.86 0 16 7.136 16 16v153c0 8.86-7.14 16-16 16h-103c-8.864 0-16-7.14-16-16v-153c0-8.864 7.136-16 16-16z"/>
 <g>
  <path fill="#fff" d="m17 1h103c8.86 0 16 7.136 16 16v153c0 8.86-7.14 16-16 16h-103c-8.864 0-16-7.14-16-16v-153c0-8.864 7.136-16 16-16z"/>
  <path fill="#c7891f" d="m19 3h103c8.86 0 16 7.136 16 16v153c0 8.86-7.14 16-16 16h-103c-8.864 0-16-7.14-16-16v-153c0-8.864 7.136-16 16-16z"/>
  <path fill="url(#a)" d="m18 2h103c8.86 0 16 7.136 16 16v153c0 8.86-7.14 16-16 16h-103c-8.864 0-16-7.14-16-16v-153c0-8.864 7.136-16 16-16z"/>
 </g>
 <g fill="#f00">
  <path d="m20.844 28.575c-1.196 0-2.116.395-2.758 1.186-.642.790-.964 1.922-.964 3.396 0 1.473.322 2.605.964 3.395.642.777 1.562 1.166 2.758 1.166 1.185 0 2.093-.389 2.724-1.166.632-.790.947-1.922.947-3.395 0-1.487-.315-2.619-.947-3.396-.631-.791-1.539-1.186-2.724-1.186m-4.669-2.552c-1.506-.549-2.641-1.393-3.405-2.531-.764-1.139-1.147-2.559-1.147-4.26 0-2.532.781-4.461 2.343-5.787s3.854-1.989 6.878-1.989c3.001 0 5.283.663 6.844 1.989 1.562 1.313 2.343 3.242 2.343 5.787 0 1.701-.388 3.121-1.163 4.26-.764 1.138-1.899 1.982-3.406 2.531 1.684.563 2.952 1.481 3.805 2.753.864 1.259 1.296 2.854 1.296 4.783 0 2.973-.820 5.224-2.459 6.751-1.628 1.514-4.048 2.271-7.26 2.271-3.223 0-5.66-.757-7.31-2.271-1.639-1.527-2.459-3.778-2.459-6.751 0-1.929.427-3.524 1.279-4.783.864-1.272 2.138-2.19 3.821-2.753m1.496-6.008c0 1.193.271 2.11.814 2.753.553.643 1.34.965 2.359.965.997 0 1.766-.322 2.309-.965s.814-1.56.814-2.753c0-1.192-.271-2.103-.814-2.732-.543-.643-1.312-.965-2.309-.965-1.019 0-1.806.322-2.359.965-.543.643-.814 1.554-.814 2.732"/>
  <g transform="matrix(.28639 0 0 .38877 -29.608 -9.4724)">
   <path fill-rule="evenodd" transform="matrix(1.1054 0 0 1.0796 -12.014 -18.867)" d="m147.21 156.42c-2.54.01-5.33.48-8.41 1.53-33.62 19.53 11.7 51.04 30.84 78.09l.56.14c21.03-29.57 61.07-62.11 30.47-78.23-24.23-8.25-30.71 19.2-30.93 20.19-.20-.87-5.15-21.81-22.53-21.72z"/>
  </g>
  <path d="m118.02 160.42c1.2 0 2.12-.39 2.76-1.18s.96-1.92.96-3.4c0-1.47-.32-2.6-.96-3.39-.64-.78-1.56-1.17-2.76-1.17-1.18 0-2.09.39-2.72 1.17-.63.79-.95 1.92-.95 3.39 0 1.49.32 2.62.95 3.4.63.79 1.54 1.18 2.72 1.18m4.67 2.56c1.51.55 2.64 1.39 3.41 2.53.76 1.14 1.14 2.56 1.14 4.26 0 2.53-.78 4.46-2.34 5.79-1.56 1.32-3.85 1.98-6.88 1.98-3 0-5.28-.66-6.84-1.98s-2.35-3.25-2.35-5.79c0-1.7.39-3.12 1.17-4.26.76-1.14 1.9-1.98 3.4-2.53-1.68-.57-2.95-1.48-3.8-2.76-.87-1.26-1.3-2.85-1.3-4.78 0-2.97.82-5.22 2.46-6.75 1.63-1.51 4.05-2.27 7.26-2.27 3.22 0 5.66.76 7.31 2.27 1.64 1.53 2.46 3.78 2.46 6.75 0 1.93-.43 3.52-1.28 4.78-.86 1.28-2.14 2.19-3.82 2.76m-1.5 6c0-1.19-.27-2.11-.81-2.75-.55-.64-1.34-.96-2.36-.96-1 0-1.76.32-2.31.96-.54.64-.81 1.56-.81 2.75 0 1.2.27 2.11.81 2.74.55.64 1.31.96 2.31.96 1.02 0 1.81-.32 2.36-.96.54-.65.81-1.56.81-2.74"/>
  <g transform="matrix(-.28639 0 0 -.38877 168.47 198.31)">
   <path fill-rule="evenodd" transform="matrix(1.1054 0 0 1.0796 -12.014 -18.867)" d="m147.21 156.42c-2.54.01-5.33.48-8.41 1.53-33.62 19.53 11.7 51.04 30.84 78.09l.56.14c21.03-29.57 61.07-62.11 30.47-78.23-24.23-8.25-30.71 19.2-30.93 20.19-.20-.87-5.15-21.81-22.53-21.72z"/>
  </g>
 </g>
 <g fill="#f00">
  <g transform="matrix(.16636 0 0 .22966 19.054 5.7723)">
   <path fill-rule="evenodd" transform="matrix(1.1054 0 0 1.0796 -12.014 -18.867)" d="m147.21 156.42c-2.54.01-5.33.48-8.41 1.53-33.62 19.53 11.7 51.04 30.84 78.09l.56.14c21.03-29.57 61.07-62.11 30.47-78.23-24.23-8.25-30.71 19.2-30.93 20.19-.20-.87-5.15-21.81-22.53-21.72z"/>
  </g>
  <g transform="matrix(.16636 0 0 .22966 58.054 5.5524)">
   <path fill-rule="evenodd" transform="matrix(1.1054 0 0 1.0796 -12.014 -18.867)" d="m147.21 156.42c-2.54.01-5.33.48-8.41 1.53-33.62 19.53 11.7 51.04 30.84 78.09l.56.14c21.03-29.57 61.07-62.11 30.47-78.23-24.23-8.25-30.71 19.2-30.93 20.19-.20-.87-5.15-21.81-22.53-21.72z"/>
  </g>
  <g transform="matrix(.16636 0 0 .22966 19.694 36.772)">
   <path fill-rule="evenodd" transform="matrix(1.1054 0 0 1.0796 -12.014 -18.867)" d="m147.21 156.42c-2.54.01-5.33.48-8.41 1.53-33.62 19.53 11.7 51.04 30.84 78.09l.56.14c21.03-29.57 61.07-62.11 30.47-78.23-24.23-8.25-30.71 19.2-30.93 20.19-.20-.87-5.15-21.81-22.53-21.72z"/>
  </g>
  <g transform="matrix(.16636 0 0 .22966 59.054 35.772)">
   <path fill-rule="evenodd" transform="matrix(1.1054 0 0 1.0796 -12.014 -18.867)" d="m147.21 156.42c-2.54.01-5.33.48-8.41 1.53-33.62 19.53 11.7 51.04 30.84 78.09l.56.14c21.03-29.57 61.07-62.11 30.47-78.23-24.23-8.25-30.71 19.2-30.93 20.19-.20-.87-5.15-21.81-22.53-21.72z"/>
  </g>
  <g transform="matrix(-.16636 0 0 -.22966 78.306 154.23)">
   <path fill-rule="evenodd" transform="matrix(1.1054 0 0 1.0796 -12.014 -18.867)" d="m147.21 156.42c-2.54.01-5.33.48-8.41 1.53-33.62 19.53 11.7 51.04 30.84 78.09l.56.14c21.03-29.57 61.07-62.11 30.47-78.23-24.23-8.25-30.71 19.2-30.93 20.19-.20-.87-5.15-21.81-22.53-21.72z"/>
  </g>
  <g transform="matrix(-.16636 0 0 -.22966 78.946 181.23)">
   <path fill-rule="evenodd" transform="matrix(1.1054 0 0 1.0796 -12.014 -18.867)" d="m147.21 156.42c-2.54.01-5.33.48-8.41 1.53-33.62 19.53 11.7 51.04 30.84 78.09l.56.14c21.03-29.57 61.07-62.11 30.47-78.23-24.23-8.25-30.71 19.2-30.93 20.19-.20-.87-5.15-21.81-22.53-21.72z"/>
  </g>
  <g transform="matrix(-.16636 0 0 -.22966 116.31 181.23)">
   <path fill-rule="evenodd" transform="matrix(1.1054 0 0 1.0796 -12.014 -18.867)" d="m147.21 156.42c-2.54.01-5.33.48-8.41 1.53-33.62 19.53 11.7 51.04 30.84 78.09l.56.14c21.03-29.57 61.07-62.11 30.47-78.23-24.23-8.25-30.71 19.2-30.93 20.19-.20-.87-5.15-21.81-22.53-21.72z"/>
  </g>
  <g transform="matrix(-.16636 0 0 -.22966 117.95 153.45)">
   <path fill-rule="evenodd" transform="matrix(1.1054 0 0 1.0796 -12.014 -18.867)" d="m147.21 156.42c-2.54.01-5.33.48-8.41 1.53-33.62 19.53 11.7 51.04 30.84 78.09l.56.14c21.03-29.57 61.07-62.11 30.47-78.23-24.23-8.25-30.71 19.2-30.93 20.19-.20-.87-5.15-21.81-22.53-21.72z"/>
  </g>
 </g>
</svg>
