<?xml version="1.0" encoding="UTF-8" standalone="no"?>
<svg xmlns:rdf="http://www.w3.org/1999/02/22-rdf-syntax-ns#" xmlns="http://www.w3.org/2000/svg" sodipodi:docname="d_10.svg" height="190" sodipodi:version="0.32" width="140" version="1.0" xmlns:xlink="http://www.w3.org/1999/xlink" y="0" x="0" xmlns:cc="http://web.resource.org/cc/" xmlns:dc="http://purl.org/dc/elements/1.1/" sodipodi:docbase="/home/nicu/Desktop/simple" xmlns:sodipodi="http://inkscape.sourceforge.net/DTD/sodipodi-0.dtd">
 <sodipodi:namedview bordercolor="#666666" pagecolor="#ffffff" borderopacity="1.0"/>
 <defs>
  <linearGradient id="a" y2="128.7" gradientUnits="userSpaceOnUse" y1="63.1" gradientTransform="translate(0 -1)" x2="109" x1="2">
   <stop stop-color="#ebf0d0" offset="0"/>
   <stop stop-color="#ffffeb" offset="1"/>
  </linearGradient>
 </defs>
 <path fill-opacity=".49804" d="m21 5h103c8.86 0 16 7.136 16 16v153c0 8.86-7.14 16-16 16h-103c-8.864 0-16-7.14-16-16v-153c0-8.864 7.136-16 16-16z"/>
 <g>
  <path fill="#fff" d="m17 1h103c8.86 0 16 7.136 16 16v153c0 8.86-7.14 16-16 16h-103c-8.864 0-16-7.14-16-16v-153c0-8.864 7.136-16 16-16z"/>
  <path fill="#c7891f" d="m19 3h103c8.86 0 16 7.136 16 16v153c0 8.86-7.14 16-16 16h-103c-8.864 0-16-7.14-16-16v-153c0-8.864 7.136-16 16-16z"/>
  <path fill="url(#a)" d="m18 2h103c8.86 0 16 7.136 16 16v153c0 8.86-7.14 16-16 16h-103c-8.864 0-16-7.14-16-16v-153c0-8.864 7.136-16 16-16z"/>
 </g>
 <g fill="#f00">
  <path d="m11.677 42.368v-23.59l-5.237-.069.2526-3.622 4.9544-3.089h5.492v30.37m13.434-15.222c0-3.75-.265-6.389-.796-7.916-.520-1.541-1.4-2.311-2.641-2.311-1.24 0-2.125.770-2.656 2.311-.530 1.527-.795 4.166-.795 7.916 0 3.791.265 6.464.795 8.018.531 1.554 1.416 2.331 2.656 2.331 1.231 0 2.111-.777 2.641-2.331.531-1.554.796-4.227.796-8.018m5.777.061c0 4.97-0.8 8.807-2.401 11.513-1.601 2.693-3.872 4.039-6.813 4.039-2.951 0-5.227-1.346-6.827-4.039-1.601-2.706-2.401-6.543-2.401-11.513 0-4.983 0.8-8.821 2.401-11.514 1.6-2.706 3.876-4.059 6.827-4.059 2.941 0 5.212 1.353 6.813 4.059 1.601 2.693 2.401 6.531 2.401 11.514"/>
  <path d="m127.2 146.47v23.59l5.24.06-.25 3.63-4.96 3.09h-5.49v-30.37m-13.43 15.22c0 3.75.26 6.39.79 7.91.52 1.54 1.4 2.31 2.64 2.31s2.13-.77 2.66-2.31c.53-1.52.79-4.16.79-7.91 0-3.79-.26-6.47-.79-8.02s-1.42-2.33-2.66-2.33c-1.23 0-2.11.78-2.64 2.33s-.79 4.23-.79 8.02m-5.78-.06c0-4.97.80-8.81 2.4-11.52 1.6-2.69 3.87-4.04 6.81-4.04 2.95 0 5.23 1.35 6.83 4.04 1.6 2.71 2.4 6.55 2.4 11.52 0 4.98-.80 8.82-2.4 11.51-1.6 2.71-3.88 4.06-6.83 4.06-2.94 0-5.21-1.35-6.81-4.06-1.6-2.69-2.4-6.53-2.4-11.51"/>
  <g fill-rule="evenodd">
   <path d="m20.41 48.665c-4.126 8.245-7.135 12.498-13.34 17.04 5.872 4.487 10.013 9.124 13.46 16.62 3.079-7.121 6.847-12.43 13.39-16.843-6.582-3.349-10.393-8.654-13.51-16.817z"/>
   <path d="m49.13 36.22c-2.403 4.845-4.155 7.344-7.77 10.013 3.421 2.637 5.832 5.362 7.84 9.767 1.794-4.185 3.988-7.304 7.8-9.898-3.834-1.968-6.054-5.085-7.87-9.882z"/>
   <path d="m90.13 36.22c-2.403 4.845-4.155 7.344-7.77 10.013 3.421 2.637 5.832 5.362 7.84 9.767 1.794-4.185 3.988-7.304 7.8-9.898-3.834-1.968-6.054-5.085-7.87-9.882z"/>
   <path d="m68.77 50.22c-2.403 4.845-4.155 7.344-7.77 10.013 3.421 2.637 5.832 5.362 7.84 9.767 1.794-4.185 3.988-7.304 7.8-9.898-3.834-1.968-6.054-5.085-7.87-9.882z"/>
   <path d="m48.77 71.22c-2.403 4.845-4.155 7.344-7.77 10.013 3.421 2.637 5.832 5.362 7.84 9.767 1.794-4.185 3.988-7.304 7.8-9.898-3.834-1.968-6.054-5.085-7.87-9.882z"/>
   <path d="m88.13 70.22c-2.403 4.845-4.155 7.344-7.77 10.013 3.421 2.637 5.832 5.362 7.84 9.767 1.794-4.185 3.988-7.304 7.8-9.898-3.834-1.968-6.054-5.085-7.87-9.882z"/>
   <path d="m89.77 100c-2.403 4.85-4.155 7.34-7.77 10.01 3.421 2.64 5.832 5.37 7.84 9.77 1.794-4.18 3.988-7.3 7.8-9.9-3.834-1.97-6.054-5.08-7.87-9.88z"/>
   <path d="m48.13 100c-2.403 4.85-4.155 7.34-7.77 10.01 3.421 2.64 5.832 5.37 7.84 9.77 1.794-4.18 3.988-7.3 7.8-9.9-3.834-1.97-6.054-5.08-7.87-9.88z"/>
   <path d="m49.13 130c-2.403 4.85-4.155 7.34-7.77 10.01 3.421 2.64 5.832 5.37 7.84 9.77 1.794-4.18 3.988-7.3 7.8-9.9-3.834-1.97-6.054-5.08-7.87-9.88z"/>
   <path d="m68.13 117c-2.403 4.85-4.155 7.34-7.77 10.01 3.421 2.64 5.832 5.37 7.84 9.77 1.794-4.18 3.988-7.3 7.8-9.9-3.834-1.97-6.054-5.08-7.87-9.88z"/>
   <path d="m90.13 130.22c-2.403 4.85-4.155 7.34-7.77 10.01 3.421 2.64 5.832 5.37 7.84 9.77 1.794-4.18 3.988-7.3 7.8-9.9-3.834-1.97-6.054-5.08-7.87-9.88z"/>
   <path d="m118.34 106.3c-4.13 8.25-7.13 12.5-13.34 17.04 5.87 4.49 10.01 9.13 13.46 16.62 3.08-7.12 6.85-12.43 13.39-16.84-6.58-3.35-10.39-8.65-13.51-16.82z"/>
  </g>
 </g>
</svg>
