<?xml version="1.0" encoding="UTF-8" standalone="no"?>
<svg xmlns:rdf="http://www.w3.org/1999/02/22-rdf-syntax-ns#" xmlns="http://www.w3.org/2000/svg" sodipodi:docname="simple_c_9.svg" height="190" sodipodi:version="0.32" width="140" version="1.0" xmlns:xlink="http://www.w3.org/1999/xlink" y="0" x="0" xmlns:cc="http://web.resource.org/cc/" xmlns:dc="http://purl.org/dc/elements/1.1/" sodipodi:docbase="/home/nicu/Desktop/card_nicu_buculei_01.zip_FILES/cards/simple" xmlns:sodipodi="http://inkscape.sourceforge.net/DTD/sodipodi-0.dtd">
 <sodipodi:namedview bordercolor="#666666" pagecolor="#ffffff" borderopacity="1.0"/>
 <defs>
  <linearGradient id="a" y2="128.7" gradientUnits="userSpaceOnUse" y1="63.1" gradientTransform="translate(0 -1)" x2="109" x1="2">
   <stop stop-color="#ebf0d0" offset="0"/>
   <stop stop-color="#ffffeb" offset="1"/>
  </linearGradient>
 </defs>
 <path fill-opacity=".49804" d="m21 5h103c8.86 0 16 7.136 16 16v153c0 8.86-7.14 16-16 16h-103c-8.864 0-16-7.14-16-16v-153c0-8.864 7.136-16 16-16z"/>
 <g>
  <path fill="#fff" d="m17 1h103c8.86 0 16 7.136 16 16v153c0 8.86-7.14 16-16 16h-103c-8.864 0-16-7.14-16-16v-153c0-8.864 7.136-16 16-16z"/>
  <path fill="#c7891f" d="m19 3h103c8.86 0 16 7.136 16 16v153c0 8.86-7.14 16-16 16h-103c-8.864 0-16-7.14-16-16v-153c0-8.864 7.136-16 16-16z"/>
  <path fill="url(#a)" d="m18 2h103c8.86 0 16 7.136 16 16v153c0 8.86-7.14 16-16 16h-103c-8.864 0-16-7.14-16-16v-153c0-8.864 7.136-16 16-16z"/>
 </g>
 <path fill="#0c0c0c" d="m12.094 41.839v-5.546c1.019.576 1.994 1.012 2.924 1.306.930.282 1.85.422 2.758.422 1.905 0 3.389-.636 4.452-1.909 1.064-1.286 1.689-3.188 1.878-5.706-.754.670-1.557 1.172-2.409 1.507-.853.335-1.778.502-2.775.502-2.536 0-4.585-.891-6.147-2.672-1.55-1.795-2.326-4.153-2.326-7.073 0-3.229.864-5.814 2.592-7.756 1.739-1.943 4.065-2.914 6.978-2.914 3.234 0 5.737 1.32 7.509 3.958 1.772 2.639 2.658 6.37 2.658 11.193 0 4.956-1.036 8.854-3.107 11.694-2.071 2.827-4.912 4.24-8.522 4.24-1.163 0-2.276-.107-3.34-.322-1.063-.201-2.104-.509-3.123-.924m7.891-14.447c1.119 0 1.961-.436 2.526-1.306.565-.884.847-2.204.847-3.959 0-1.741-.282-3.054-.847-3.938s-1.407-1.326-2.526-1.326c-1.118 0-1.96.442-2.525 1.326s-.847 2.197-.847 3.938c0 1.755.282 3.075.847 3.959.565.870 1.407 1.306 2.525 1.306"/>
 <path fill="#0c0c0c" d="m126.52 147.59v5.55c-1.02-.58-2-1.01-2.93-1.31-.93-.28-1.85-.42-2.76-.42-1.9 0-3.38.64-4.45 1.91-1.06 1.28-1.69 3.19-1.88 5.7.76-.67 1.56-1.17 2.41-1.5.86-.34 1.78-.51 2.78-.51 2.53 0 4.58.90 6.14 2.68 1.56 1.79 2.33 4.15 2.33 7.07 0 3.23-.86 5.81-2.59 7.76-1.74 1.94-4.07 2.91-6.98 2.91-3.23 0-5.74-1.32-7.51-3.96s-2.66-6.37-2.66-11.19c0-4.96 1.04-8.86 3.11-11.69s4.91-4.24 8.52-4.24c1.17 0 2.28.10 3.34.32 1.07.20 2.11.51 3.13.92m-7.9 14.45c-1.11 0-1.96.43-2.52 1.3-.57.89-.85 2.21-.85 3.96 0 1.74.28 3.06.85 3.94.56.89 1.41 1.33 2.52 1.33 1.12 0 1.97-.44 2.53-1.33.56-.88.85-2.2.85-3.94 0-1.75-.29-3.07-.85-3.96-.56-.87-1.41-1.3-2.53-1.3"/>
 <g fill-rule="evenodd">
  <path d="m20.527 48.665c-2.666 0-4.83 3.264-4.83 7.286 0 3.426 4.392 9.191 4.222 11.929-1.41.783-5.767-6.437-8.019-6.437-2.6665 0-4.83 3.263-4.83 7.285 0 4.023 2.1635 7.286 4.83 7.286 2.312 0 6.276-7.214 8.019-6.563l-2.929 12.874 7.024-.042s-3.077-12.481-3.081-12.776h.055v.014c1.707-.640 5.806 6.632 8.102 6.632 2.667 0 4.83-3.263 4.83-7.286 0-4.022-2.163-7.285-4.83-7.285-2.242 0-6.308 7.1-8.093 6.368.025-2.806 4.36-8.577 4.36-11.999 0-4.022-2.163-7.286-4.83-7.286z" sodipodi:nodetypes="cscsssccccccssscsc"/>
  <path d="m117.91 139.96c2.67 0 4.83-3.26 4.83-7.28 0-3.43-4.39-9.19-4.22-11.93 1.41-.79 5.77 6.43 8.02 6.43 2.67 0 4.83-3.26 4.83-7.28s-2.16-7.29-4.83-7.29c-2.31 0-6.28 7.22-8.02 6.57l2.93-12.88-7.02.04s3.07 12.49 3.08 12.78h-.06v-.01c-1.71.64-5.8-6.64-8.1-6.64-2.67 0-4.83 3.27-4.83 7.29s2.16 7.29 4.83 7.29c2.24 0 6.31-7.1 8.09-6.37-.02 2.8-4.36 8.57-4.36 12 0 4.02 2.17 7.28 4.83 7.28z" sodipodi:nodetypes="cscsssccccccssscsc"/>
  <path d="m49.199 36c-1.553 0-2.814 1.918-2.814 4.281 0 2.014 2.559 5.402 2.459 7.011-.821.459-3.359-3.783-4.671-3.783-1.553 0-2.813 1.917-2.813 4.281s1.26 4.281 2.813 4.281c1.347 0 3.656-4.239 4.671-3.856l-1.706 7.565 4.092-.025s-1.793-7.334-1.795-7.507h.032v.008c.995-.376 3.382 3.897 4.72 3.897 1.553 0 2.813-1.918 2.813-4.281 0-2.364-1.26-4.282-2.813-4.282-1.307 0-3.675 4.173-4.714 3.743.014-1.649 2.539-5.04 2.539-7.052 0-2.363-1.26-4.281-2.813-4.281z" sodipodi:nodetypes="cscsssccccccssscsc"/>
  <path d="m69.199 85c-1.553 0-2.814 1.918-2.814 4.281 0 2.014 2.559 5.402 2.459 7.011-.821.459-3.359-3.783-4.671-3.783-1.553 0-2.813 1.917-2.813 4.281s1.26 4.28 2.813 4.28c1.347 0 3.656-4.238 4.671-3.855.019.549-1.722 6.705-1.722 6.705l.016.86 4.092-.02s-1.793-7.339-1.795-7.512h.032v.008c.995-.376 3.382 3.894 4.72 3.894 1.553 0 2.813-1.915 2.813-4.278 0-2.364-1.26-4.282-2.813-4.282-1.307 0-3.675 4.173-4.714 3.743.014-1.649 2.539-5.04 2.539-7.052 0-2.363-1.26-4.281-2.813-4.281z" sodipodi:nodetypes="cscssscccccccssscsc"/>
  <path d="m90.199 36.22c-1.553 0-2.814 1.918-2.814 4.281 0 2.014 2.559 5.402 2.459 7.011-.821.459-3.359-3.783-4.671-3.783-1.553 0-2.813 1.917-2.813 4.281s1.26 4.281 2.813 4.281c1.347 0 3.656-4.239 4.671-3.856l-1.706 7.565 4.092-.025s-1.793-7.334-1.795-7.507h.032v.008c.995-.376 3.382 3.897 4.72 3.897 1.553 0 2.813-1.918 2.813-4.281 0-2.364-1.26-4.282-2.813-4.282-1.307 0-3.675 4.173-4.714 3.743.014-1.649 2.539-5.04 2.539-7.052 0-2.363-1.26-4.281-2.813-4.281z" sodipodi:nodetypes="cscsssccccccssscsc"/>
  <path d="m48.839 71.22c-1.553 0-2.814 1.918-2.814 4.281 0 2.014 2.559 5.402 2.459 7.011-.821.459-3.359-3.783-4.671-3.783-1.553 0-2.813 1.917-2.813 4.281s1.26 4.281 2.813 4.281c1.347 0 3.656-4.239 4.671-3.856l-1.706 7.565 4.092-.025s-1.793-7.334-1.795-7.507h.032v.008c.995-.376 3.382 3.897 4.72 3.897 1.553 0 2.813-1.918 2.813-4.281 0-2.364-1.26-4.282-2.813-4.282-1.307 0-3.675 4.173-4.714 3.742.014-1.648 2.539-5.039 2.539-7.051 0-2.363-1.26-4.281-2.813-4.281z" sodipodi:nodetypes="cscsssccccccssscsc"/>
  <path d="m88.199 70c-1.553 0-2.814 1.918-2.814 4.281 0 2.014 2.559 5.402 2.459 7.011-.821.459-3.359-3.783-4.671-3.783-1.553 0-2.813 1.917-2.813 4.281s1.26 4.281 2.813 4.281c1.347 0 3.656-4.239 4.671-3.856l-1.706 7.565 4.092-.025s-1.793-7.334-1.795-7.507h.032v.008c.995-.376 3.382 3.897 4.72 3.897 1.553 0 2.813-1.918 2.813-4.281 0-2.364-1.26-4.282-2.813-4.282-1.307 0-3.675 4.173-4.714 3.743.014-1.649 2.539-5.04 2.539-7.052 0-2.363-1.26-4.281-2.813-4.281z" sodipodi:nodetypes="cscsssccccccssscsc"/>
  <path d="m48.161 119c1.553 0 2.814-1.92 2.814-4.28 0-2.01-2.559-5.4-2.459-7.01.821-.46 3.359 3.78 4.671 3.78 1.553 0 2.813-1.92 2.813-4.28s-1.26-4.28-2.813-4.28c-1.347 0-3.656 4.24-4.671 3.86l1.706-7.57-4.092.025s1.793 7.335 1.795 7.505h-.032v-.01c-.995.38-3.382-3.89-4.72-3.89-1.553 0-2.813 1.91-2.813 4.28 0 2.36 1.26 4.28 2.813 4.28 1.307 0 3.675-4.17 4.714-3.74-.014 1.65-2.539 5.04-2.539 7.05 0 2.36 1.26 4.28 2.813 4.28z" sodipodi:nodetypes="cscsssccccccssscsc"/>
  <path d="m89.801 119.78c1.553 0 2.814-1.92 2.814-4.28 0-2.01-2.559-5.4-2.459-7.01.821-.46 3.359 3.78 4.671 3.78 1.553 0 2.813-1.92 2.813-4.28s-1.26-4.28-2.813-4.28c-1.347 0-3.656 4.24-4.671 3.86l1.706-7.57-4.092.02s1.793 7.34 1.795 7.51h-.032v-.01c-.995.38-3.382-3.89-4.72-3.89-1.553 0-2.813 1.91-2.813 4.28 0 2.36 1.26 4.28 2.813 4.28 1.307 0 3.675-4.17 4.714-3.74-.014 1.65-2.539 5.04-2.539 7.05 0 2.36 1.26 4.28 2.813 4.28z" sodipodi:nodetypes="cscsssccccccssscsc"/>
  <path d="m90.161 149.78c1.553 0 2.814-1.92 2.814-4.28 0-2.01-2.559-5.4-2.459-7.01.821-.46 3.359 3.78 4.671 3.78 1.553 0 2.813-1.92 2.813-4.28s-1.26-4.28-2.813-4.28c-1.347 0-3.656 4.24-4.671 3.86l1.706-7.57-4.092.02s1.793 7.34 1.795 7.51h-.032v-.01c-.995.38-3.382-3.89-4.72-3.89-1.553 0-2.813 1.91-2.813 4.28 0 2.36 1.26 4.28 2.813 4.28 1.307 0 3.675-4.17 4.714-3.74-.014 1.65-2.539 5.04-2.539 7.05 0 2.36 1.26 4.28 2.813 4.28z" sodipodi:nodetypes="cscsssccccccssscsc"/>
  <path d="m49.161 149.78c1.553 0 2.814-1.92 2.814-4.28 0-2.01-2.559-5.4-2.459-7.01.821-.46 3.359 3.78 4.671 3.78 1.553 0 2.813-1.92 2.813-4.28s-1.26-4.28-2.813-4.28c-1.347 0-3.656 4.24-4.671 3.86l1.706-7.57-4.092.02s1.793 7.34 1.795 7.51h-.032v-.01c-.995.38-3.382-3.89-4.72-3.89-1.553 0-2.813 1.91-2.813 4.28 0 2.36 1.26 4.28 2.813 4.28 1.307 0 3.675-4.17 4.714-3.74-.014 1.65-2.539 5.04-2.539 7.05 0 2.36 1.26 4.28 2.813 4.28z" sodipodi:nodetypes="cscsssccccccssscsc"/>
 </g>
</svg>
