<?xml version="1.0" encoding="UTF-8" standalone="no"?>
<svg xmlns:rdf="http://www.w3.org/1999/02/22-rdf-syntax-ns#" xmlns="http://www.w3.org/2000/svg" sodipodi:docname="simple_c_7.svg" height="190" sodipodi:version="0.32" width="140" version="1.0" xmlns:xlink="http://www.w3.org/1999/xlink" y="0" x="0" xmlns:cc="http://web.resource.org/cc/" xmlns:dc="http://purl.org/dc/elements/1.1/" sodipodi:docbase="/home/nicu/Desktop/card_nicu_buculei_01.zip_FILES/cards/simple" xmlns:sodipodi="http://inkscape.sourceforge.net/DTD/sodipodi-0.dtd">
 <sodipodi:namedview bordercolor="#666666" pagecolor="#ffffff" borderopacity="1.0"/>
 <defs>
  <linearGradient id="a" y2="128.7" gradientUnits="userSpaceOnUse" y1="63.1" gradientTransform="translate(0 -1)" x2="109" x1="2">
   <stop stop-color="#ebf0d0" offset="0"/>
   <stop stop-color="#ffffeb" offset="1"/>
  </linearGradient>
 </defs>
 <path fill-opacity=".49804" d="m21 5h103c8.86 0 16 7.136 16 16v153c0 8.86-7.14 16-16 16h-103c-8.864 0-16-7.14-16-16v-153c0-8.864 7.136-16 16-16z"/>
 <g>
  <path fill="#fff" d="m17 1h103c8.86 0 16 7.136 16 16v153c0 8.86-7.14 16-16 16h-103c-8.864 0-16-7.14-16-16v-153c0-8.864 7.136-16 16-16z"/>
  <path fill="#c7891f" d="m19 3h103c8.86 0 16 7.136 16 16v153c0 8.86-7.14 16-16 16h-103c-8.864 0-16-7.14-16-16v-153c0-8.864 7.136-16 16-16z"/>
  <path fill="url(#a)" d="m18 2h103c8.86 0 16 7.136 16 16v153c0 8.86-7.14 16-16 16h-103c-8.864 0-16-7.14-16-16v-153c0-8.864 7.136-16 16-16z"/>
 </g>
 <g>
  <path d="m11.275 11.998h18.69v4.36l-9.669 25.64h-6.23l9.154-24.313h-11.945v-5.687"/>
  <path d="m127.5 177h-18.69v-4.36l9.66-25.64h6.23l-9.15 24.31h11.95v5.69"/>
  <g fill-rule="evenodd">
   <path d="m20.527 48.665c-2.666 0-4.83 3.264-4.83 7.286 0 3.426 4.392 9.191 4.222 11.929-1.41.783-5.767-6.437-8.019-6.437-2.6665 0-4.83 3.263-4.83 7.285 0 4.023 2.1635 7.286 4.83 7.286 2.312 0 6.276-7.214 8.019-6.563l-2.929 12.874 7.024-.042s-3.077-12.481-3.081-12.776h.055v.014c1.707-.640 5.806 6.632 8.102 6.632 2.667 0 4.83-3.263 4.83-7.286 0-4.022-2.163-7.285-4.83-7.285-2.242 0-6.308 7.1-8.093 6.368.025-2.806 4.36-8.577 4.36-11.999 0-4.022-2.163-7.286-4.83-7.286z" sodipodi:nodetypes="cscsssccccccssscsc"/>
   <path d="m51.199 45c-1.553 0-2.814 1.918-2.814 4.281 0 2.014 2.559 5.402 2.459 7.011-.821.459-3.359-3.783-4.671-3.783-1.553 0-2.813 1.917-2.813 4.281s1.26 4.281 2.813 4.281c1.347 0 3.656-4.239 4.671-3.856l-1.706 7.565 4.092-.025s-1.793-7.334-1.795-7.507h.032v.008c.995-.376 3.382 3.897 4.72 3.897 1.553 0 2.813-1.918 2.813-4.281 0-2.364-1.26-4.282-2.813-4.282-1.307 0-3.675 4.173-4.714 3.743.014-1.649 2.539-5.04 2.539-7.052 0-2.363-1.26-4.281-2.813-4.281z" sodipodi:nodetypes="cscsssccccccssscsc"/>
   <path d="m69.839 60.22c-1.553 0-2.814 1.918-2.814 4.281 0 2.014 2.559 5.402 2.459 7.011-.821.459-3.359-3.783-4.671-3.783-1.553 0-2.813 1.917-2.813 4.281s1.26 4.281 2.813 4.281c1.347 0 3.656-4.239 4.671-3.856l-1.706 7.565 4.092-.025s-1.793-7.334-1.795-7.507h.032v.008c.995-.376 3.382 3.897 4.72 3.897 1.553 0 2.813-1.918 2.813-4.281 0-2.364-1.26-4.282-2.813-4.282-1.307 0-3.675 4.173-4.714 3.743.014-1.649 2.539-5.04 2.539-7.052 0-2.363-1.26-4.281-2.813-4.281z" sodipodi:nodetypes="cscsssccccccssscsc"/>
   <path d="m87.199 45c-1.553 0-2.814 1.918-2.814 4.281 0 2.014 2.559 5.402 2.459 7.011-.821.459-3.359-3.783-4.671-3.783-1.553 0-2.813 1.917-2.813 4.281s1.26 4.281 2.813 4.281c1.347 0 3.656-4.239 4.671-3.856l-1.706 7.565 4.092-.025s-1.793-7.334-1.795-7.507h.032v.008c.995-.376 3.382 3.897 4.72 3.897 1.553 0 2.813-1.918 2.813-4.281 0-2.364-1.26-4.282-2.813-4.282-1.307 0-3.675 4.173-4.714 3.743.014-1.649 2.539-5.04 2.539-7.052 0-2.363-1.26-4.281-2.813-4.281z" sodipodi:nodetypes="cscsssccccccssscsc"/>
   <path d="m70.199 83c-1.553 0-2.814 1.918-2.814 4.281 0 2.014 2.559 5.402 2.459 7.011-.821.459-3.359-3.783-4.671-3.783-1.553 0-2.813 1.917-2.813 4.281s1.26 4.281 2.813 4.281c1.347 0 3.656-4.239 4.671-3.856l-1.706 7.565 4.092-.02s-1.793-7.339-1.795-7.512h.032v.008c.995-.376 3.382 3.897 4.72 3.897 1.553 0 2.813-1.918 2.813-4.281 0-2.364-1.26-4.282-2.813-4.282-1.307 0-3.675 4.173-4.714 3.743.014-1.649 2.539-5.04 2.539-7.052 0-2.363-1.26-4.281-2.813-4.281z" sodipodi:nodetypes="cscsssccccccssscsc"/>
   <path d="m70.161 126.78c1.553 0 2.814-1.92 2.814-4.28 0-2.01-2.559-5.4-2.459-7.01.821-.46 3.359 3.78 4.671 3.78 1.553 0 2.813-1.92 2.813-4.28s-1.26-4.28-2.813-4.28c-1.347 0-3.656 4.24-4.671 3.86l1.706-7.57-4.092.02s1.793 7.34 1.795 7.51h-.032v-.01c-.995.38-3.382-3.89-4.72-3.89-1.553 0-2.813 1.91-2.813 4.28 0 2.36 1.26 4.28 2.813 4.28 1.307 0 3.675-4.17 4.714-3.74-.014 1.65-2.539 5.04-2.539 7.05 0 2.36 1.26 4.28 2.813 4.28z" sodipodi:nodetypes="cscsssccccccssscsc"/>
   <path d="m88.161 141.78c1.553 0 2.814-1.92 2.814-4.28 0-2.01-2.559-5.4-2.459-7.01.821-.46 3.359 3.78 4.671 3.78 1.553 0 2.813-1.92 2.813-4.28s-1.26-4.28-2.813-4.28c-1.347 0-3.656 4.24-4.671 3.86l1.706-7.57-4.092.02s1.793 7.34 1.795 7.51h-.032v-.01c-.995.38-3.382-3.89-4.72-3.89-1.553 0-2.813 1.91-2.813 4.28 0 2.36 1.26 4.28 2.813 4.28 1.307 0 3.675-4.17 4.714-3.74-.014 1.65-2.539 5.04-2.539 7.05 0 2.36 1.26 4.28 2.813 4.28z" sodipodi:nodetypes="cscsssccccccssscsc"/>
   <path d="m52.801 141.78c1.553 0 2.814-1.92 2.814-4.28 0-2.01-2.559-5.4-2.459-7.01.821-.46 3.359 3.78 4.671 3.78 1.553 0 2.813-1.92 2.813-4.28s-1.26-4.28-2.813-4.28c-1.347 0-3.656 4.24-4.671 3.86l1.706-7.57-4.092.02s1.793 7.34 1.795 7.51h-.032v-.01c-.995.38-3.382-3.89-4.72-3.89-1.553 0-2.813 1.91-2.813 4.28 0 2.36 1.26 4.28 2.813 4.28 1.307 0 3.675-4.17 4.714-3.74-.014 1.65-2.539 5.04-2.539 7.05 0 2.36 1.26 4.28 2.813 4.28z" sodipodi:nodetypes="cscsssccccccssscsc"/>
   <path d="m117.54 139.96c2.67 0 4.83-3.26 4.83-7.28 0-3.43-4.39-9.19-4.22-11.93 1.41-.79 5.77 6.43 8.02 6.43 2.67 0 4.83-3.26 4.83-7.28s-2.16-7.29-4.83-7.29c-2.31 0-6.28 7.22-8.02 6.57l2.93-12.88-7.02.04s3.07 12.49 3.08 12.78h-.06v-.01c-1.71.64-5.8-6.64-8.1-6.64-2.67 0-4.83 3.27-4.83 7.29s2.16 7.29 4.83 7.29c2.24 0 6.31-7.1 8.09-6.37-.02 2.8-4.36 8.57-4.36 12 0 4.02 2.17 7.28 4.83 7.28z" sodipodi:nodetypes="cscsssccccccssscsc"/>
  </g>
 </g>
</svg>
