<?xml version="1.0" encoding="UTF-8" standalone="no"?>
<svg xmlns:rdf="http://www.w3.org/1999/02/22-rdf-syntax-ns#" xmlns="http://www.w3.org/2000/svg" sodipodi:docname="simple_s_9.svg" height="190" sodipodi:version="0.32" width="140" version="1.0" xmlns:xlink="http://www.w3.org/1999/xlink" y="0" x="0" xmlns:cc="http://web.resource.org/cc/" xmlns:dc="http://purl.org/dc/elements/1.1/" sodipodi:docbase="/home/nicu/Desktop/card_nicu_buculei_01.zip_FILES/cards/simple" xmlns:sodipodi="http://inkscape.sourceforge.net/DTD/sodipodi-0.dtd">
 <sodipodi:namedview bordercolor="#666666" pagecolor="#ffffff" borderopacity="1.0"/>
 <defs>
  <linearGradient id="a" y2="128.7" gradientUnits="userSpaceOnUse" y1="63.1" gradientTransform="translate(0 -1)" x2="109" x1="2">
   <stop stop-color="#ebf0d0" offset="0"/>
   <stop stop-color="#ffffeb" offset="1"/>
  </linearGradient>
 </defs>
 <path fill-opacity=".49804" d="m21 5h103c8.86 0 16 7.136 16 16v153c0 8.86-7.14 16-16 16h-103c-8.864 0-16-7.14-16-16v-153c0-8.864 7.136-16 16-16z"/>
 <g>
  <path fill="#fff" d="m17 1h103c8.86 0 16 7.136 16 16v153c0 8.86-7.14 16-16 16h-103c-8.864 0-16-7.14-16-16v-153c0-8.864 7.136-16 16-16z"/>
  <path fill="#c7891f" d="m19 3h103c8.86 0 16 7.136 16 16v153c0 8.86-7.14 16-16 16h-103c-8.864 0-16-7.14-16-16v-153c0-8.864 7.136-16 16-16z"/>
  <path fill="url(#a)" d="m18 2h103c8.86 0 16 7.136 16 16v153c0 8.86-7.14 16-16 16h-103c-8.864 0-16-7.14-16-16v-153c0-8.864 7.136-16 16-16z"/>
 </g>
 <g transform="matrix(.59314 0 0 .23894 -85.412 49.256)">
  <path stroke-linejoin="round" d="m260.18 149.6c-4.84 19.24-19.68 52-10.28 62.12 5.71 4.66 8.42-4.88 9.57-11.19h.23l-3.79 31.84 8.78-.10s-3.78-30.6-3.79-31.77h.09c.93 5.16 4.46 15.83 8.34 11.77 11.34-11.4-5.36-43.83-9.15-62.67z" fill-rule="evenodd" sodipodi:nodetypes="cccccccccc" stroke-width=".75890"/>
 </g>
 <g transform="matrix(.59314 0 0 .23894 -105.41 .48105)">
  <path stroke-linejoin="round" d="m260.18 149.6c-4.84 19.24-19.68 52-10.28 62.12 5.71 4.66 8.42-4.88 9.57-11.19h.23l-3.79 31.84 8.78-.10s-3.78-30.6-3.79-31.77h.09c.93 5.16 4.46 15.83 8.34 11.77 11.34-11.4-5.36-43.83-9.15-62.67z" fill-rule="evenodd" sodipodi:nodetypes="cccccccccc" stroke-width=".75890"/>
 </g>
 <g transform="matrix(.59314 0 0 .23894 -64.27 .39884)">
  <path stroke-linejoin="round" d="m260.18 149.6c-4.84 19.24-19.68 52-10.28 62.12 5.71 4.66 8.42-4.88 9.57-11.19h.23l-3.79 31.84 8.78-.10s-3.78-30.6-3.79-31.77h.09c.93 5.16 4.46 15.83 8.34 11.77 11.34-11.4-5.36-43.83-9.15-62.67z" fill-rule="evenodd" sodipodi:nodetypes="cccccccccc" stroke-width=".75890"/>
 </g>
 <g transform="matrix(.59314 0 0 .23894 -105.93 35.658)">
  <path stroke-linejoin="round" d="m260.18 149.6c-4.84 19.24-19.68 52-10.28 62.12 5.71 4.66 8.42-4.88 9.57-11.19h.23l-3.79 31.84 8.78-.10s-3.78-30.6-3.79-31.77h.09c.93 5.16 4.46 15.83 8.34 11.77 11.34-11.4-5.36-43.83-9.15-62.67z" fill-rule="evenodd" sodipodi:nodetypes="cccccccccc" stroke-width=".75890"/>
 </g>
 <g transform="matrix(.59314 0 0 .23894 -65.973 34.483)">
  <path stroke-linejoin="round" d="m260.18 149.6c-4.84 19.24-19.68 52-10.28 62.12 5.71 4.66 8.42-4.88 9.57-11.19h.23l-3.79 31.84 8.78-.10s-3.78-30.6-3.79-31.77h.09c.93 5.16 4.46 15.83 8.34 11.77 11.34-11.4-5.36-43.83-9.15-62.67z" fill-rule="evenodd" sodipodi:nodetypes="cccccccccc" stroke-width=".75890"/>
 </g>
 <g transform="matrix(-.59314 0 0 -.23894 202.53 155.13)">
  <path stroke-linejoin="round" d="m260.18 149.6c-4.84 19.24-19.68 52-10.28 62.12 5.71 4.66 8.42-4.88 9.57-11.19h.23l-3.79 31.84 8.78-.10s-3.78-30.6-3.79-31.77h.09c.93 5.16 4.46 15.83 8.34 11.77 11.34-11.4-5.36-43.83-9.15-62.67z" fill-rule="evenodd" sodipodi:nodetypes="cccccccccc" stroke-width=".75890"/>
 </g>
 <g transform="matrix(-.59314 0 0 -.23894 244.2 155.21)">
  <path stroke-linejoin="round" d="m260.18 149.6c-4.84 19.24-19.68 52-10.28 62.12 5.71 4.66 8.42-4.88 9.57-11.19h.23l-3.79 31.84 8.78-.10s-3.78-30.6-3.79-31.77h.09c.93 5.16 4.46 15.83 8.34 11.77 11.34-11.4-5.36-43.83-9.15-62.67z" fill-rule="evenodd" sodipodi:nodetypes="cccccccccc" stroke-width=".75890"/>
 </g>
 <g transform="matrix(-.59314 0 0 -.23894 244.84 185.77)">
  <path stroke-linejoin="round" d="m260.18 149.6c-4.84 19.24-19.68 52-10.28 62.12 5.71 4.66 8.42-4.88 9.57-11.19h.23l-3.79 31.84 8.78-.10s-3.78-30.6-3.79-31.77h.09c.93 5.16 4.46 15.83 8.34 11.77 11.34-11.4-5.36-43.83-9.15-62.67z" fill-rule="evenodd" sodipodi:nodetypes="cccccccccc" stroke-width=".75890"/>
 </g>
 <g transform="matrix(-.59314 0 0 -.23894 203.71 185.77)">
  <path stroke-linejoin="round" d="m260.18 149.6c-4.84 19.24-19.68 52-10.28 62.12 5.71 4.66 8.42-4.88 9.57-11.19h.23l-3.79 31.84 8.78-.10s-3.78-30.6-3.79-31.77h.09c.93 5.16 4.46 15.83 8.34 11.77 11.34-11.4-5.36-43.83-9.15-62.67z" fill-rule="evenodd" sodipodi:nodetypes="cccccccccc" stroke-width=".75890"/>
 </g>
 <g>
  <path d="m20.645 48.665c-4.925 7.825-20.035 21.149-10.463 25.263 5.811 1.894 8.576-1.983 9.747-4.549h.235l-3.859 12.946 8.937-.038s-3.85-12.445-3.859-12.921h.094c.946 2.097 4.536 6.439 8.484 4.785 11.546-4.635-5.455-17.824-9.316-25.486z" sodipodi:nodetypes="cccccccccc" fill-rule="evenodd"/>
  <path fill="#0c0c0c" d="m12.164 41.575v-5.546c1.019.576 1.994 1.012 2.924 1.306.930.282 1.85.422 2.758.422 1.905 0 3.389-.636 4.452-1.909 1.063-1.286 1.689-3.188 1.878-5.706-.754.670-1.557 1.172-2.409 1.507-.853.335-1.778.502-2.775.502-2.536 0-4.585-.891-6.147-2.672-1.55-1.795-2.326-4.153-2.326-7.073 0-3.229.864-5.814 2.592-7.756 1.739-1.943 4.065-2.914 6.978-2.914 3.234 0 5.737 1.32 7.509 3.958 1.772 2.639 2.658 6.37 2.658 11.193 0 4.956-1.036 8.854-3.107 11.694-2.071 2.827-4.912 4.24-8.522 4.24-1.163 0-2.276-.107-3.34-.322-1.063-.201-2.104-.509-3.123-.924m7.891-14.447c1.119 0 1.961-.436 2.526-1.306.565-.884.847-2.204.847-3.959 0-1.741-.282-3.054-.847-3.938s-1.407-1.326-2.526-1.326c-1.118 0-1.96.442-2.525 1.326s-.847 2.197-.847 3.938c0 1.755.282 3.075.847 3.959.565.870 1.407 1.306 2.525 1.306"/>
  <path d="m118.04 140c4.92-7.82 20.03-21.15 10.46-25.26-5.81-1.9-8.58 1.98-9.75 4.55h-.23l3.86-12.95-8.94.04s3.85 12.44 3.86 12.92h-.10c-.94-2.1-4.53-6.44-8.48-4.79-11.547 4.64 5.45 17.83 9.32 25.49z" sodipodi:nodetypes="cccccccccc" fill-rule="evenodd"/>
  <path fill="#0c0c0c" d="m126.52 147.59v5.55c-1.02-.58-2-1.01-2.93-1.31-.93-.28-1.85-.42-2.76-.42-1.9 0-3.38.64-4.45 1.91-1.06 1.28-1.69 3.19-1.88 5.7.76-.67 1.56-1.17 2.41-1.5.86-.34 1.78-.51 2.78-.51 2.53 0 4.58.90 6.14 2.68 1.56 1.79 2.33 4.15 2.33 7.07 0 3.23-.86 5.81-2.59 7.76-1.74 1.94-4.07 2.91-6.98 2.91-3.23 0-5.74-1.32-7.51-3.96s-2.66-6.37-2.66-11.19c0-4.96 1.04-8.86 3.11-11.69s4.91-4.24 8.52-4.24c1.17 0 2.28.10 3.34.32 1.07.20 2.11.51 3.13.92m-7.9 14.45c-1.11 0-1.96.43-2.52 1.3-.57.89-.85 2.21-.85 3.96 0 1.74.28 3.06.85 3.94.56.89 1.41 1.33 2.52 1.33 1.12 0 1.97-.44 2.53-1.33.56-.88.85-2.2.85-3.94 0-1.75-.29-3.07-.85-3.96-.56-.87-1.41-1.3-2.53-1.3"/>
 </g>
</svg>
