<?xml version="1.0" encoding="UTF-8" standalone="no"?>
<svg xmlns:rdf="http://www.w3.org/1999/02/22-rdf-syntax-ns#" xmlns="http://www.w3.org/2000/svg" sodipodi:docname="d_9.svg" height="190" sodipodi:version="0.32" width="140" version="1.0" xmlns:xlink="http://www.w3.org/1999/xlink" y="0" x="0" xmlns:cc="http://web.resource.org/cc/" xmlns:dc="http://purl.org/dc/elements/1.1/" sodipodi:docbase="/home/nicu/Desktop/simple" xmlns:sodipodi="http://inkscape.sourceforge.net/DTD/sodipodi-0.dtd">
 <sodipodi:namedview bordercolor="#666666" pagecolor="#ffffff" borderopacity="1.0"/>
 <defs>
  <linearGradient id="a" y2="128.7" gradientUnits="userSpaceOnUse" y1="63.1" gradientTransform="translate(0 -1)" x2="109" x1="2">
   <stop stop-color="#ebf0d0" offset="0"/>
   <stop stop-color="#ffffeb" offset="1"/>
  </linearGradient>
 </defs>
 <path fill-opacity=".49804" d="m21 5h103c8.86 0 16 7.136 16 16v153c0 8.86-7.14 16-16 16h-103c-8.864 0-16-7.14-16-16v-153c0-8.864 7.136-16 16-16z"/>
 <g>
  <path fill="#fff" d="m17 1h103c8.86 0 16 7.136 16 16v153c0 8.86-7.14 16-16 16h-103c-8.864 0-16-7.14-16-16v-153c0-8.864 7.136-16 16-16z"/>
  <path fill="#c7891f" d="m19 3h103c8.86 0 16 7.136 16 16v153c0 8.86-7.14 16-16 16h-103c-8.864 0-16-7.14-16-16v-153c0-8.864 7.136-16 16-16z"/>
  <path fill="url(#a)" d="m18 2h103c8.86 0 16 7.136 16 16v153c0 8.86-7.14 16-16 16h-103c-8.864 0-16-7.14-16-16v-153c0-8.864 7.136-16 16-16z"/>
 </g>
 <g fill="#f00">
  <path d="m12.164 41.575v-5.546c1.019.576 1.994 1.012 2.924 1.306.930.282 1.85.422 2.758.422 1.905 0 3.389-.636 4.452-1.909 1.063-1.286 1.689-3.188 1.878-5.706-.754.670-1.557 1.172-2.409 1.507-.853.335-1.778.502-2.775.502-2.536 0-4.585-.891-6.147-2.672-1.55-1.795-2.326-4.153-2.326-7.073 0-3.229.864-5.814 2.592-7.756 1.739-1.943 4.065-2.914 6.978-2.914 3.234 0 5.737 1.32 7.509 3.958 1.772 2.639 2.658 6.37 2.658 11.193 0 4.956-1.036 8.854-3.107 11.694-2.071 2.827-4.912 4.24-8.522 4.24-1.163 0-2.276-.107-3.34-.322-1.063-.201-2.104-.509-3.123-.924m7.891-14.447c1.119 0 1.961-.436 2.526-1.306.565-.884.847-2.204.847-3.959 0-1.741-.282-3.054-.847-3.938s-1.407-1.326-2.526-1.326c-1.118 0-1.96.442-2.525 1.326s-.847 2.197-.847 3.938c0 1.755.282 3.075.847 3.959.565.870 1.407 1.306 2.525 1.306"/>
  <path d="m126.52 147.59v5.55c-1.02-.58-2-1.01-2.93-1.31-.93-.28-1.85-.42-2.76-.42-1.9 0-3.38.64-4.45 1.91-1.06 1.28-1.69 3.19-1.88 5.7.76-.67 1.56-1.17 2.41-1.5.86-.34 1.78-.51 2.78-.51 2.53 0 4.58.90 6.14 2.68 1.56 1.79 2.33 4.15 2.33 7.07 0 3.23-.86 5.81-2.59 7.76-1.74 1.94-4.07 2.91-6.98 2.91-3.23 0-5.74-1.32-7.51-3.96s-2.66-6.37-2.66-11.19c0-4.96 1.04-8.86 3.11-11.69s4.91-4.24 8.52-4.24c1.17 0 2.28.10 3.34.32 1.07.20 2.11.51 3.13.92m-7.9 14.45c-1.11 0-1.96.43-2.52 1.3-.57.89-.85 2.21-.85 3.96 0 1.74.28 3.06.85 3.94.56.89 1.41 1.33 2.52 1.33 1.12 0 1.97-.44 2.53-1.33.56-.88.85-2.2.85-3.94 0-1.75-.29-3.07-.85-3.96-.56-.87-1.41-1.3-2.53-1.3"/>
  <g fill-rule="evenodd">
   <path d="m20.41 48.665c-4.126 8.245-7.135 12.498-13.34 17.04 5.872 4.487 10.013 9.124 13.46 16.62 3.079-7.121 6.847-12.43 13.39-16.843-6.582-3.349-10.393-8.654-13.51-16.817z"/>
   <path d="m49.13 36.22c-2.403 4.845-4.155 7.344-7.77 10.013 3.421 2.637 5.832 5.362 7.84 9.767 1.794-4.185 3.988-7.304 7.8-9.898-3.834-1.968-6.054-5.085-7.87-9.882z"/>
   <path d="m90.13 36.22c-2.403 4.845-4.155 7.344-7.77 10.013 3.421 2.637 5.832 5.362 7.84 9.767 1.794-4.185 3.988-7.304 7.8-9.898-3.834-1.968-6.054-5.085-7.87-9.882z"/>
   <path d="m48.77 71.22c-2.403 4.845-4.155 7.344-7.77 10.013 3.421 2.637 5.832 5.362 7.84 9.767 1.794-4.185 3.988-7.304 7.8-9.898-3.834-1.968-6.054-5.085-7.87-9.882z"/>
   <path d="m88.13 70.22c-2.403 4.845-4.155 7.344-7.77 10.013 3.421 2.637 5.832 5.362 7.84 9.767 1.794-4.185 3.988-7.304 7.8-9.898-3.834-1.968-6.054-5.085-7.87-9.882z"/>
   <path d="m89.77 100c-2.403 4.85-4.155 7.34-7.77 10.01 3.421 2.64 5.832 5.37 7.84 9.77 1.794-4.18 3.988-7.3 7.8-9.9-3.834-1.97-6.054-5.08-7.87-9.88z"/>
   <path d="m48.13 100c-2.403 4.85-4.155 7.34-7.77 10.01 3.421 2.64 5.832 5.37 7.84 9.77 1.794-4.18 3.988-7.3 7.8-9.9-3.834-1.97-6.054-5.08-7.87-9.88z"/>
   <path d="m49.13 130c-2.403 4.85-4.155 7.34-7.77 10.01 3.421 2.64 5.832 5.37 7.84 9.77 1.794-4.18 3.988-7.3 7.8-9.9-3.834-1.97-6.054-5.08-7.87-9.88z"/>
   <path d="m69.13 85.22c-2.403 4.845-4.155 7.344-7.77 10.013 3.421 2.637 5.832 5.367 7.84 9.767 1.794-4.18 3.988-7.304 7.8-9.898-3.834-1.968-6.054-5.085-7.87-9.882z"/>
   <path d="m90.13 130.22c-2.403 4.85-4.155 7.34-7.77 10.01 3.421 2.64 5.832 5.37 7.84 9.77 1.794-4.18 3.988-7.3 7.8-9.9-3.834-1.97-6.054-5.08-7.87-9.88z"/>
   <path d="m118.34 106.34c-4.13 8.25-7.13 12.5-13.34 17.04 5.87 4.49 10.01 9.12 13.46 16.62 3.08-7.12 6.85-12.43 13.39-16.84-6.58-3.35-10.39-8.66-13.51-16.82z"/>
  </g>
 </g>
</svg>
