<?xml version="1.0" encoding="UTF-8" standalone="no"?>
<svg xmlns:rdf="http://www.w3.org/1999/02/22-rdf-syntax-ns#" xmlns="http://www.w3.org/2000/svg" sodipodi:docname="d_q.svg" height="190" sodipodi:version="0.32" width="140" version="1.0" xmlns:xlink="http://www.w3.org/1999/xlink" y="0" x="0" xmlns:cc="http://web.resource.org/cc/" xmlns:dc="http://purl.org/dc/elements/1.1/" sodipodi:docbase="/home/nicu/Desktop/simple" xmlns:sodipodi="http://inkscape.sourceforge.net/DTD/sodipodi-0.dtd">
 <sodipodi:namedview bordercolor="#666666" pagecolor="#ffffff" borderopacity="1.0"/>
 <defs>
  <linearGradient id="c" y2="128.7" gradientUnits="userSpaceOnUse" y1="63.1" gradientTransform="translate(0 -1)" x2="109" x1="2">
   <stop stop-color="#ebf0d0" offset="0"/>
   <stop stop-color="#ffffeb" offset="1"/>
  </linearGradient>
  <linearGradient id="a">
   <stop stop-color="#f0a700" offset="0"/>
   <stop stop-color="#ffed00" offset="1"/>
  </linearGradient>
  <linearGradient id="b">
   <stop stop-color="#ffd8c1" offset="0"/>
   <stop stop-color="#ffeded" offset="1"/>
  </linearGradient>
  <linearGradient id="k" y2="256.18" xlink:href="#b" gradientUnits="userSpaceOnUse" y1="437.5" gradientTransform="matrix(.18682 0 0 .14486 12.089 108.53)" x2="484.8" x1="356.44"/>
  <linearGradient id="j" y2="415.54" gradientUnits="userSpaceOnUse" y1="540.54" gradientTransform="matrix(.14486 0 0 .14486 37.484 121.17)" x2="449.32" x1="298.99">
   <stop stop-color="#0083cc" offset="0"/>
   <stop stop-color="#24a4cc" offset="1"/>
  </linearGradient>
  <linearGradient id="i" y2="143.66" xlink:href="#a" gradientUnits="userSpaceOnUse" y1="182.17" gradientTransform="scale(1.0757 .92964)" x2="116.13" x1="74.021"/>
  <linearGradient id="h" y2="85.362" xlink:href="#a" gradientUnits="userSpaceOnUse" y1="146.36" x2="698" x1="632"/>
  <linearGradient id="g" y2="160.36" gradientUnits="userSpaceOnUse" y1="210.36" x2="708" x1="653">
   <stop stop-color="#f0eb00" offset="0"/>
   <stop stop-color="#ff0" offset="1"/>
  </linearGradient>
  <linearGradient id="f" y2="322.14" gradientUnits="userSpaceOnUse" y1="346.33" gradientTransform="matrix(.14486 0 0 .14486 34.882 120.52)" x2="312.09" x1="294.25">
   <stop stop-color="#c10000" offset="0"/>
   <stop stop-color="#ff433e" offset="1"/>
  </linearGradient>
  <linearGradient id="e" y2="113.29" xlink:href="#b" gradientUnits="userSpaceOnUse" y1="122.48" gradientTransform="translate(24.438 65.208)" x2="65.8" x1="53.127"/>
  <linearGradient id="d" y2="98.109" gradientUnits="userSpaceOnUse" y1="46.291" gradientTransform="translate(181.44 56.211)" x2="-101.91" x1="-21.764">
   <stop stop-color="#fff" offset="0"/>
   <stop stop-color="#fff" stop-opacity="0" offset="1"/>
  </linearGradient>
 </defs>
 <g transform="translate(0.25)">
  <path fill-opacity=".49804" d="m21 5h103c8.86 0 16 7.136 16 16v153c0 8.86-7.14 16-16 16h-103c-8.864 0-16-7.14-16-16v-153c0-8.864 7.136-16 16-16z"/>
  <g>
   <path fill="#fff" d="m17 1h103c8.86 0 16 7.136 16 16v153c0 8.86-7.14 16-16 16h-103c-8.864 0-16-7.14-16-16v-153c0-8.864 7.136-16 16-16z"/>
   <path fill="#c7891f" d="m19 3h103c8.86 0 16 7.136 16 16v153c0 8.86-7.14 16-16 16h-103c-8.864 0-16-7.14-16-16v-153c0-8.864 7.136-16 16-16z"/>
   <path fill="url(#c)" d="m18 2h103c8.86 0 16 7.136 16 16v153c0 8.86-7.14 16-16 16h-103c-8.864 0-16-7.14-16-16v-153c0-8.864 7.136-16 16-16z"/>
  </g>
 </g>
 <g fill="#f00">
  <path d="m22.289 42.783h-.499c-4.087 0-7.265-1.367-9.536-4.1-2.2703-2.732-3.4056-6.537-3.4056-11.413 0-4.862 1.1297-8.674 3.3896-11.433 2.27-2.76 5.393-4.139 9.369-4.139 4.021 0 7.15 1.366 9.387 4.099 2.248 2.733 3.373 6.557 3.373 11.473 0 3.376-.599 6.283-1.795 8.721-1.185 2.438-2.896 4.273-5.133 5.506l5 6.751h-6.097l-4.053-5.465m-.682-25.479c-1.949 0-3.461.871-4.535 2.612s-1.611 4.193-1.611 7.354c0 3.215.526 5.68 1.578 7.395 1.052 1.701 2.575 2.552 4.568 2.552 1.961 0 3.478-.871 4.553-2.613 1.074-1.741 1.611-4.186 1.611-7.334 0-3.161-.537-5.613-1.611-7.354-1.075-1.741-2.592-2.612-4.553-2.612"/>
  <path d="m116.9 146.09h.50c4.09 0 7.27 1.36 9.54 4.1 2.27 2.73 3.4 6.53 3.4 11.41 0 4.86-1.13 8.67-3.39 11.43-2.27 2.76-5.39 4.14-9.37 4.14-4.02 0-7.15-1.36-9.38-4.1-2.25-2.73-3.38-6.55-3.38-11.47 0-3.38.60-6.28 1.8-8.72 1.18-2.44 2.89-4.27 5.13-5.51l-5-6.75h6.1l4.05 5.47m.68 25.48c1.95 0 3.46-.87 4.54-2.62 1.07-1.74 1.61-4.19 1.61-7.35 0-3.22-.53-5.68-1.58-7.39s-2.57-2.56-4.57-2.56c-1.96 0-3.48.87-4.55 2.62-1.07 1.74-1.61 4.18-1.61 7.33 0 3.16.54 5.61 1.61 7.35 1.07 1.75 2.59 2.62 4.55 2.62"/>
  <path d="m20.66 48.665c-4.126 8.245-7.135 12.498-13.34 17.04 5.872 4.487 10.013 9.124 13.46 16.62 3.079-7.121 6.847-12.43 13.39-16.843-6.582-3.349-10.393-8.654-13.51-16.817z" fill-rule="evenodd"/>
  <path d="m118.59 106.34c-4.13 8.25-7.13 12.5-13.34 17.04 5.87 4.49 10.01 9.12 13.46 16.62 3.08-7.12 6.85-12.43 13.39-16.84-6.58-3.35-10.39-8.66-13.51-16.82z" fill-rule="evenodd"/>
 </g>
 <g transform="translate(-22.25 -70.697)">
  <path d="m78.088 116.75c.248 8.39-8.775-11.84-4.95 1.02-.178 4.95 5.745 12.65 1.643 15.66-5.489 3.2-9.415 8.68-11.281 14.72 6.724-.96 2.783 4.8 3.489 8.9.205 7.75 5.801 16.13 12.775 19.9-8.466 1.63-11.54 8.88-10.669 15.89-5.694 3.82-.009 8.98-.851 12.52 1.62 3.99 8.94 3.77 13.068 4.94 10.522.87 21.438.55 31.348-3.5-.83-9.42 4.23-22.26-8.29-28.64 6.22-.12 14.1-1.57 20.13-2.89-6.86-2.71-18.93-5.58-16.76-15.31 1.54-11.46-2.27-26.82-15.428-28.97 1.029-6.32 2.549-12.59 2.5-19.03-5.677 14.51-4.546-8.82-7.218 1.22-2.054 7.8-3.523-10.38-5.182 2.97-1.973-2.18-3.701-14.03-3.852-2.27l-.472 2.87z" sodipodi:nodetypes="ccccccccccccccccccc"/>
  <path fill="url(#k)" d="m102.66 155.88c0 11.41-7.563 20.68-16.883 20.68s-16.884-9.27-16.884-20.68 7.564-20.68 16.884-20.68 16.883 9.27 16.883 20.68z"/>
  <path fill="url(#j)" d="m82.737 177.71c-7.049 0-12.719 5.67-12.719 12.72v3.19c-1.177 1.83-2.333 3.55-2.094 4.96.177 1.05 1.093 1.9 2.094 2.63v4.12c9.38 4.65 29.532 4.9 40.622 0v-14.9c0-7.05-5.67-12.72-12.716-12.72h-15.187z"/>
  <path d="m66.238 146.58s3.897-14.13 20.612-14.41c16.43-.28 20.82 13.88 18.97 29.83-1.72 8.5 11.9 12.79 11.9 12.79-4.86 1.57-16.45 3.01-23.696.51 6.286-4.72 1.046-27.34-2.379-30.28-4.269 3.39-21.034 3.09-25.407 1.56z" sodipodi:nodetypes="ccccccc" fill-rule="evenodd" fill="url(#i)"/>
  <g transform="matrix(.14486 0 0 .14486 34.882 120.52)">
   <path d="m353 245.86c0 11.87-9.41 21.5-21 21.5s-21-9.63-21-21.5 9.41-21.5 21-21.5 21 9.63 21 21.5z" transform="translate(-4 -6)" fill="#fff"/>
   <path d="m353 245.86c0 11.87-9.41 21.5-21 21.5s-21-9.63-21-21.5 9.41-21.5 21-21.5 21 9.63 21 21.5z" transform="matrix(.57143 0 0 .83721 129.29 34.524)" fill="#0f90cc"/>
   <path d="m353 245.86c0 11.87-9.41 21.5-21 21.5s-21-9.63-21-21.5 9.41-21.5 21-21.5 21 9.63 21 21.5z" transform="matrix(.35714 0 0 .67442 195.93 76.048)"/>
  </g>
  <g fill-rule="evenodd" transform="matrix(.11980 0 0 .097053 4.5969 112.88)">
   <path d="m618 99.362l10-85 38 115s34-123 34-119c0 4.002 23 91 23 91l-18 70h-77l-10-71.998z" sodipodi:nodetypes="cccccccc" fill="url(#h)"/>
   <path d="m589 51.362l36 179c27 10.67 60 9.34 84 1l25-178-44 89-23-119-23 118-55-89.998z" sodipodi:nodetypes="cccccccc" fill="url(#g)"/>
  </g>
  <g transform="matrix(.14486 0 0 .14486 24.793 120.02)">
   <path d="m353 245.86c0 11.87-9.41 21.5-21 21.5s-21-9.63-21-21.5 9.41-21.5 21-21.5 21 9.63 21 21.5z" transform="translate(-4 -6)" fill="#fff"/>
   <path d="m353 245.86c0 11.87-9.41 21.5-21 21.5s-21-9.63-21-21.5 9.41-21.5 21-21.5 21 9.63 21 21.5z" transform="matrix(.57143 0 0 .83721 129.29 34.524)" fill="#0f90cc"/>
   <path d="m353 245.86c0 11.87-9.41 21.5-21 21.5s-21-9.63-21-21.5 9.41-21.5 21-21.5 21 9.63 21 21.5z" transform="matrix(.35714 0 0 .67442 195.93 76.048)"/>
  </g>
  <path d="m74.227 167.92c3.53 4.41 6.935 2.9 11.727 0-4.287-.25-7.188-1.51-11.727 0z" sodipodi:nodetypes="ccc" fill-rule="evenodd" fill="url(#f)"/>
  <path d="m96.849 193.57l1.264.13 1.371 14.51-3.465.25.830-14.89z" sodipodi:nodetypes="ccccc" fill="#004cb0"/>
  <g fill-rule="evenodd">
   <path d="m80.219 199.02l-.813.56c2.044 2.96 3.742 5.68 5.887 6.06 2.146.38 4.673-1.55 6.707-2.46l-.406-.91c-1.956.88-3.844 1.42-5.688 1.09-1.844-.32-3.741-1.52-5.687-4.34z" sodipodi:nodetypes="ccccccc" fill="#004cb0"/>
   <path d="m75.888 157.47c-.792 1.29-1.734 2.49-1.57 3.47.164.97 1.442 1.67 2.232 2.23l.331-.48c-.695-.49-1.152-1.13-1.287-1.93s.050-1.79.790-2.99l-.496-.30z" sodipodi:nodetypes="ccccccc"/>
   <path d="m80.724 178.25s-6.318 11.77-4.882 20.38c5.456-9.76 12.635-19.24 16.656-20.96-1.436-.57-10.338-.29-11.774.58z" sodipodi:nodetypes="cccc" fill="url(#e)"/>
   <path d="m67.836 198.51c.279 1.65 2.451 2.84 3.794 3.8l.327-.27c-1.181-.84-1.764-.96-1.994-2.32-.229-1.36-2.407-2.87-2.127-1.21z" sodipodi:nodetypes="ccccc" fill="#004cb0"/>
  </g>
  <path fill="url(#d)" d="m88.469 113.9c0-.24-1.37 3.73-2.563 7.19l-1.406-5.94-1.594 6.65-3.062-7.53-1.219 8.19-3.469-4.59 3.906 15.78c-10.095 3.59-12.812 12.94-12.812 12.94.889.31 2.514.53 4.219.71-.983 2.63-1.563 5.53-1.563 8.6 0 11.41 7.555 20.65 16.875 20.65 3.864 0 7.373-1.66 10.219-4.34-.467 1.31-1.066 2.42-1.969 3.09 7.239 2.5 18.839 1.08 23.689-.50 0 0-13.62-4.31-11.91-12.81 1.72-14.82-2.07-27.92-15.779-29.5l2.5-14.44-1.843 3c-.684-2.1-2.219-6.84-2.219-7.15zm-5.719 63.81c-7.049 0-12.719 5.67-12.719 12.72v3.19c-1.177 1.83-2.333 3.55-2.093 4.97.176 1.04 1.092 1.89 2.093 2.62v4.16c6.012 2.98 16.361 3.92 26 3.09 1.149-.10 2.321-.09 3.438-.25 4.131-.58 8.051-1.46 11.191-2.84v-14.94c0-7.05-5.7-12.72-12.754-12.72h-15.156z"/>
 </g>
</svg>
