<?xml version="1.0" encoding="UTF-8" standalone="no"?>
<svg xmlns:rdf="http://www.w3.org/1999/02/22-rdf-syntax-ns#" xmlns="http://www.w3.org/2000/svg" sodipodi:docname="h_k.svg" height="190" sodipodi:version="0.32" width="140" version="1.0" xmlns:xlink="http://www.w3.org/1999/xlink" y="0" x="0" xmlns:cc="http://web.resource.org/cc/" xmlns:dc="http://purl.org/dc/elements/1.1/" sodipodi:docbase="/home/nicu/Desktop/simple" xmlns:sodipodi="http://inkscape.sourceforge.net/DTD/sodipodi-0.dtd">
 <sodipodi:namedview bordercolor="#666666" pagecolor="#ffffff" borderopacity="1.0"/>
 <defs>
  <linearGradient id="b" y2="128.7" gradientUnits="userSpaceOnUse" y1="63.1" gradientTransform="translate(0 -1)" x2="109" x1="2">
   <stop stop-color="#ebf0d0" offset="0"/>
   <stop stop-color="#ffffeb" offset="1"/>
  </linearGradient>
  <linearGradient id="a">
   <stop stop-color="#f0eb00" offset="0"/>
   <stop stop-color="#ff0" offset="1"/>
  </linearGradient>
  <linearGradient id="k" y2="256.18" gradientUnits="userSpaceOnUse" y1="437.5" gradientTransform="matrix(.18682 0 0 .14486 -46.32 212.05)" x2="484.8" x1="356.44">
   <stop stop-color="#ffd8c1" offset="0"/>
   <stop stop-color="#ffeded" offset="1"/>
  </linearGradient>
  <linearGradient id="j" y2="101.98" xlink:href="#a" gradientUnits="userSpaceOnUse" y1="103.13" gradientTransform="translate(-16.627 179.29)" x2="32.217" x1="25.75"/>
  <linearGradient id="i" y2="415.54" gradientUnits="userSpaceOnUse" y1="540.54" gradientTransform="matrix(.14486 0 0 .14486 -23.925 222.69)" x2="449.32" x1="298.99">
   <stop stop-color="#008200" offset="0"/>
   <stop stop-color="#00d000" offset="1"/>
  </linearGradient>
  <linearGradient id="h" y2="322.14" gradientUnits="userSpaceOnUse" y1="346.33" gradientTransform="matrix(.14486 0 0 .14486 -23.527 225.38)" x2="312.09" x1="294.25">
   <stop stop-color="#c10000" offset="0"/>
   <stop stop-color="#ff433e" offset="1"/>
  </linearGradient>
  <linearGradient id="g" y2="51.181" gradientUnits="userSpaceOnUse" y1="58.34" gradientTransform="translate(-16.627 179.29)" x2="60" x1="32.464">
   <stop stop-color="#f0a700" offset="0"/>
   <stop stop-color="#ffed00" offset="1"/>
  </linearGradient>
  <linearGradient id="f" y2="56.605" xlink:href="#a" gradientUnits="userSpaceOnUse" y1="63.942" gradientTransform="translate(-16.627 179.29)" x2="60.723" x1="32.969"/>
  <linearGradient id="e" y2="103.15" xlink:href="#a" gradientUnits="userSpaceOnUse" y1="104.92" gradientTransform="translate(-16.627 179.29)" x2="61.035" x1="58.248"/>
  <linearGradient id="d" y2="110.93" xlink:href="#a" gradientUnits="userSpaceOnUse" y1="116.76" gradientTransform="translate(-13.307 182.41)" x2="43.598" x1="36.313"/>
  <linearGradient id="c" y2="346.67" gradientUnits="userSpaceOnUse" y1="-31.93" gradientTransform="matrix(.18682 0 0 .14486 -46.318 212.05)" x2="361.5" x1="688.3">
   <stop stop-color="#fff" offset="0"/>
   <stop stop-color="#fff" stop-opacity="0" offset="1"/>
  </linearGradient>
 </defs>
 <path fill-opacity=".49804" d="m21 5h103c8.86 0 16 7.136 16 16v153c0 8.86-7.14 16-16 16h-103c-8.864 0-16-7.14-16-16v-153c0-8.864 7.136-16 16-16z"/>
 <g>
  <path fill="#fff" d="m17 1h103c8.86 0 16 7.136 16 16v153c0 8.86-7.14 16-16 16h-103c-8.864 0-16-7.14-16-16v-153c0-8.864 7.136-16 16-16z"/>
  <path fill="#c7891f" d="m19 3h103c8.86 0 16 7.136 16 16v153c0 8.86-7.14 16-16 16h-103c-8.864 0-16-7.14-16-16v-153c0-8.864 7.136-16 16-16z"/>
  <path fill="url(#b)" d="m18 2h103c8.86 0 16 7.136 16 16v153c0 8.86-7.14 16-16 16h-103c-8.864 0-16-7.14-16-16v-153c0-8.864 7.136-16 16-16z"/>
 </g>
 <g fill="#f00">
  <path d="m10.027 12.24h6.396v10.951l9.221-10.951h7.426l-11.945 14.206 13.174 15.794h-8.007l-9.869-11.815v11.815h-6.396v-30"/>
  <path d="m128.66 176.63h-6.39v-10.95l-9.22 10.95h-7.43l11.95-14.21-13.18-15.79h8.01l9.87 11.82v-11.82h6.39v30"/>
  <g transform="matrix(.28639 0 0 .38877 -29.608 -9.4724)">
   <path fill-rule="evenodd" transform="matrix(1.1054 0 0 1.0796 -12.014 -18.867)" d="m147.21 156.42c-2.54.01-5.33.48-8.41 1.53-33.62 19.53 11.7 51.04 30.84 78.09l.56.14c21.03-29.57 61.07-62.11 30.47-78.23-24.23-8.25-30.71 19.2-30.93 20.19-.20-.87-5.15-21.81-22.53-21.72z"/>
  </g>
  <g transform="matrix(-.28643 0 0 -.38877 168.48 198.31)">
   <path fill-rule="evenodd" transform="matrix(1.1054 0 0 1.0796 -12.014 -18.867)" d="m147.21 156.42c-2.54.01-5.33.48-8.41 1.53-33.62 19.53 11.7 51.04 30.84 78.09l.56.14c21.03-29.57 61.07-62.11 30.47-78.23-24.23-8.25-30.71 19.2-30.93 20.19-.20-.87-5.15-21.81-22.53-21.72z"/>
  </g>
 </g>
 <g transform="matrix(1.0001 0 0 1 42.25 -172.25)">
  <path d="m25.869 225.59c-1.984-1.62-3.418-2.63-5.778-5.12-1.766 7.19-4.003 6.15-7.028 3.61-3.019-3.03-2.781 11.1-8.6028-1.83-1.678.23 1.7377 10.87 2.2013 15.01 3.4695 4.9-2.0115 11.1-.2758 14.6 5.7373-.37.6404 6.23 2.3582 9.76.3734 4.68 2.0211 8.46 2.6611 12.74 9.695 4.43-8.42 7.46-4.2215 11.01.7945 3.27-1.5587 9.17-.5602 13.58-.7124 6-.6270 11.41 6.7497 11.69 12.781 2.48 25.817 2.39 37.875-2.35.135-6.98-.095-14.9-.218-21.34 3.164-3.86-7.896-6.5-10.38-9.98 3.527-4.32 2.31-12.73 9.464-13.33.760-6.26-1.413-13.96-4.741-19.85 1.071-7.66 2.343-15.29 3.063-23-7.17 14.8-4.284-3.01-7.451 4.02-2.051 2.3-3.298-.73-4.604-.61-1.296-5.82-3.648 7.24-5.383-3.66-2.244 9.14-2.866-6.3-4.453 3.08l-.676 1.97z" sodipodi:nodetypes="cccccccccccccccccccccc"/>
  <path fill="url(#k)" d="m44.252 259.4c0 11.41-7.564 20.67-16.883 20.67-9.32 0-16.884-9.26-16.884-20.67 0-11.42 7.564-20.68 16.884-20.68 9.319 0 16.883 9.26 16.883 20.68z"/>
  <path d="m10.873 285.54l-2.0452-1.42 6.7802-5.53 1.515 3.2s-5.919 4.02-6.25 3.75z" sodipodi:nodetypes="ccccc" fill-rule="evenodd" fill="url(#j)"/>
  <path d="m21.343 279.21c-7.049 0-12.724 5.68-12.724 12.73l-.0005 14.93c9.3795 4.64 29.526 4.89 40.618 0l.001-14.93c0-7.05-5.675-12.73-12.724-12.73h-15.17z" sodipodi:nodetypes="ccccccc" fill="url(#i)"/>
  <path d="m7.8299 250.1s1.698-14.38 20.612-14.41c19.976.81 19.997 26.49 19.997 26.49-4.853 1.58-3.505 3.26-10.747.76.791-5.7-0.5-9.88-3.925-12.81-4.269 2.23-21.564 1.5-25.937-.03z" sodipodi:nodetypes="cccccc" fill-rule="evenodd" fill="#8d0000"/>
  <g transform="matrix(.14486 0 0 .097903 -23.725 236.11)">
   <path d="m353 245.86c0 11.87-9.41 21.5-21 21.5s-21-9.63-21-21.5 9.41-21.5 21-21.5 21 9.63 21 21.5z" transform="translate(-4 -6)" fill="#fff"/>
   <path d="m353 245.86c0 11.87-9.41 21.5-21 21.5s-21-9.63-21-21.5 9.41-21.5 21-21.5 21 9.63 21 21.5z" transform="matrix(.57143 0 0 .83721 129.29 34.524)" fill="#04cd04"/>
   <path d="m353 245.86c0 11.87-9.41 21.5-21 21.5s-21-9.63-21-21.5 9.41-21.5 21-21.5 21 9.63 21 21.5z" transform="matrix(.35714 0 0 .67442 195.93 76.048)"/>
  </g>
  <g transform="matrix(.14486 0 0 .097903 -33.814 235.77)">
   <path d="m353 245.86c0 11.87-9.41 21.5-21 21.5s-21-9.63-21-21.5 9.41-21.5 21-21.5 21 9.63 21 21.5z" transform="translate(-4 -6)" fill="#fff"/>
   <path d="m353 245.86c0 11.87-9.41 21.5-21 21.5s-21-9.63-21-21.5 9.41-21.5 21-21.5 21 9.63 21 21.5z" transform="matrix(.57143 0 0 .83721 129.29 34.524)" fill="#04cd04"/>
   <path d="m353 245.86c0 11.87-9.41 21.5-21 21.5s-21-9.63-21-21.5 9.41-21.5 21-21.5 21 9.63 21 21.5z" transform="matrix(.35714 0 0 .67442 195.93 76.048)"/>
  </g>
  <path d="m15.818 272.78c2.92.14 7.302.33 11.728 0-4.654-1.72-7.921-2.25-11.728 0z" sodipodi:nodetypes="ccc" fill-rule="evenodd" fill="url(#h)"/>
  <path d="m35.441 295.09l1.263.12 1.372 14.52-3.465.25.830-14.89z" sodipodi:nodetypes="ccccc" fill="#005a00"/>
  <path d="m17.48 260.99c-.792 1.29-1.945 3.4-1.781 4.37.164.98 1.652.77 2.442 1.33l.331-.48c-.695-.49-1.783-.01-1.918-.81s.681-2.91 1.422-4.12l-.496-.29z" sodipodi:nodetypes="ccccccc" fill-rule="evenodd"/>
  <g fill="#8d0000" fill-rule="evenodd">
   <path d="m19.215 273.57c1.104 2.34-.668 2.36-1.458 2.73-.614-.46-1.929-1.83-2.337-2.78-.129 5.31 1.724 8.2 3.068 9.67 1.343 1.46 9.282 2.56 13.557 0 4.275-2.57 13.239-11.34 8.362-18.52-.668.46-1.884.36-2.744.20.122 1.58-2.019 6.19-5.927 7.9s-6.723 2.12-7.752 3.65c-2.011.06-3.134-.75-2.222-2.83-.491.16-2.006-.02-2.547-.02z" sodipodi:nodetypes="ccccccccccc"/>
   <path d="m20.134 268.21s-7.085 1.82-7.505 3.09c-.421 1.26 1.052 2.73 1.052 2.73s4.63-3.86 6.594-3.79c-.141-.49.070-1.12-.141-2.03z" sodipodi:nodetypes="ccccc"/>
   <path d="m20.673 268.23s7.408.12 8.188 1.19c.779 1.08-.186 2.93-.186 2.93s-5.742-2.88-7.595-2.22c-.013-.51-.335-.97-.407-1.9z" sodipodi:nodetypes="ccccc"/>
  </g>
  <g fill-rule="evenodd">
   <path d="m9.4466 232.68l2.5884-6.61 5.088 6.97 3.574-8.73 4.457 8.54s3.131-8.84 3.131-8.16 3.295 9.23 3.295 9.23l3.75-8.2 2.491 8.11 4.302-7.04 1.25 6.25v5s-27.5 1.25-30 0-4.0135-5.22-3.9264-5.36z" sodipodi:nodetypes="cccccccccccccc" fill="url(#g)"/>
   <path d="m10.155 244.22c10.076 2.39 22.627 2.48 33.146 0l2.386-16.52-4.596 6.54-2.828-7.43-3.536 7.25-3.624-8.31-3.27 8.22-3.713-8.04-3.27 8.75-4.861-7.6-3.624 7.86-5.5687-6.89s3.0935 15.82 3.3587 16.17z" sodipodi:nodetypes="cccccccccccccc" fill="url(#f)"/>
   <path d="m40.649 278.78c-.672.51-2.917 2.39-2.917 2.39l9.391 6.87 2.5-2.5-8.974-6.76z" sodipodi:nodetypes="ccccc" fill="url(#e)"/>
   <path d="m26.533 295.85l-6.942-7.95h17.405l-10.463 7.95z" fill="#ff8900"/>
   <path d="m24.258 290.01l-2.754 3.4 3.939 2.75-4.278 3.07 2.852 2.83 2.893-4.93 2.99 4.83 3.043-3.3-5-2.5 4.723-3.22-3.119-2.75-2.549 4.99-2.74-5.17z" sodipodi:nodetypes="ccccccccccccc" fill="url(#d)"/>
  </g>
  <path fill="url(#c)" d="m20.688 224.29l-2.532 6.19-2.156-3.41-1.25 2.72-2.719-3.72-2.2185 5.69-3-3.72s3.0786 15.84 3.3435 16.19h.032c-1.946 3.1-2.3442 5.87-2.3442 5.87.8673.31 2.5062.56 4.1872.79-.966 2.6-1.531 5.45-1.531 8.5 0 4.21 1.04 8.13 2.812 11.4-.239.18-.634.34-.687.50-.421 1.26 1.063 2.75 1.063 2.75s.787-.56 1.187-.87c.199.27.353.58.563.84.003 2.65.517 4.61 1.187 6.13-.079.03-.172.03-.250.06l-.750-1.63-6.7812 5.53 1.8442 1.32c-1.1852 1.93-2.063 4.09-2.063 6.53v14.9c6.012 2.98 16.36 3.93 26 3.1v.03l3.437-.25v-.03c4.135-.58 8.053-1.46 11.188-2.85v-14.9c0-1.78-.378-3.47-1.031-5l1.406-1.41-8.969-6.75c-.237.18-.570.47-1.031.85-.939-.24-1.927-.40-2.937-.41 2.438-2.53 4.709-5.75 5.062-9.13.922-1.85 1.62-3.85 2.031-6.03 1.255-.27 2.128-1.08 4.657-1.9 0 0-.041-10.27-5.126-18.03.027-.19 2.376-16.44 2.376-16.44l-2.626 3.75-.937-4.66-2.375 3.91-1.5-3.88-1.594 3.25-1.312-4.34-2.188 4.78-2.062-4.75-1.282 3.22c-.760-2.06-1.531-3.97-1.531-4.28 0-.47-1.231 3.03-2.156 5.59l-2-4.37-1.094 2.87-2.343-4.5z"/>
 </g>
</svg>
