<?xml version="1.0" encoding="UTF-8" standalone="no"?>
<svg xmlns:rdf="http://www.w3.org/1999/02/22-rdf-syntax-ns#" xmlns="http://www.w3.org/2000/svg" sodipodi:docname="simple_s_8.svg" height="190" sodipodi:version="0.32" width="140" version="1.0" xmlns:xlink="http://www.w3.org/1999/xlink" y="0" x="0" xmlns:cc="http://web.resource.org/cc/" xmlns:dc="http://purl.org/dc/elements/1.1/" sodipodi:docbase="/home/nicu/Desktop/card_nicu_buculei_01.zip_FILES/cards/simple" xmlns:sodipodi="http://inkscape.sourceforge.net/DTD/sodipodi-0.dtd">
 <sodipodi:namedview bordercolor="#666666" pagecolor="#ffffff" borderopacity="1.0"/>
 <defs>
  <linearGradient id="a" y2="128.7" gradientUnits="userSpaceOnUse" y1="63.1" gradientTransform="translate(0 -1)" x2="109" x1="2">
   <stop stop-color="#ebf0d0" offset="0"/>
   <stop stop-color="#ffffeb" offset="1"/>
  </linearGradient>
 </defs>
 <path fill-opacity=".49804" d="m21 5h103c8.86 0 16 7.136 16 16v153c0 8.86-7.14 16-16 16h-103c-8.864 0-16-7.14-16-16v-153c0-8.864 7.136-16 16-16z"/>
 <g>
  <path fill="#fff" d="m17 1h103c8.86 0 16 7.136 16 16v153c0 8.86-7.14 16-16 16h-103c-8.864 0-16-7.14-16-16v-153c0-8.864 7.136-16 16-16z"/>
  <path fill="#c7891f" d="m19 3h103c8.86 0 16 7.136 16 16v153c0 8.86-7.14 16-16 16h-103c-8.864 0-16-7.14-16-16v-153c0-8.864 7.136-16 16-16z"/>
  <path fill="url(#a)" d="m18 2h103c8.86 0 16 7.136 16 16v153c0 8.86-7.14 16-16 16h-103c-8.864 0-16-7.14-16-16v-153c0-8.864 7.136-16 16-16z"/>
 </g>
 <g transform="matrix(.59314 0 0 .23894 -105.41 .48105)">
  <path stroke-linejoin="round" d="m260.18 149.6c-4.84 19.24-19.68 52-10.28 62.12 5.71 4.66 8.42-4.88 9.57-11.19h.23l-3.79 31.84 8.78-.10s-3.78-30.6-3.79-31.77h.09c.93 5.16 4.46 15.83 8.34 11.77 11.34-11.4-5.36-43.83-9.15-62.67z" fill-rule="evenodd" sodipodi:nodetypes="cccccccccc" stroke-width=".75890"/>
 </g>
 <g transform="matrix(.59314 0 0 .23894 -64.27 .39884)">
  <path stroke-linejoin="round" d="m260.18 149.6c-4.84 19.24-19.68 52-10.28 62.12 5.71 4.66 8.42-4.88 9.57-11.19h.23l-3.79 31.84 8.78-.10s-3.78-30.6-3.79-31.77h.09c.93 5.16 4.46 15.83 8.34 11.77 11.34-11.4-5.36-43.83-9.15-62.67z" fill-rule="evenodd" sodipodi:nodetypes="cccccccccc" stroke-width=".75890"/>
 </g>
 <g transform="matrix(.59314 0 0 .23894 -105.93 35.658)">
  <path stroke-linejoin="round" d="m260.18 149.6c-4.84 19.24-19.68 52-10.28 62.12 5.71 4.66 8.42-4.88 9.57-11.19h.23l-3.79 31.84 8.78-.10s-3.78-30.6-3.79-31.77h.09c.93 5.16 4.46 15.83 8.34 11.77 11.34-11.4-5.36-43.83-9.15-62.67z" fill-rule="evenodd" sodipodi:nodetypes="cccccccccc" stroke-width=".75890"/>
 </g>
 <g transform="matrix(.59314 0 0 .23894 -65.973 34.483)">
  <path stroke-linejoin="round" d="m260.18 149.6c-4.84 19.24-19.68 52-10.28 62.12 5.71 4.66 8.42-4.88 9.57-11.19h.23l-3.79 31.84 8.78-.10s-3.78-30.6-3.79-31.77h.09c.93 5.16 4.46 15.83 8.34 11.77 11.34-11.4-5.36-43.83-9.15-62.67z" fill-rule="evenodd" sodipodi:nodetypes="cccccccccc" stroke-width=".75890"/>
 </g>
 <g transform="matrix(-.59314 0 0 -.23894 202.53 155.13)">
  <path stroke-linejoin="round" d="m260.18 149.6c-4.84 19.24-19.68 52-10.28 62.12 5.71 4.66 8.42-4.88 9.57-11.19h.23l-3.79 31.84 8.78-.10s-3.78-30.6-3.79-31.77h.09c.93 5.16 4.46 15.83 8.34 11.77 11.34-11.4-5.36-43.83-9.15-62.67z" fill-rule="evenodd" sodipodi:nodetypes="cccccccccc" stroke-width=".75890"/>
 </g>
 <g transform="matrix(-.59314 0 0 -.23894 244.2 155.21)">
  <path stroke-linejoin="round" d="m260.18 149.6c-4.84 19.24-19.68 52-10.28 62.12 5.71 4.66 8.42-4.88 9.57-11.19h.23l-3.79 31.84 8.78-.10s-3.78-30.6-3.79-31.77h.09c.93 5.16 4.46 15.83 8.34 11.77 11.34-11.4-5.36-43.83-9.15-62.67z" fill-rule="evenodd" sodipodi:nodetypes="cccccccccc" stroke-width=".75890"/>
 </g>
 <g transform="matrix(-.59314 0 0 -.23894 244.84 185.77)">
  <path stroke-linejoin="round" d="m260.18 149.6c-4.84 19.24-19.68 52-10.28 62.12 5.71 4.66 8.42-4.88 9.57-11.19h.23l-3.79 31.84 8.78-.10s-3.78-30.6-3.79-31.77h.09c.93 5.16 4.46 15.83 8.34 11.77 11.34-11.4-5.36-43.83-9.15-62.67z" fill-rule="evenodd" sodipodi:nodetypes="cccccccccc" stroke-width=".75890"/>
 </g>
 <g transform="matrix(-.59314 0 0 -.23894 203.71 185.77)">
  <path stroke-linejoin="round" d="m260.18 149.6c-4.84 19.24-19.68 52-10.28 62.12 5.71 4.66 8.42-4.88 9.57-11.19h.23l-3.79 31.84 8.78-.10s-3.78-30.6-3.79-31.77h.09c.93 5.16 4.46 15.83 8.34 11.77 11.34-11.4-5.36-43.83-9.15-62.67z" fill-rule="evenodd" sodipodi:nodetypes="cccccccccc" stroke-width=".75890"/>
 </g>
 <g>
  <path d="m20.645 48.665c-4.925 7.825-20.035 21.149-10.463 25.263 5.811 1.894 8.576-1.983 9.747-4.549h.235l-3.859 12.946 8.937-.038s-3.85-12.445-3.859-12.921h.094c.946 2.097 4.536 6.439 8.484 4.785 11.546-4.635-5.455-17.824-9.316-25.486z" sodipodi:nodetypes="cccccccccc" fill-rule="evenodd"/>
  <path d="m20.604 28.816c-1.196 0-2.116.395-2.758 1.185s-.964 1.922-.964 3.396c0 1.473.322 2.605.964 3.396.642.777 1.562 1.165 2.758 1.165 1.185 0 2.093-.388 2.724-1.165.632-.791.947-1.923.947-3.396 0-1.487-.315-2.619-.947-3.396-.631-.790-1.539-1.185-2.724-1.185m-4.669-2.552c-1.506-.550-2.641-1.393-3.405-2.532-.765-1.139-1.147-2.559-1.147-4.26 0-2.532.781-4.461 2.343-5.787 1.561-1.326 3.854-1.989 6.878-1.989 3.001 0 5.283.663 6.844 1.989 1.562 1.313 2.343 3.242 2.343 5.787 0 1.701-.388 3.121-1.163 4.26-.764 1.139-1.9 1.982-3.406 2.532 1.684.562 2.952 1.48 3.805 2.752.863 1.26 1.295 2.854 1.295 4.783 0 2.974-.819 5.224-2.458 6.751-1.628 1.514-4.048 2.271-7.26 2.271-3.223 0-5.66-.757-7.31-2.271-1.639-1.527-2.459-3.777-2.459-6.751 0-1.929.427-3.523 1.279-4.783.864-1.272 2.138-2.19 3.821-2.752m1.496-6.008c0 1.192.271 2.11.814 2.753.553.643 1.34.964 2.359.964.996 0 1.766-.321 2.309-.964s.814-1.561.814-2.753-.271-2.103-.814-2.733c-.543-.643-1.313-.964-2.309-.965-1.019.001-1.806.322-2.359.965-.543.643-.814 1.554-.814 2.733"/>
  <path d="m117.99 140c4.92-7.82 20.03-21.15 10.46-25.26-5.81-1.9-8.58 1.98-9.75 4.55h-.23l3.85-12.95-8.93.04s3.85 12.44 3.86 12.92h-.10c-.94-2.1-4.53-6.44-8.48-4.79-11.547 4.64 5.45 17.83 9.32 25.49z" sodipodi:nodetypes="cccccccccc" fill-rule="evenodd"/>
  <path d="m118.03 160.35c1.19 0 2.11-.39 2.75-1.19.65-.79.97-1.92.97-3.39s-.32-2.61-.97-3.4c-.64-.77-1.56-1.16-2.75-1.16s-2.1.39-2.73 1.16c-.63.79-.95 1.93-.95 3.4 0 1.49.32 2.62.95 3.39.63.80 1.54 1.19 2.73 1.19m4.66 2.55c1.51.55 2.65 1.4 3.41 2.53.76 1.14 1.15 2.56 1.15 4.26 0 2.54-.78 4.46-2.35 5.79-1.56 1.33-3.85 1.99-6.87 1.99-3.01 0-5.29-.66-6.85-1.99-1.56-1.31-2.34-3.24-2.34-5.79 0-1.7.39-3.12 1.16-4.26.77-1.13 1.9-1.98 3.41-2.53-1.69-.56-2.95-1.48-3.81-2.75-.86-1.26-1.29-2.85-1.29-4.78 0-2.98.82-5.23 2.46-6.75 1.62-1.52 4.04-2.27 7.26-2.27s5.66.75 7.31 2.27c1.64 1.52 2.45 3.77 2.45 6.75 0 1.93-.42 3.52-1.27 4.78-.87 1.27-2.14 2.19-3.83 2.75m-1.49 6.01c0-1.19-.27-2.11-.81-2.75-.56-.65-1.34-.97-2.36-.97-1 0-1.77.32-2.31.97-.55.64-.82 1.56-.82 2.75s.27 2.1.82 2.73c.54.65 1.31.97 2.31.97 1.02 0 1.8-.32 2.36-.97.54-.64.81-1.55.81-2.73"/>
 </g>
</svg>
