<?xml version="1.0" encoding="UTF-8" standalone="no"?>
<svg xmlns:rdf="http://www.w3.org/1999/02/22-rdf-syntax-ns#" xmlns="http://www.w3.org/2000/svg" sodipodi:docname="simple_s_a.svg" height="190" sodipodi:version="0.32" width="140" version="1.0" xmlns:xlink="http://www.w3.org/1999/xlink" y="0" x="0" xmlns:cc="http://web.resource.org/cc/" xmlns:dc="http://purl.org/dc/elements/1.1/" sodipodi:docbase="/home/nicu/Desktop/card_nicu_buculei_01.zip_FILES/cards/simple" xmlns:sodipodi="http://inkscape.sourceforge.net/DTD/sodipodi-0.dtd">
 <sodipodi:namedview bordercolor="#666666" pagecolor="#ffffff" borderopacity="1.0"/>
 <defs>
  <linearGradient id="a" y2="128.7" gradientUnits="userSpaceOnUse" y1="63.1" gradientTransform="translate(0 -1)" x2="109" x1="2">
   <stop stop-color="#ebf0d0" offset="0"/>
   <stop stop-color="#ffffeb" offset="1"/>
  </linearGradient>
 </defs>
 <path fill-opacity=".49804" d="m21 5h103c8.86 0 16 7.136 16 16v153c0 8.86-7.14 16-16 16h-103c-8.864 0-16-7.14-16-16v-153c0-8.864 7.136-16 16-16z"/>
 <g>
  <path fill="#fff" d="m17 1h103c8.86 0 16 7.136 16 16v153c0 8.86-7.14 16-16 16h-103c-8.864 0-16-7.14-16-16v-153c0-8.864 7.136-16 16-16z"/>
  <path fill="#c7891f" d="m19 3h103c8.86 0 16 7.136 16 16v153c0 8.86-7.14 16-16 16h-103c-8.864 0-16-7.14-16-16v-153c0-8.864 7.136-16 16-16z"/>
  <path fill="url(#a)" d="m18 2h103c8.86 0 16 7.136 16 16v153c0 8.86-7.14 16-16 16h-103c-8.864 0-16-7.14-16-16v-153c0-8.864 7.136-16 16-16z"/>
 </g>
 <g transform="matrix(1 0 0 .40081 -239.33 -10.811)">
  <path d="m260.42 148.39c-4.93 19.52-20.04 52.76-10.46 63.03 5.81 4.72 8.57-4.95 9.74-11.35h.24l-3.86 32.3 8.94-.10s-3.85-31.05-3.86-32.23h.09c.95 5.23 4.54 16.06 8.49 11.94 11.54-11.57-5.46-44.47-9.32-63.59z" sodipodi:nodetypes="cccccccccc" fill-rule="evenodd"/>
 </g>
 <path d="m25.079 36.775h-10.001l-1.579 5.465h-6.429l9.187-30h7.626l9.187 30h-6.429l-1.562-5.465m-8.406-5.566h6.794l-3.389-11.936-3.405 11.936"/>
 <g transform="matrix(-1 0 0 -.40081 378.02 199.48)">
  <path d="m260.42 148.39c-4.93 19.52-20.04 52.76-10.46 63.03 5.81 4.72 8.57-4.95 9.74-11.35h.24l-3.86 32.3 8.94-.10s-3.85-31.05-3.86-32.23h.09c.95 5.23 4.54 16.06 8.49 11.94 11.54-11.57-5.46-44.47-9.32-63.59z" sodipodi:nodetypes="cccccccccc" fill-rule="evenodd"/>
 </g>
 <path d="m113.61 152.1h10l1.58-5.47h6.43l-9.19 30h-7.62l-9.19-30h6.43l1.56 5.47m8.41 5.56h-6.8l3.39 11.94 3.41-11.94"/>
 <path d="m69.781 59.062c-10.575 16.814-43.025 45.438-22.469 54.278 12.479 4.07 18.423-4.26 20.938-9.78h0.5l-8.281 27.82 19.187-.07s-8.262-26.76-8.281-27.78h.187c2.032 4.51 9.74 13.84 18.219 10.28 24.799-9.96-11.708-38.283-20-54.748zm-10.156 15.407h5.969l7.562 14.25v-14.25h5.094v20.781h-6l-7.562-14.25v14.25h-5.063v-20.781zm6.563 23.656h.593v4.565h-.593v-4.565zm1.906 0h.625v.687h-.625v-.687zm-23.032.125c.704 0 1.267.182 1.688.594.421.410.625.965.625 1.656 0 .69-.204 1.24-.625 1.66-.421.41-.984.62-1.688.62-.705 0-1.295-.21-1.718-.62-.422-.41-.625-.97-.625-1.66 0-.691.203-1.246.625-1.656.423-.412 1.013-.594 1.718-.594zm18.5 0c.301 0 .580.023.844.094.267.068.517.174.750.312v.625c-.228-.185-.490-.314-.750-.406-.257-.092-.521-.156-.812-.156-.574 0-1.008.162-1.313.469-.305.304-.469.734-.469 1.312 0 .58.164 1.04.469 1.34.305.31.739.44 1.313.44.291 0 .555-.03.812-.12.260-.10.522-.22.750-.41v.59c-.237.14-.483.25-.750.32-.264.07-.548.12-.844.12-.759 0-1.375-.22-1.812-.62-.437-.41-.656-.96-.656-1.66 0-.703.219-1.252.656-1.656.437-.406 1.053-.594 1.812-.594zm17.844.219h.625v.937h1.281v.438h-1.281v1.776c0 .27.042.43.125.50.085.08.274.13.532.13h.624v.44h-.624c-.478 0-.819-.07-1-.22-.182-.16-.282-.43-.282-.85v-1.776h-.437v-.438h.437v-.937zm-36.344.250c-.492 0-.896.148-1.187.469-.289.320-.438.759-.437 1.312-.001.55.148.99.437 1.31.291.32.695.47 1.187.47.493 0 .870-.15 1.157-.47.289-.32.437-.76.437-1.31 0-.553-.148-.992-.437-1.312-.287-.321-.664-.469-1.157-.469zm5.157.625c.457 0 .809.152 1.093.468.287.318.438.738.438 1.248 0 .52-.151.94-.438 1.25-.284.32-.636.47-1.093.47-.276 0-.520-.06-.719-.16-.197-.09-.370-.24-0.5-.43v1.75h-.625v-4.534h.625v0.5c.130-.195.303-.343 0.5-.437.199-.096.443-.125.719-.125zm4.125 0c.506 0 .925.121 1.218.406.296.280.438.670.438 1.16v.28h-2.844c.027.37.147.65.375.84.231.19.559.28.969.28.238 0 .466-.01.688-.06.224-.05.436-.15.656-.25v.53c-.222.08-.455.15-.688.19s-.447.06-.687.06c-.601 0-1.086-.16-1.438-.47-.349-.30-.531-.70-.531-1.22 0-.53.168-.96 0.5-1.278.334-.316.779-.468 1.344-.468zm4.468 0c.433 0 .747.109.969.344.222.232.344.582.344 1.032v1.97h-.625v-1.97c0-.31-.049-.53-.188-.69-.138-.153-.347-.217-.624-.218-.334.001-.620.096-.813.278-.193.19-.281.43-.281.75v1.85h-.625v-3.284h.625v0.5c.148-.197.332-.340.531-.437.202-.098.425-.125.687-.125zm13 0c.458 0 .810.152 1.094.468.287.318.438.738.438 1.248 0 .52-.151.94-.438 1.25-.284.32-.636.47-1.094.47-.275 0-.519-.06-.718-.16-.197-.09-.370-.24-0.5-.43v1.75h-.625v-4.534h.625v0.5c.130-.195.303-.343 0.5-.437.199-.096.443-.125.718-.125zm3.876 0c.544 0 .949.097 1.218.344.269.246.406.622.406 1.122v1.88h-.624v-.50c-.142.20-.321.34-.532.43-.210.10-.445.16-.750.16-.385 0-.709-.09-.937-.28-.227-.19-.344-.43-.344-.75 0-.37.155-.66.437-.84.285-.19.688-.29 1.25-.29h.876v-.06c-.001-.25-.094-.43-.282-.56-.186-.137-.443-.219-.781-.219-.215 0-.421.018-.625.063s-.406.129-.594.216v-.498c.227-.076.444-.150.656-.187.213-.039.424-.031.626-.031zm4.781 0c.042 0 .073-.006.125 0 .051.004.125.021.187.031v.531c-.069-.035-.136-.047-.219-.062-.080-.018-.182-.031-.281-.032-.349.001-.624.114-.812.308-.186.20-.282.48-.281.85v1.72h-.626v-3.284h.626v0.5c.129-.199.322-.342.531-.437.208-.098.452-.125.750-.125zm7.312 0c.538 0 .943.133 1.25.437.307.309.469.739.469 1.279s-.162.95-.469 1.25c-.307.31-.712.47-1.25.47-.540 0-.974-.16-1.281-.47-.305-.30-.438-.71-.438-1.25.001-.54.133-.97.438-1.279.307-.304.741-.437 1.281-.437zm4.625 0c.043 0 .074-.006.125 0 .052.004.125.021.188.031v.531c-.070-.035-.167-.047-.250-.062-.081-.018-.152-.031-.250-.032-.350.001-.625.114-.813.308-.186.20-.281.48-.281.85v1.72h-.625v-3.284h.625v0.5c.130-.199.292-.342 0.5-.437.208-.098.483-.125.781-.125zm2.094 0c.278 0 .519.029.719.125.199.095.372.244 0.5.437v-0.5h.593v2.874c0 .56-.121.98-.406 1.25-.284.27-.725.41-1.312.41-.218 0-.433 0-.625-.03-.193-.03-.381-.07-.563-.13v-.53c.182.09.354.15.532.19.177.04.378.06.562.06.406 0 .705-.10.906-.28.202-.18.313-.47.313-.84v-.26c-.128.20-.301.35-0.5.44-0.2.10-.441.13-.719.13-.462 0-.843-.16-1.125-.47s-.406-.71-.406-1.22.124-.91.406-1.219c.282-.306.663-.437 1.125-.437zm-26.406.062h.625v3.284h-.625v-3.284zm-18.032.375c-.327 0-.593.117-.781.339-.186.23-.281.55-.281.94 0 .40.095.71.281.94.188.22.454.31.781.31.328 0 .565-.09.750-.31.189-.23.282-.54.282-.94 0-.39-.093-.71-.282-.94-.185-.222-.422-.339-.750-.339zm4.282 0c-.345 0-.604.080-.813.249-.206.17-.343.41-.375.72h2.219c-.004-.29-.095-.51-.281-.69-.184-.173-.445-.279-.750-.279zm17.312 0c-.327 0-.593.117-.781.339-.186.23-.281.55-.281.94 0 .40.095.71.281.94.188.22.454.31.781.31s.564-.09.750-.31c.188-.23.281-.54.282-.94-.001-.39-.094-.71-.282-.94-.186-.222-.423-.339-.750-.339zm16.125 0c-.331 0-.588.117-.781.339-.193.23-.313.55-.312.94 0 .40.122.68.312.91.193.22.447.34.781.34.330 0 .589-.11.781-.34.193-.23.282-.52.282-.91s-.089-.71-.282-.94c-.192-.224-.451-.339-.781-.339zm6.875 0c-.331 0-.595.098-.781.309-.184.22-.281.52-.281.91s.097.69.281.91c.186.21.450.34.781.34.334 0 .598-.13.782-.34.185-.22.281-.52.281-.91s-.096-.69-.281-.91c-.184-.211-.448-.309-.782-.309zm-18.594 1.249c-.499 0-.838.06-1.031.16-.192.10-.281.26-.281.50 0 .19.075.35.219.47.145.11.345.15.593.15.343 0 .607-.10.813-.31.208-.21.312-.49.313-.84v-.13h-.626zm8.157.91h.719v.75h-.719v-.75z" sodipodi:nodetypes="ccccccccccccccccccccccccccccccccsssssssccsccsssssssccsssssccccccccsccccscccccccsssssssccsssssccccccsccscccsssccsssssccsccccsssccccccsccsssssccccccsccsccccssssscccsssccsccsccsssccccccsccsssssssccsccsssccccccsccsccccsssccsssccssssscccccccsssssssccsccsccsssssssccsssssssccsssssssccssssscccccccc" fill-rule="evenodd"/>
</svg>
