<?xml version="1.0" encoding="UTF-8" standalone="no"?>
<svg xmlns:rdf="http://www.w3.org/1999/02/22-rdf-syntax-ns#" xmlns="http://www.w3.org/2000/svg" sodipodi:docname="simple_s_10.svg" height="190" sodipodi:version="0.32" width="140" version="1.0" xmlns:xlink="http://www.w3.org/1999/xlink" y="0" x="0" xmlns:cc="http://web.resource.org/cc/" xmlns:dc="http://purl.org/dc/elements/1.1/" sodipodi:docbase="/home/nicu/Desktop/card_nicu_buculei_01.zip_FILES/cards/simple" xmlns:sodipodi="http://inkscape.sourceforge.net/DTD/sodipodi-0.dtd">
 <sodipodi:namedview bordercolor="#666666" pagecolor="#ffffff" borderopacity="1.0"/>
 <defs>
  <linearGradient id="a" y2="128.7" gradientUnits="userSpaceOnUse" y1="63.1" gradientTransform="translate(0 -1)" x2="109" x1="2">
   <stop stop-color="#ebf0d0" offset="0"/>
   <stop stop-color="#ffffeb" offset="1"/>
  </linearGradient>
 </defs>
 <path fill-opacity=".49804" d="m21 5h103c8.86 0 16 7.136 16 16v153c0 8.86-7.14 16-16 16h-103c-8.864 0-16-7.14-16-16v-153c0-8.864 7.136-16 16-16z"/>
 <g>
  <path fill="#fff" d="m17 1h103c8.86 0 16 7.136 16 16v153c0 8.86-7.14 16-16 16h-103c-8.864 0-16-7.14-16-16v-153c0-8.864 7.136-16 16-16z"/>
  <path fill="#c7891f" d="m19 3h103c8.86 0 16 7.136 16 16v153c0 8.86-7.14 16-16 16h-103c-8.864 0-16-7.14-16-16v-153c0-8.864 7.136-16 16-16z"/>
  <path fill="url(#a)" d="m18 2h103c8.86 0 16 7.136 16 16v153c0 8.86-7.14 16-16 16h-103c-8.864 0-16-7.14-16-16v-153c0-8.864 7.136-16 16-16z"/>
 </g>
 <g transform="matrix(1 0 0 .40081 -239.54 -11.052)">
  <path stroke-linejoin="round" d="m260.18 149.6c-4.84 19.24-19.68 52-10.28 62.12 5.71 4.66 8.42-4.88 9.57-11.19h.23l-3.79 31.84 8.78-.10s-3.78-30.6-3.79-31.77h.09c.93 5.16 4.46 15.83 8.34 11.77 11.34-11.4-5.36-43.83-9.15-62.67z" fill-rule="evenodd" sodipodi:nodetypes="cccccccccc" stroke="#000" stroke-width=".75890"/>
 </g>
 <path d="m11.677 42.368v-23.59l-5.237-.069.2526-3.622 4.9544-3.089h5.492v30.37m13.434-15.222c0-3.75-.265-6.389-.796-7.916-.520-1.541-1.4-2.311-2.641-2.311-1.24 0-2.125.770-2.656 2.311-.530 1.527-.795 4.166-.795 7.916 0 3.791.265 6.464.795 8.018.531 1.554 1.416 2.331 2.656 2.331 1.231 0 2.111-.777 2.641-2.331.531-1.554.796-4.227.796-8.018m5.777.061c0 4.97-0.8 8.807-2.401 11.513-1.601 2.693-3.872 4.039-6.813 4.039-2.951 0-5.227-1.346-6.827-4.039-1.601-2.706-2.401-6.543-2.401-11.513 0-4.983 0.8-8.821 2.401-11.514 1.6-2.706 3.876-4.059 6.827-4.059 2.941 0 5.212 1.353 6.813 4.059 1.601 2.693 2.401 6.531 2.401 11.514"/>
 <g transform="matrix(-1 0 0 -.40081 378.42 199.72)">
  <path stroke-linejoin="round" d="m260.18 149.6c-4.84 19.24-19.68 52-10.28 62.12 5.71 4.66 8.42-4.88 9.57-11.19h.23l-3.79 31.84 8.78-.10s-3.78-30.6-3.79-31.77h.09c.93 5.16 4.46 15.83 8.34 11.77 11.34-11.4-5.36-43.83-9.15-62.67z" fill-rule="evenodd" sodipodi:nodetypes="cccccccccc" stroke="#000" stroke-width=".75890"/>
 </g>
 <path d="m127.2 146.47v23.59l5.24.06-.25 3.63-4.96 3.09h-5.49v-30.37m-13.43 15.22c0 3.75.26 6.39.79 7.91.52 1.54 1.4 2.31 2.64 2.31s2.13-.77 2.66-2.31c.53-1.52.79-4.16.79-7.91 0-3.79-.26-6.47-.79-8.02s-1.42-2.33-2.66-2.33c-1.23 0-2.11.78-2.64 2.33s-.79 4.23-.79 8.02m-5.78-.06c0-4.97.80-8.81 2.4-11.52 1.6-2.69 3.87-4.04 6.81-4.04 2.95 0 5.23 1.35 6.83 4.04 1.6 2.71 2.4 6.55 2.4 11.52 0 4.98-.80 8.82-2.4 11.51-1.6 2.71-3.88 4.06-6.83 4.06-2.94 0-5.21-1.35-6.81-4.06-1.6-2.69-2.4-6.53-2.4-11.51"/>
 <g transform="matrix(.59314 0 0 .23894 -105.41 .48105)">
  <path stroke-linejoin="round" d="m260.18 149.6c-4.84 19.24-19.68 52-10.28 62.12 5.71 4.66 8.42-4.88 9.57-11.19h.23l-3.79 31.84 8.78-.10s-3.78-30.6-3.79-31.77h.09c.93 5.16 4.46 15.83 8.34 11.77 11.34-11.4-5.36-43.83-9.15-62.67z" fill-rule="evenodd" sodipodi:nodetypes="cccccccccc" stroke-width=".75890"/>
 </g>
 <g transform="matrix(.59314 0 0 .23894 -85.425 14.585)">
  <path stroke-linejoin="round" d="m260.18 149.6c-4.84 19.24-19.68 52-10.28 62.12 5.71 4.66 8.42-4.88 9.57-11.19h.23l-3.79 31.84 8.78-.10s-3.78-30.6-3.79-31.77h.09c.93 5.16 4.46 15.83 8.34 11.77 11.34-11.4-5.36-43.83-9.15-62.67z" fill-rule="evenodd" sodipodi:nodetypes="cccccccccc" stroke-width=".75890"/>
 </g>
 <g transform="matrix(.59314 0 0 .23894 -64.27 .39884)">
  <path stroke-linejoin="round" d="m260.18 149.6c-4.84 19.24-19.68 52-10.28 62.12 5.71 4.66 8.42-4.88 9.57-11.19h.23l-3.79 31.84 8.78-.10s-3.78-30.6-3.79-31.77h.09c.93 5.16 4.46 15.83 8.34 11.77 11.34-11.4-5.36-43.83-9.15-62.67z" fill-rule="evenodd" sodipodi:nodetypes="cccccccccc" stroke-width=".75890"/>
 </g>
 <g transform="matrix(.59314 0 0 .23894 -105.93 35.658)">
  <path stroke-linejoin="round" d="m260.18 149.6c-4.84 19.24-19.68 52-10.28 62.12 5.71 4.66 8.42-4.88 9.57-11.19h.23l-3.79 31.84 8.78-.10s-3.78-30.6-3.79-31.77h.09c.93 5.16 4.46 15.83 8.34 11.77 11.34-11.4-5.36-43.83-9.15-62.67z" fill-rule="evenodd" sodipodi:nodetypes="cccccccccc" stroke-width=".75890"/>
 </g>
 <g transform="matrix(.59314 0 0 .23894 -65.973 34.483)">
  <path stroke-linejoin="round" d="m260.18 149.6c-4.84 19.24-19.68 52-10.28 62.12 5.71 4.66 8.42-4.88 9.57-11.19h.23l-3.79 31.84 8.78-.10s-3.78-30.6-3.79-31.77h.09c.93 5.16 4.46 15.83 8.34 11.77 11.34-11.4-5.36-43.83-9.15-62.67z" fill-rule="evenodd" sodipodi:nodetypes="cccccccccc" stroke-width=".75890"/>
 </g>
 <g transform="matrix(-.59314 0 0 -.23894 202.53 155.13)">
  <path stroke-linejoin="round" d="m260.18 149.6c-4.84 19.24-19.68 52-10.28 62.12 5.71 4.66 8.42-4.88 9.57-11.19h.23l-3.79 31.84 8.78-.10s-3.78-30.6-3.79-31.77h.09c.93 5.16 4.46 15.83 8.34 11.77 11.34-11.4-5.36-43.83-9.15-62.67z" fill-rule="evenodd" sodipodi:nodetypes="cccccccccc" stroke-width=".75890"/>
 </g>
 <g transform="matrix(-.59314 0 0 -.23894 244.2 155.21)">
  <path stroke-linejoin="round" d="m260.18 149.6c-4.84 19.24-19.68 52-10.28 62.12 5.71 4.66 8.42-4.88 9.57-11.19h.23l-3.79 31.84 8.78-.10s-3.78-30.6-3.79-31.77h.09c.93 5.16 4.46 15.83 8.34 11.77 11.34-11.4-5.36-43.83-9.15-62.67z" fill-rule="evenodd" sodipodi:nodetypes="cccccccccc" stroke-width=".75890"/>
 </g>
 <g transform="matrix(-.59314 0 0 -.23894 223.04 172.76)">
  <path stroke-linejoin="round" d="m260.18 149.6c-4.84 19.24-19.68 52-10.28 62.12 5.71 4.66 8.42-4.88 9.57-11.19h.23l-3.79 31.84 8.78-.10s-3.78-30.6-3.79-31.77h.09c.93 5.16 4.46 15.83 8.34 11.77 11.34-11.4-5.36-43.83-9.15-62.67z" fill-rule="evenodd" sodipodi:nodetypes="cccccccccc" stroke-width=".75890"/>
 </g>
 <g transform="matrix(-.59314 0 0 -.23894 244.84 185.77)">
  <path stroke-linejoin="round" d="m260.18 149.6c-4.84 19.24-19.68 52-10.28 62.12 5.71 4.66 8.42-4.88 9.57-11.19h.23l-3.79 31.84 8.78-.10s-3.78-30.6-3.79-31.77h.09c.93 5.16 4.46 15.83 8.34 11.77 11.34-11.4-5.36-43.83-9.15-62.67z" fill-rule="evenodd" sodipodi:nodetypes="cccccccccc" stroke-width=".75890"/>
 </g>
 <g transform="matrix(-.59314 0 0 -.23894 203.71 185.77)">
  <path stroke-linejoin="round" d="m260.18 149.6c-4.84 19.24-19.68 52-10.28 62.12 5.71 4.66 8.42-4.88 9.57-11.19h.23l-3.79 31.84 8.78-.10s-3.78-30.6-3.79-31.77h.09c.93 5.16 4.46 15.83 8.34 11.77 11.34-11.4-5.36-43.83-9.15-62.67z" fill-rule="evenodd" sodipodi:nodetypes="cccccccccc" stroke-width=".75890"/>
 </g>
</svg>
